<?xml version="1.0" encoding="UTF-8"?>
<!-- Generator: Adobe Illustrator 24.0.1, SVG Export Plug-In . SVG Version: 6.00 Build 0)  -->
<svg version="1.1" id="Layer_1" xmlns="http://www.w3.org/2000/svg" xmlns:xlink="http://www.w3.org/1999/xlink" x="0px" y="0px" viewBox="0 0 445 66" style="enable-background:new 0 0 445 66;" xml:space="preserve">
<style type="text/css">
	.st0{fill:none;}
	.st1{fill-rule:evenodd;clip-rule:evenodd;fill:#0090D4;}
	.st2{fill:none;stroke:#FFFFFF;stroke-width:2.4381;stroke-miterlimit:10;}
	.st3{fill:none;stroke:#231F20;stroke-width:0.2477;stroke-miterlimit:2.613;}
	.st4{fill-rule:evenodd;clip-rule:evenodd;fill:#231F20;}
	.st5{fill-rule:evenodd;clip-rule:evenodd;fill:#FFFFFF;}
	.st6{fill:#231F20;}
	.st7{fill-rule:evenodd;clip-rule:evenodd;fill:#FBD106;}
</style>
<path d="M80.76,9.84c1.5,0,2.7,0.34,3.6,1.02c0.91,0.68,1.36,1.94,1.36,3.77c0,1.79-0.44,3.06-1.33,3.79  c-0.89,0.73-2.01,1.09-3.37,1.09h-2.63V9.84H80.76z M80.23,11.23v6.9h0.91c0.82,0,1.47-0.25,1.93-0.76c0.47-0.51,0.7-1.43,0.7-2.74  c0-0.91-0.12-1.62-0.36-2.11c-0.23-0.5-0.55-0.84-0.94-1.02c-0.38-0.18-0.84-0.27-1.39-0.27H80.23z M89.19,12.11v7.41H87.4v-7.41  H89.19z M88.28,8.36c0.34,0,0.61,0.11,0.81,0.32c0.21,0.21,0.32,0.46,0.32,0.77s-0.11,0.56-0.32,0.77  c-0.21,0.21-0.48,0.31-0.81,0.31c-0.33,0-0.6-0.1-0.81-0.31c-0.21-0.21-0.31-0.46-0.31-0.77s0.1-0.56,0.31-0.77  C87.68,8.47,87.96,8.36,88.28,8.36z M95,11.91c0.27,0,0.52,0.03,0.74,0.1l-0.31,1.74c-0.22-0.06-0.44-0.08-0.66-0.08  c-0.44,0-0.78,0.16-1.04,0.48c-0.25,0.31-0.45,0.78-0.6,1.43v3.95h-1.79v-7.41h1.55l0.17,1.46c0.18-0.53,0.43-0.94,0.77-1.22  C94.18,12.06,94.57,11.91,95,11.91z M102.51,15.64c0,0.09-0.01,0.34-0.04,0.73h-4.65c0.06,0.72,0.24,1.23,0.56,1.54  c0.32,0.31,0.74,0.46,1.26,0.46c0.33,0,0.63-0.05,0.92-0.15c0.29-0.11,0.6-0.28,0.92-0.5l0.74,1.02c-0.82,0.66-1.74,0.99-2.74,0.99  c-1.13,0-2-0.35-2.62-1.04c-0.61-0.69-0.91-1.63-0.91-2.83c0-0.76,0.13-1.43,0.39-2.03c0.26-0.61,0.64-1.08,1.13-1.41  c0.49-0.35,1.08-0.52,1.76-0.52c1.04,0,1.84,0.33,2.41,0.99C102.23,13.55,102.51,14.46,102.51,15.64z M100.73,15.12  c0-1.3-0.48-1.95-1.44-1.95c-0.44,0-0.78,0.16-1.04,0.49c-0.24,0.32-0.39,0.83-0.43,1.54h2.91V15.12z M105.91,8.95v10.57h-1.79V9.14  L105.91,8.95z M110.35,12.11l-2.46,3.26l2.7,4.14h-2.06l-2.55-4.05l2.48-3.36H110.35z M115.84,19.17c-0.26,0.19-0.56,0.33-0.88,0.42  c-0.32,0.09-0.64,0.14-0.98,0.14c-0.73-0.01-1.28-0.21-1.67-0.62c-0.37-0.41-0.56-1.01-0.56-1.81V13.4h-1.16v-1.29h1.16v-1.64  l1.79-0.21v1.85h1.72l-0.18,1.29h-1.54v3.86c0,0.36,0.06,0.63,0.18,0.78c0.13,0.16,0.33,0.24,0.6,0.24c0.27,0,0.57-0.09,0.88-0.27  L115.84,19.17z M119.64,11.9c1.09,0,1.94,0.35,2.55,1.05c0.62,0.69,0.92,1.64,0.92,2.86c0,0.77-0.14,1.46-0.42,2.06  c-0.28,0.59-0.68,1.05-1.2,1.37c-0.52,0.33-1.14,0.49-1.86,0.49c-1.09,0-1.95-0.35-2.56-1.04c-0.62-0.7-0.92-1.66-0.92-2.88  c0-0.77,0.14-1.46,0.42-2.04c0.28-0.59,0.68-1.05,1.2-1.37C118.3,12.06,118.92,11.9,119.64,11.9z M119.64,13.26  c-1.07,0-1.61,0.85-1.61,2.55c0,0.88,0.13,1.53,0.39,1.95c0.27,0.41,0.67,0.62,1.2,0.62c0.53,0,0.93-0.21,1.19-0.63  c0.27-0.42,0.41-1.06,0.41-1.93s-0.13-1.51-0.41-1.92C120.56,13.47,120.16,13.26,119.64,13.26z M128.45,11.91  c0.27,0,0.52,0.03,0.74,0.1l-0.31,1.74c-0.22-0.06-0.44-0.08-0.66-0.08c-0.44,0-0.78,0.16-1.04,0.48c-0.25,0.31-0.45,0.78-0.6,1.43  v3.95h-1.79v-7.41h1.55l0.17,1.46c0.18-0.53,0.43-0.94,0.77-1.22C127.62,12.06,128.01,11.91,128.45,11.91z M135.28,17.56  c0,0.29,0.04,0.5,0.13,0.64c0.09,0.13,0.24,0.23,0.43,0.31l-0.38,1.19c-0.42-0.04-0.76-0.14-1.04-0.31  c-0.26-0.17-0.46-0.42-0.6-0.77c-0.25,0.37-0.57,0.65-0.95,0.84c-0.37,0.18-0.79,0.27-1.26,0.27c-0.74,0-1.32-0.21-1.75-0.63  c-0.43-0.42-0.64-0.97-0.64-1.65c0-0.8,0.29-1.41,0.87-1.83c0.59-0.43,1.42-0.64,2.51-0.64h0.92v-0.42c0-0.48-0.11-0.81-0.34-0.99  c-0.21-0.2-0.56-0.29-1.05-0.29c-0.54,0-1.19,0.13-1.96,0.39l-0.42-1.22c0.92-0.35,1.82-0.53,2.69-0.53c1.9,0,2.84,0.85,2.84,2.55  V17.56z M132.09,18.42c0.61,0,1.08-0.3,1.43-0.91v-1.5h-0.74c-1.16,0-1.74,0.43-1.74,1.29c0,0.35,0.09,0.63,0.27,0.83  C131.49,18.33,131.75,18.42,132.09,18.42z M141.69,19.17c-0.26,0.19-0.56,0.33-0.88,0.42c-0.32,0.09-0.64,0.14-0.98,0.14  c-0.73-0.01-1.28-0.21-1.67-0.62c-0.37-0.41-0.56-1.01-0.56-1.81V13.4h-1.16v-1.29h1.16v-1.64l1.79-0.21v1.85h1.72l-0.18,1.29h-1.54  v3.86c0,0.36,0.06,0.63,0.18,0.78c0.13,0.16,0.33,0.24,0.6,0.24c0.27,0,0.57-0.09,0.88-0.27L141.69,19.17z M149.04,9.63  c0.68,0,1.27,0.1,1.78,0.29s0.98,0.49,1.41,0.9l-0.91,1.05c-0.34-0.29-0.69-0.5-1.05-0.63c-0.35-0.13-0.72-0.2-1.12-0.2  c-0.45,0-0.81,0.1-1.09,0.31c-0.27,0.2-0.41,0.48-0.41,0.84c0,0.24,0.05,0.44,0.15,0.6c0.11,0.16,0.31,0.31,0.59,0.45  c0.28,0.14,0.7,0.29,1.25,0.46c0.95,0.3,1.67,0.67,2.14,1.12c0.49,0.44,0.73,1.08,0.73,1.93c0,0.58-0.15,1.09-0.45,1.54  c-0.29,0.45-0.71,0.8-1.26,1.05c-0.55,0.25-1.2,0.38-1.96,0.38c-0.74,0-1.4-0.12-1.99-0.35c-0.58-0.24-1.08-0.57-1.5-0.98l0.95-1.06  c0.37,0.32,0.76,0.56,1.16,0.73c0.4,0.16,0.85,0.24,1.33,0.24c0.53,0,0.96-0.13,1.29-0.38c0.33-0.25,0.49-0.61,0.49-1.06  c0-0.28-0.06-0.51-0.17-0.69c-0.11-0.19-0.3-0.35-0.57-0.49c-0.27-0.15-0.66-0.3-1.18-0.46c-1.03-0.32-1.77-0.7-2.23-1.15  s-0.69-1.04-0.69-1.76c0-0.53,0.14-1,0.42-1.4c0.28-0.4,0.67-0.71,1.16-0.94C147.84,9.74,148.41,9.63,149.04,9.63z M160.11,15.64  c0,0.09-0.01,0.34-0.04,0.73h-4.65c0.06,0.72,0.24,1.23,0.56,1.54c0.32,0.31,0.74,0.46,1.26,0.46c0.33,0,0.64-0.05,0.92-0.15  c0.29-0.11,0.6-0.28,0.92-0.5l0.74,1.02c-0.82,0.66-1.74,0.99-2.74,0.99c-1.13,0-2-0.35-2.62-1.04c-0.61-0.69-0.91-1.63-0.91-2.83  c0-0.76,0.13-1.43,0.39-2.03c0.26-0.61,0.64-1.08,1.13-1.41c0.49-0.35,1.08-0.52,1.76-0.52c1.04,0,1.84,0.33,2.41,0.99  C159.83,13.55,160.11,14.46,160.11,15.64z M158.33,15.12c0-1.3-0.48-1.95-1.44-1.95c-0.44,0-0.78,0.16-1.04,0.49  c-0.24,0.32-0.39,0.83-0.43,1.54h2.91V15.12z M163.51,8.95v10.57h-1.79V9.14L163.51,8.95z M167.95,12.11l-2.46,3.26l2.7,4.14h-2.06  l-2.55-4.05l2.48-3.36H167.95z M172.07,11.9c1.09,0,1.94,0.35,2.55,1.05c0.62,0.69,0.92,1.64,0.92,2.86c0,0.77-0.14,1.46-0.42,2.06  c-0.28,0.59-0.68,1.05-1.2,1.37c-0.52,0.33-1.14,0.49-1.86,0.49c-1.09,0-1.95-0.35-2.56-1.04c-0.62-0.7-0.92-1.66-0.92-2.88  c0-0.77,0.14-1.46,0.42-2.04c0.28-0.59,0.68-1.05,1.2-1.37C170.73,12.06,171.35,11.9,172.07,11.9z M172.07,13.26  c-1.07,0-1.61,0.85-1.61,2.55c0,0.88,0.13,1.53,0.39,1.95c0.27,0.41,0.67,0.62,1.2,0.62s0.93-0.21,1.19-0.63  c0.27-0.42,0.41-1.06,0.41-1.93s-0.14-1.51-0.41-1.92C172.99,13.47,172.59,13.26,172.07,13.26z M178.97,19.73  c-0.57,0-1.02-0.16-1.34-0.49c-0.32-0.34-0.48-0.81-0.48-1.41V9.14l1.79-0.2v8.82c0,0.35,0.14,0.52,0.42,0.52  c0.14,0,0.28-0.02,0.42-0.07l0.38,1.26C179.79,19.64,179.39,19.73,178.97,19.73z M186.76,17.56c0,0.29,0.04,0.5,0.13,0.64  c0.09,0.13,0.24,0.23,0.43,0.31l-0.38,1.19c-0.42-0.04-0.76-0.14-1.04-0.31c-0.26-0.17-0.46-0.42-0.6-0.77  c-0.25,0.37-0.57,0.65-0.95,0.84c-0.37,0.18-0.79,0.27-1.26,0.27c-0.74,0-1.32-0.21-1.75-0.63s-0.64-0.97-0.64-1.65  c0-0.8,0.29-1.41,0.87-1.83c0.59-0.43,1.42-0.64,2.51-0.64h0.92v-0.42c0-0.48-0.11-0.81-0.34-0.99c-0.21-0.2-0.56-0.29-1.05-0.29  c-0.54,0-1.2,0.13-1.96,0.39l-0.42-1.22c0.92-0.35,1.82-0.53,2.69-0.53c1.89,0,2.84,0.85,2.84,2.55V17.56z M183.57,18.42  c0.61,0,1.08-0.3,1.43-0.91v-1.5h-0.74c-1.16,0-1.74,0.43-1.74,1.29c0,0.35,0.09,0.63,0.27,0.83  C182.96,18.33,183.22,18.42,183.57,18.42z M192.87,11.9c0.65,0,1.17,0.2,1.54,0.6c0.37,0.4,0.56,0.95,0.56,1.65v5.36h-1.79v-5.08  c0-0.44-0.08-0.75-0.24-0.92c-0.15-0.18-0.37-0.27-0.67-0.27c-0.3,0-0.57,0.1-0.83,0.29c-0.25,0.19-0.49,0.46-0.73,0.81v5.17h-1.79  V9.16l1.79-0.18v4.02C191.32,12.26,192.03,11.9,192.87,11.9z M209.79,19.52h-1.81l-0.25-4.05c-0.08-1.45-0.13-2.59-0.13-3.44v-0.5  l-1.76,6.94h-1.75l-1.88-6.96c0.02,0.62,0.03,1.08,0.03,1.4c0,0.85-0.03,1.72-0.08,2.62l-0.24,3.99h-1.79l0.77-9.67h2.38l1.72,6.78  l1.62-6.78h2.41L209.79,19.52z M217.59,15.64c0,0.09-0.01,0.34-0.04,0.73h-4.65c0.06,0.72,0.24,1.23,0.56,1.54  c0.32,0.31,0.74,0.46,1.26,0.46c0.33,0,0.63-0.05,0.92-0.15c0.29-0.11,0.6-0.28,0.92-0.5l0.74,1.02c-0.82,0.66-1.74,0.99-2.74,0.99  c-1.13,0-2-0.35-2.62-1.04c-0.61-0.69-0.91-1.63-0.91-2.83c0-0.76,0.13-1.43,0.39-2.03c0.26-0.61,0.64-1.08,1.13-1.41  c0.49-0.35,1.08-0.52,1.76-0.52c1.04,0,1.84,0.33,2.41,0.99C217.3,13.55,217.59,14.46,217.59,15.64z M215.81,15.12  c0-1.3-0.48-1.95-1.44-1.95c-0.44,0-0.78,0.16-1.04,0.49c-0.24,0.32-0.39,0.83-0.43,1.54h2.91V15.12z M223.14,11.9  c0.66,0,1.18,0.2,1.54,0.6c0.37,0.39,0.56,0.94,0.56,1.65v5.36h-1.79v-5.08c0-0.44-0.08-0.75-0.24-0.92  c-0.15-0.18-0.37-0.27-0.67-0.27c-0.31,0-0.59,0.1-0.84,0.29c-0.24,0.19-0.48,0.46-0.71,0.83v5.15h-1.79v-7.41h1.55l0.14,0.97  C221.5,12.29,222.25,11.9,223.14,11.9z M233.41,15.64c0,0.09-0.01,0.34-0.04,0.73h-4.65c0.06,0.72,0.24,1.23,0.56,1.54  c0.32,0.31,0.74,0.46,1.26,0.46c0.33,0,0.63-0.05,0.92-0.15c0.29-0.11,0.6-0.28,0.92-0.5l0.74,1.02c-0.82,0.66-1.74,0.99-2.74,0.99  c-1.13,0-2-0.35-2.62-1.04c-0.61-0.69-0.91-1.63-0.91-2.83c0-0.76,0.13-1.43,0.39-2.03c0.26-0.61,0.64-1.08,1.13-1.41  c0.49-0.35,1.08-0.52,1.76-0.52c1.04,0,1.84,0.33,2.41,0.99C233.12,13.55,233.41,14.46,233.41,15.64z M231.63,15.12  c0-1.3-0.48-1.95-1.44-1.95c-0.44,0-0.78,0.16-1.04,0.49c-0.24,0.32-0.39,0.83-0.43,1.54h2.91V15.12z M238.96,11.9  c0.66,0,1.18,0.2,1.54,0.6c0.37,0.39,0.56,0.94,0.56,1.65v5.36h-1.79v-5.08c0-0.44-0.08-0.75-0.24-0.92  c-0.15-0.18-0.37-0.27-0.67-0.27c-0.31,0-0.59,0.1-0.84,0.29c-0.24,0.19-0.48,0.46-0.71,0.83v5.15h-1.79v-7.41h1.55l0.14,0.97  C237.32,12.29,238.07,11.9,238.96,11.9z M249.59,12.5c-0.48,0.17-1.19,0.25-2.14,0.25c0.46,0.21,0.79,0.46,1.01,0.77  c0.22,0.3,0.34,0.68,0.34,1.13c0,0.49-0.12,0.91-0.36,1.29c-0.23,0.37-0.58,0.67-1.04,0.88c-0.45,0.21-0.97,0.32-1.58,0.32  c-0.34,0-0.63-0.04-0.88-0.11c-0.21,0.14-0.31,0.32-0.31,0.55c0,0.35,0.3,0.52,0.9,0.52h1.13c0.54,0,1.01,0.09,1.41,0.27  c0.41,0.18,0.73,0.43,0.95,0.76c0.22,0.32,0.34,0.68,0.34,1.08c0,0.75-0.32,1.33-0.95,1.74c-0.64,0.42-1.55,0.63-2.74,0.63  c-0.86,0-1.54-0.09-2.03-0.27c-0.49-0.18-0.83-0.43-1.04-0.77c-0.2-0.34-0.31-0.77-0.31-1.29h1.61c0,0.26,0.05,0.47,0.14,0.62  c0.1,0.15,0.28,0.26,0.53,0.34c0.26,0.07,0.63,0.11,1.12,0.11c0.68,0,1.16-0.08,1.44-0.25c0.28-0.17,0.42-0.41,0.42-0.73  c0-0.28-0.11-0.5-0.32-0.66c-0.21-0.15-0.53-0.22-0.94-0.22h-1.12c-0.7,0-1.23-0.14-1.58-0.41c-0.35-0.27-0.53-0.61-0.53-1.02  c0-0.26,0.07-0.51,0.22-0.76c0.16-0.24,0.37-0.45,0.64-0.62c-0.45-0.23-0.78-0.52-0.99-0.85c-0.21-0.35-0.31-0.76-0.31-1.23  c0-0.53,0.13-1,0.39-1.4c0.26-0.4,0.62-0.71,1.08-0.92c0.47-0.22,1-0.34,1.6-0.34c0.78,0.02,1.41-0.04,1.89-0.17  c0.49-0.14,1.01-0.36,1.57-0.66L249.59,12.5z M245.71,13.12c-0.4,0-0.72,0.13-0.95,0.39c-0.22,0.25-0.34,0.59-0.34,1.02  c0,0.45,0.12,0.8,0.35,1.06s0.56,0.39,0.97,0.39c0.43,0,0.76-0.13,0.98-0.38c0.22-0.26,0.34-0.63,0.34-1.09  C247.06,13.58,246.61,13.12,245.71,13.12z M255.84,17.56c0,0.29,0.04,0.5,0.13,0.64c0.09,0.13,0.24,0.23,0.43,0.31l-0.38,1.19  c-0.42-0.04-0.76-0.14-1.04-0.31c-0.26-0.17-0.46-0.42-0.6-0.77c-0.25,0.37-0.57,0.65-0.95,0.84c-0.37,0.18-0.79,0.27-1.26,0.27  c-0.74,0-1.32-0.21-1.75-0.63s-0.64-0.97-0.64-1.65c0-0.8,0.29-1.41,0.87-1.83c0.59-0.43,1.42-0.64,2.51-0.64h0.92v-0.42  c0-0.48-0.11-0.81-0.34-0.99c-0.21-0.2-0.56-0.29-1.05-0.29c-0.54,0-1.2,0.13-1.96,0.39l-0.42-1.22c0.92-0.35,1.82-0.53,2.69-0.53  c1.89,0,2.84,0.85,2.84,2.55V17.56z M252.65,18.42c0.61,0,1.08-0.3,1.43-0.91v-1.5h-0.74c-1.16,0-1.74,0.43-1.74,1.29  c0,0.35,0.09,0.63,0.27,0.83C252.04,18.33,252.31,18.42,252.65,18.42z M261.96,11.9c0.65,0,1.17,0.2,1.54,0.6  c0.37,0.4,0.56,0.95,0.56,1.65v5.36h-1.79v-5.08c0-0.44-0.08-0.75-0.24-0.92c-0.15-0.18-0.37-0.27-0.67-0.27  c-0.3,0-0.57,0.1-0.83,0.29c-0.25,0.19-0.49,0.46-0.73,0.81v5.17h-1.79V9.16l1.79-0.18v4.02C260.4,12.26,261.12,11.9,261.96,11.9z   M271.55,9.84v9.67h-1.85V9.84H271.55z M276.98,9.84l-3.35,4.38l3.61,5.29h-2.2l-3.42-5.17l3.35-4.51H276.98z M284.09,15.64  c0,0.09-0.01,0.34-0.04,0.73h-4.65c0.06,0.72,0.24,1.23,0.56,1.54c0.32,0.31,0.74,0.46,1.26,0.46c0.33,0,0.63-0.05,0.92-0.15  c0.29-0.11,0.6-0.28,0.92-0.5l0.74,1.02c-0.82,0.66-1.74,0.99-2.74,0.99c-1.13,0-2-0.35-2.62-1.04c-0.61-0.69-0.91-1.63-0.91-2.83  c0-0.76,0.13-1.43,0.39-2.03c0.26-0.61,0.64-1.08,1.13-1.41c0.49-0.35,1.08-0.52,1.76-0.52c1.04,0,1.84,0.33,2.41,0.99  C283.8,13.55,284.09,14.46,284.09,15.64z M282.31,15.12c0-1.3-0.48-1.95-1.44-1.95c-0.44,0-0.78,0.16-1.04,0.49  c-0.24,0.32-0.39,0.83-0.43,1.54h2.91V15.12z M287.47,18.86c0,0.73-0.11,1.32-0.32,1.78c-0.2,0.47-0.5,0.84-0.88,1.12  s-0.88,0.55-1.5,0.8l-0.57-1.3c0.36-0.17,0.65-0.34,0.85-0.5c0.21-0.16,0.36-0.38,0.46-0.66c0.11-0.28,0.17-0.65,0.17-1.12v-6.86  h1.79V18.86z M286.56,8.36c0.34,0,0.61,0.11,0.81,0.32c0.21,0.21,0.32,0.46,0.32,0.77s-0.11,0.56-0.32,0.77  c-0.2,0.21-0.48,0.31-0.81,0.31c-0.33,0-0.6-0.1-0.81-0.31c-0.21-0.21-0.31-0.46-0.31-0.77s0.1-0.56,0.31-0.77  C285.97,8.47,286.24,8.36,286.56,8.36z M295.56,19.52H294l-0.1-1.04c-0.27,0.42-0.59,0.73-0.97,0.94c-0.36,0.21-0.8,0.31-1.3,0.31  c-0.66,0-1.18-0.2-1.54-0.6c-0.36-0.41-0.53-0.98-0.53-1.69v-5.32h1.79v5.1c0,0.42,0.07,0.72,0.21,0.9c0.15,0.18,0.38,0.27,0.7,0.27  c0.57,0,1.07-0.35,1.5-1.05v-5.21h1.79V19.52z M301.37,11.91c0.27,0,0.52,0.03,0.74,0.1l-0.31,1.74c-0.22-0.06-0.44-0.08-0.66-0.08  c-0.44,0-0.78,0.16-1.04,0.48c-0.25,0.31-0.45,0.78-0.6,1.43v3.95h-1.79v-7.41h1.55l0.17,1.46c0.18-0.53,0.43-0.94,0.77-1.22  C300.54,12.06,300.93,11.91,301.37,11.91z M309.15,19.52h-1.55l-0.1-1.04c-0.27,0.42-0.59,0.73-0.97,0.94  c-0.36,0.21-0.8,0.31-1.3,0.31c-0.66,0-1.18-0.2-1.54-0.6c-0.35-0.41-0.53-0.98-0.53-1.69v-5.32h1.79v5.1c0,0.42,0.07,0.72,0.21,0.9  c0.15,0.18,0.38,0.27,0.7,0.27c0.57,0,1.07-0.35,1.5-1.05v-5.21h1.79V19.52z M316.78,17.56c0,0.29,0.04,0.5,0.13,0.64  c0.09,0.13,0.24,0.23,0.43,0.31l-0.38,1.19c-0.42-0.04-0.77-0.14-1.04-0.31c-0.26-0.17-0.46-0.42-0.6-0.77  c-0.25,0.37-0.57,0.65-0.95,0.84c-0.37,0.18-0.79,0.27-1.26,0.27c-0.74,0-1.32-0.21-1.75-0.63c-0.43-0.42-0.64-0.97-0.64-1.65  c0-0.8,0.29-1.41,0.87-1.83c0.59-0.43,1.42-0.64,2.51-0.64h0.92v-0.42c0-0.48-0.11-0.81-0.34-0.99c-0.21-0.2-0.56-0.29-1.05-0.29  c-0.54,0-1.19,0.13-1.96,0.39l-0.42-1.22c0.92-0.35,1.82-0.53,2.69-0.53c1.9,0,2.84,0.85,2.84,2.55V17.56z M313.59,18.42  c0.61,0,1.08-0.3,1.43-0.91v-1.5h-0.74c-1.16,0-1.74,0.43-1.74,1.29c0,0.35,0.09,0.63,0.27,0.83  C312.98,18.33,313.24,18.42,313.59,18.42z M322.89,11.9c0.66,0,1.18,0.2,1.54,0.6c0.37,0.39,0.56,0.94,0.56,1.65v5.36h-1.79v-5.08  c0-0.44-0.08-0.75-0.24-0.92c-0.15-0.18-0.37-0.27-0.67-0.27c-0.31,0-0.59,0.1-0.84,0.29c-0.24,0.19-0.48,0.46-0.71,0.83v5.15h-1.79  v-7.41h1.55l0.14,0.97C321.25,12.29,322,11.9,322.89,11.9z M80.76,27.84c1.5,0,2.7,0.34,3.6,1.02c0.91,0.68,1.36,1.94,1.36,3.77  c0,1.79-0.44,3.06-1.33,3.79c-0.89,0.73-2.01,1.09-3.37,1.09h-2.63v-9.67H80.76z M80.23,29.23v6.9h0.91c0.82,0,1.47-0.25,1.93-0.76  c0.47-0.51,0.7-1.43,0.7-2.74c0-0.91-0.12-1.62-0.36-2.11c-0.23-0.5-0.55-0.84-0.94-1.02c-0.38-0.18-0.84-0.27-1.39-0.27H80.23z   M89.19,30.11v7.41H87.4v-7.41H89.19z M88.28,26.36c0.34,0,0.61,0.11,0.81,0.32c0.21,0.21,0.32,0.46,0.32,0.77s-0.11,0.56-0.32,0.77  c-0.21,0.21-0.48,0.31-0.81,0.31c-0.33,0-0.6-0.1-0.81-0.31c-0.21-0.21-0.31-0.46-0.31-0.77s0.1-0.56,0.31-0.77  C87.68,26.47,87.96,26.36,88.28,26.36z M95,29.91c0.27,0,0.52,0.03,0.74,0.1l-0.31,1.74c-0.22-0.06-0.44-0.08-0.66-0.08  c-0.44,0-0.78,0.16-1.04,0.48c-0.25,0.31-0.45,0.78-0.6,1.43v3.95h-1.79v-7.41h1.55l0.17,1.46c0.18-0.53,0.43-0.94,0.77-1.22  C94.18,30.06,94.57,29.91,95,29.91z M102.51,33.64c0,0.09-0.01,0.34-0.04,0.73h-4.65c0.06,0.72,0.24,1.23,0.56,1.54  c0.32,0.31,0.74,0.46,1.26,0.46c0.33,0,0.63-0.05,0.92-0.15c0.29-0.11,0.6-0.28,0.92-0.5l0.74,1.02c-0.82,0.66-1.74,0.99-2.74,0.99  c-1.13,0-2-0.35-2.62-1.04c-0.61-0.69-0.91-1.63-0.91-2.83c0-0.76,0.13-1.43,0.39-2.03c0.26-0.61,0.64-1.08,1.13-1.41  c0.49-0.35,1.08-0.52,1.76-0.52c1.04,0,1.84,0.33,2.41,0.99C102.23,31.55,102.51,32.46,102.51,33.64z M100.73,33.12  c0-1.3-0.48-1.95-1.44-1.95c-0.44,0-0.78,0.16-1.04,0.49c-0.24,0.32-0.39,0.83-0.43,1.54h2.91V33.12z M105.91,26.95v10.57h-1.79  V27.14L105.91,26.95z M110.35,30.11l-2.46,3.26l2.7,4.14h-2.06l-2.55-4.05l2.48-3.36H110.35z M115.84,37.17  c-0.26,0.19-0.56,0.33-0.88,0.42c-0.32,0.09-0.64,0.14-0.98,0.14c-0.73-0.01-1.28-0.21-1.67-0.62c-0.37-0.41-0.56-1.01-0.56-1.81  V31.4h-1.16v-1.29h1.16v-1.64l1.79-0.21v1.85h1.72l-0.18,1.29h-1.54v3.86c0,0.36,0.06,0.63,0.18,0.78c0.13,0.16,0.33,0.24,0.6,0.24  c0.27,0,0.57-0.09,0.88-0.27L115.84,37.17z M119.64,29.9c1.09,0,1.94,0.35,2.55,1.05c0.62,0.69,0.92,1.64,0.92,2.86  c0,0.77-0.14,1.46-0.42,2.06c-0.28,0.59-0.68,1.05-1.2,1.37c-0.52,0.33-1.14,0.49-1.86,0.49c-1.09,0-1.95-0.35-2.56-1.04  c-0.62-0.7-0.92-1.66-0.92-2.88c0-0.77,0.14-1.46,0.42-2.04s0.68-1.05,1.2-1.37C118.3,30.06,118.92,29.9,119.64,29.9z M119.64,31.26  c-1.07,0-1.61,0.85-1.61,2.55c0,0.88,0.13,1.53,0.39,1.95c0.27,0.41,0.67,0.62,1.2,0.62c0.53,0,0.93-0.21,1.19-0.63  c0.27-0.42,0.41-1.06,0.41-1.93s-0.13-1.51-0.41-1.92C120.56,31.47,120.16,31.26,119.64,31.26z M128.45,29.91  c0.27,0,0.52,0.03,0.74,0.1l-0.31,1.74c-0.22-0.06-0.44-0.08-0.66-0.08c-0.44,0-0.78,0.16-1.04,0.48c-0.25,0.31-0.45,0.78-0.6,1.43  v3.95h-1.79v-7.41h1.55l0.17,1.46c0.18-0.53,0.43-0.94,0.77-1.22C127.62,30.06,128.01,29.91,128.45,29.91z M135.28,35.56  c0,0.29,0.04,0.5,0.13,0.64c0.09,0.13,0.24,0.23,0.43,0.31l-0.38,1.19c-0.42-0.04-0.76-0.14-1.04-0.31  c-0.26-0.17-0.46-0.42-0.6-0.77c-0.25,0.37-0.57,0.65-0.95,0.84c-0.37,0.18-0.79,0.27-1.26,0.27c-0.74,0-1.32-0.21-1.75-0.63  c-0.43-0.42-0.64-0.97-0.64-1.65c0-0.8,0.29-1.41,0.87-1.83c0.59-0.43,1.42-0.64,2.51-0.64h0.92v-0.42c0-0.48-0.11-0.81-0.34-0.99  c-0.21-0.2-0.56-0.29-1.05-0.29c-0.54,0-1.19,0.13-1.96,0.39l-0.42-1.22c0.92-0.35,1.82-0.53,2.69-0.53c1.9,0,2.84,0.85,2.84,2.55  V35.56z M132.09,36.42c0.61,0,1.08-0.3,1.43-0.91v-1.5h-0.74c-1.16,0-1.74,0.43-1.74,1.29c0,0.35,0.09,0.63,0.27,0.83  C131.49,36.33,131.75,36.42,132.09,36.42z M141.69,37.17c-0.26,0.19-0.56,0.33-0.88,0.42c-0.32,0.09-0.64,0.14-0.98,0.14  c-0.73-0.01-1.28-0.21-1.67-0.62c-0.37-0.41-0.56-1.01-0.56-1.81V31.4h-1.16v-1.29h1.16v-1.64l1.79-0.21v1.85h1.72l-0.18,1.29h-1.54  v3.86c0,0.36,0.06,0.63,0.18,0.78c0.13,0.16,0.33,0.24,0.6,0.24c0.27,0,0.57-0.09,0.88-0.27L141.69,37.17z M148.41,36.1  c0,1.04-0.25,1.82-0.74,2.34c-0.49,0.53-1.18,0.95-2.1,1.25l-0.49-1.33c0.41-0.16,0.72-0.34,0.92-0.55c0.21-0.2,0.36-0.43,0.43-0.7  c0.07-0.28,0.11-0.64,0.11-1.08v-8.19h1.86V36.1z M156.64,33.64c0,0.09-0.01,0.34-0.04,0.73h-4.65c0.06,0.72,0.24,1.23,0.56,1.54  c0.32,0.31,0.74,0.46,1.26,0.46c0.33,0,0.63-0.05,0.92-0.15c0.29-0.11,0.6-0.28,0.92-0.5l0.74,1.02c-0.82,0.66-1.74,0.99-2.74,0.99  c-1.13,0-2-0.35-2.62-1.04c-0.61-0.69-0.91-1.63-0.91-2.83c0-0.76,0.13-1.43,0.39-2.03c0.26-0.61,0.64-1.08,1.13-1.41  c0.5-0.35,1.08-0.52,1.76-0.52c1.04,0,1.84,0.33,2.41,0.99C156.36,31.55,156.64,32.46,156.64,33.64z M154.86,33.12  c0-1.3-0.48-1.95-1.44-1.95c-0.44,0-0.78,0.16-1.04,0.49c-0.24,0.32-0.39,0.83-0.43,1.54h2.91V33.12z M162.2,29.9  c0.66,0,1.18,0.2,1.54,0.6c0.37,0.39,0.56,0.94,0.56,1.65v5.36h-1.79v-5.08c0-0.44-0.08-0.75-0.24-0.92  c-0.15-0.18-0.37-0.27-0.67-0.27c-0.31,0-0.59,0.1-0.84,0.29c-0.24,0.19-0.48,0.46-0.71,0.83v5.15h-1.79v-7.41h1.55l0.14,0.97  C160.55,30.29,161.3,29.9,162.2,29.9z M172.61,27.14v10.37h-1.58l-0.13-0.94c-0.23,0.35-0.53,0.63-0.9,0.84  c-0.35,0.21-0.76,0.31-1.22,0.31c-0.91,0-1.6-0.35-2.09-1.05c-0.49-0.7-0.73-1.65-0.73-2.86c0-0.76,0.12-1.43,0.36-2.02  c0.24-0.6,0.59-1.06,1.04-1.4c0.46-0.34,0.98-0.5,1.58-0.5c0.71,0,1.33,0.27,1.86,0.8v-3.75L172.61,27.14z M169.29,36.37  c0.32,0,0.6-0.07,0.84-0.22c0.24-0.16,0.47-0.4,0.69-0.73v-3.39c-0.21-0.26-0.43-0.46-0.66-0.59c-0.22-0.13-0.47-0.2-0.76-0.2  c-0.48,0-0.85,0.21-1.13,0.64c-0.27,0.42-0.41,1.06-0.41,1.92c0,0.91,0.12,1.57,0.36,1.97C168.47,36.17,168.83,36.37,169.29,36.37z   M180.84,33.64c0,0.09-0.01,0.34-0.04,0.73h-4.65c0.06,0.72,0.24,1.23,0.56,1.54c0.32,0.31,0.74,0.46,1.26,0.46  c0.33,0,0.63-0.05,0.92-0.15c0.29-0.11,0.6-0.28,0.92-0.5l0.74,1.02c-0.82,0.66-1.74,0.99-2.74,0.99c-1.13,0-2-0.35-2.62-1.04  c-0.61-0.69-0.91-1.63-0.91-2.83c0-0.76,0.13-1.43,0.39-2.03c0.26-0.61,0.64-1.08,1.13-1.41c0.49-0.35,1.08-0.52,1.76-0.52  c1.04,0,1.84,0.33,2.41,0.99C180.55,31.55,180.84,32.46,180.84,33.64z M179.06,33.12c0-1.3-0.48-1.95-1.44-1.95  c-0.44,0-0.78,0.16-1.04,0.49c-0.24,0.32-0.39,0.83-0.43,1.54h2.91V33.12z M186.1,29.91c0.27,0,0.52,0.03,0.74,0.1l-0.31,1.74  c-0.22-0.06-0.44-0.08-0.66-0.08c-0.44,0-0.78,0.16-1.04,0.48c-0.25,0.31-0.45,0.78-0.6,1.43v3.95h-1.79v-7.41H184l0.17,1.46  c0.18-0.53,0.43-0.94,0.77-1.22C185.27,30.06,185.66,29.91,186.1,29.91z M192.94,35.56c0,0.29,0.04,0.5,0.13,0.64  c0.09,0.13,0.24,0.23,0.43,0.31l-0.38,1.19c-0.42-0.04-0.77-0.14-1.04-0.31c-0.26-0.17-0.46-0.42-0.6-0.77  c-0.25,0.37-0.57,0.65-0.95,0.84c-0.37,0.18-0.79,0.27-1.26,0.27c-0.74,0-1.32-0.21-1.75-0.63c-0.43-0.42-0.64-0.97-0.64-1.65  c0-0.8,0.29-1.41,0.87-1.83c0.59-0.43,1.42-0.64,2.51-0.64h0.92v-0.42c0-0.48-0.11-0.81-0.34-0.99c-0.21-0.2-0.57-0.29-1.05-0.29  c-0.54,0-1.19,0.13-1.96,0.39l-0.42-1.22c0.92-0.35,1.82-0.53,2.69-0.53c1.89,0,2.84,0.85,2.84,2.55V35.56z M189.75,36.42  c0.61,0,1.08-0.3,1.43-0.91v-1.5h-0.74c-1.16,0-1.74,0.43-1.74,1.29c0,0.35,0.09,0.63,0.27,0.83  C189.14,36.33,189.4,36.42,189.75,36.42z M196.72,37.73c-0.57,0-1.02-0.16-1.34-0.49c-0.32-0.34-0.48-0.81-0.48-1.41v-8.68l1.79-0.2  v8.82c0,0.35,0.14,0.52,0.42,0.52c0.14,0,0.28-0.02,0.42-0.07l0.38,1.26C197.54,37.64,197.14,37.73,196.72,37.73z M205.51,27.84  c1.24,0,2.2,0.26,2.88,0.77c0.69,0.51,1.04,1.28,1.04,2.31c0,1.07-0.35,1.88-1.04,2.42c-0.69,0.53-1.61,0.8-2.76,0.8h-1.13v3.37  h-1.85v-9.67H205.51z M205.5,32.76c0.66,0,1.16-0.14,1.5-0.41c0.34-0.28,0.5-0.76,0.5-1.43c0-1.15-0.67-1.72-2-1.72h-0.99v3.56  H205.5z M216.52,33.64c0,0.09-0.01,0.34-0.04,0.73h-4.65c0.06,0.72,0.24,1.23,0.56,1.54c0.32,0.31,0.74,0.46,1.26,0.46  c0.33,0,0.64-0.05,0.92-0.15c0.29-0.11,0.6-0.28,0.92-0.5l0.74,1.02c-0.82,0.66-1.74,0.99-2.74,0.99c-1.13,0-2-0.35-2.62-1.04  c-0.61-0.69-0.91-1.63-0.91-2.83c0-0.76,0.13-1.43,0.39-2.03c0.26-0.61,0.64-1.08,1.13-1.41c0.49-0.35,1.08-0.52,1.76-0.52  c1.04,0,1.84,0.33,2.41,0.99C216.24,31.55,216.52,32.46,216.52,33.64z M214.74,33.12c0-1.3-0.48-1.95-1.44-1.95  c-0.44,0-0.78,0.16-1.04,0.49c-0.24,0.32-0.39,0.83-0.43,1.54h2.91V33.12z M222.08,29.9c0.66,0,1.18,0.2,1.54,0.6  c0.37,0.39,0.56,0.94,0.56,1.65v5.36h-1.79v-5.08c0-0.44-0.08-0.75-0.24-0.92c-0.15-0.18-0.37-0.27-0.67-0.27  c-0.31,0-0.59,0.1-0.84,0.29c-0.24,0.19-0.48,0.46-0.71,0.83v5.15h-1.79v-7.41h1.55l0.14,0.97C220.43,30.29,221.18,29.9,222.08,29.9  z M232.49,27.14v10.37h-1.58l-0.13-0.94c-0.23,0.35-0.53,0.63-0.9,0.84c-0.35,0.21-0.76,0.31-1.22,0.31c-0.9,0-1.6-0.35-2.09-1.05  c-0.49-0.7-0.73-1.65-0.73-2.86c0-0.76,0.12-1.43,0.36-2.02c0.24-0.6,0.59-1.06,1.04-1.4c0.46-0.34,0.99-0.5,1.58-0.5  c0.71,0,1.33,0.27,1.86,0.8v-3.75L232.49,27.14z M229.18,36.37c0.32,0,0.6-0.07,0.84-0.22c0.24-0.16,0.47-0.4,0.69-0.73v-3.39  c-0.21-0.26-0.43-0.46-0.66-0.59c-0.21-0.13-0.47-0.2-0.76-0.2c-0.48,0-0.85,0.21-1.13,0.64c-0.27,0.42-0.41,1.06-0.41,1.92  c0,0.91,0.12,1.57,0.36,1.97C228.36,36.17,228.71,36.37,229.18,36.37z M236.44,30.11v7.41h-1.79v-7.41H236.44z M235.53,26.36  c0.34,0,0.61,0.11,0.81,0.32c0.22,0.21,0.32,0.46,0.32,0.77s-0.11,0.56-0.32,0.77c-0.2,0.21-0.48,0.31-0.81,0.31  c-0.33,0-0.6-0.1-0.81-0.31c-0.21-0.21-0.31-0.46-0.31-0.77s0.1-0.56,0.31-0.77C234.93,26.47,235.2,26.36,235.53,26.36z   M244.83,27.14v10.37h-1.58l-0.13-0.94c-0.23,0.35-0.53,0.63-0.9,0.84c-0.35,0.21-0.76,0.31-1.22,0.31c-0.9,0-1.6-0.35-2.09-1.05  c-0.49-0.7-0.73-1.65-0.73-2.86c0-0.76,0.12-1.43,0.36-2.02c0.24-0.6,0.59-1.06,1.04-1.4c0.46-0.34,0.99-0.5,1.58-0.5  c0.71,0,1.33,0.27,1.86,0.8v-3.75L244.83,27.14z M241.51,36.37c0.32,0,0.6-0.07,0.84-0.22c0.24-0.16,0.47-0.4,0.69-0.73v-3.39  c-0.21-0.26-0.43-0.46-0.66-0.59c-0.21-0.13-0.47-0.2-0.76-0.2c-0.48,0-0.85,0.21-1.13,0.64c-0.27,0.42-0.41,1.06-0.41,1.92  c0,0.91,0.12,1.57,0.36,1.97C240.69,36.17,241.04,36.37,241.51,36.37z M248.77,30.11v7.41h-1.79v-7.41H248.77z M247.86,26.36  c0.34,0,0.61,0.11,0.81,0.32c0.22,0.21,0.32,0.46,0.32,0.77s-0.11,0.56-0.32,0.77c-0.2,0.21-0.48,0.31-0.81,0.31  c-0.33,0-0.6-0.1-0.81-0.31c-0.21-0.21-0.31-0.46-0.31-0.77s0.1-0.56,0.31-0.77C247.26,26.47,247.53,26.36,247.86,26.36z   M252.72,26.95v10.57h-1.79V27.14L252.72,26.95z M257.16,30.11l-2.46,3.26l2.7,4.14h-2.06l-2.55-4.05l2.48-3.36H257.16z   M263.68,35.56c0,0.29,0.04,0.5,0.13,0.64c0.09,0.13,0.24,0.23,0.43,0.31l-0.38,1.19c-0.42-0.04-0.76-0.14-1.04-0.31  c-0.26-0.17-0.46-0.42-0.6-0.77c-0.25,0.37-0.57,0.65-0.95,0.84c-0.37,0.18-0.79,0.27-1.26,0.27c-0.74,0-1.32-0.21-1.75-0.63  c-0.43-0.42-0.64-0.97-0.64-1.65c0-0.8,0.29-1.41,0.87-1.83c0.59-0.43,1.42-0.64,2.51-0.64h0.92v-0.42c0-0.48-0.11-0.81-0.34-0.99  c-0.21-0.2-0.57-0.29-1.05-0.29c-0.54,0-1.19,0.13-1.96,0.39l-0.42-1.22c0.92-0.35,1.82-0.53,2.69-0.53c1.89,0,2.84,0.85,2.84,2.55  V35.56z M260.48,36.42c0.61,0,1.08-0.3,1.43-0.91v-1.5h-0.74c-1.16,0-1.74,0.43-1.74,1.29c0,0.35,0.09,0.63,0.27,0.83  C259.88,36.33,260.14,36.42,260.48,36.42z M269.79,29.9c0.66,0,1.18,0.2,1.54,0.6c0.37,0.39,0.56,0.94,0.56,1.65v5.36h-1.79v-5.08  c0-0.44-0.08-0.75-0.24-0.92c-0.15-0.18-0.37-0.27-0.67-0.27c-0.31,0-0.59,0.1-0.84,0.29c-0.24,0.19-0.48,0.46-0.71,0.83v5.15h-1.79  v-7.41h1.55l0.14,0.97C268.15,30.29,268.9,29.9,269.79,29.9z M284.35,27.84l-2.87,9.67h-2.2l-2.95-9.67h1.99l2.1,8.04l2.04-8.04  H284.35z M288.05,29.9c1.09,0,1.94,0.35,2.55,1.05c0.62,0.69,0.92,1.64,0.92,2.86c0,0.77-0.14,1.46-0.42,2.06  c-0.28,0.59-0.68,1.05-1.2,1.37c-0.52,0.33-1.14,0.49-1.86,0.49c-1.09,0-1.95-0.35-2.56-1.04c-0.62-0.7-0.92-1.66-0.92-2.88  c0-0.77,0.14-1.46,0.42-2.04s0.68-1.05,1.2-1.37C286.71,30.06,287.33,29.9,288.05,29.9z M288.05,31.26c-1.07,0-1.61,0.85-1.61,2.55  c0,0.88,0.13,1.53,0.39,1.95c0.27,0.41,0.67,0.62,1.2,0.62s0.93-0.21,1.19-0.63c0.27-0.42,0.41-1.06,0.41-1.93s-0.14-1.51-0.41-1.92  C288.97,31.47,288.57,31.26,288.05,31.26z M294.99,26.95v10.57h-1.79V27.14L294.99,26.95z M299.43,30.11l-2.46,3.26l2.7,4.14h-2.06  l-2.55-4.05l2.48-3.36H299.43z M305.95,35.56c0,0.29,0.04,0.5,0.13,0.64c0.09,0.13,0.24,0.23,0.43,0.31l-0.38,1.19  c-0.42-0.04-0.77-0.14-1.04-0.31c-0.26-0.17-0.46-0.42-0.6-0.77c-0.25,0.37-0.57,0.65-0.95,0.84c-0.37,0.18-0.79,0.27-1.26,0.27  c-0.74,0-1.32-0.21-1.75-0.63c-0.43-0.42-0.64-0.97-0.64-1.65c0-0.8,0.29-1.41,0.87-1.83c0.59-0.43,1.42-0.64,2.51-0.64h0.92v-0.42  c0-0.48-0.11-0.81-0.34-0.99c-0.21-0.2-0.56-0.29-1.05-0.29c-0.54,0-1.19,0.13-1.96,0.39l-0.42-1.22c0.92-0.35,1.82-0.53,2.69-0.53  c1.89,0,2.84,0.85,2.84,2.55V35.56z M302.76,36.42c0.61,0,1.08-0.3,1.43-0.91v-1.5h-0.74c-1.16,0-1.74,0.43-1.74,1.29  c0,0.35,0.09,0.63,0.27,0.83C302.15,36.33,302.41,36.42,302.76,36.42z M310.32,29.9c1,0,1.88,0.29,2.63,0.88l-0.7,1.05  c-0.64-0.4-1.26-0.6-1.86-0.6c-0.36,0-0.63,0.07-0.83,0.21c-0.2,0.13-0.29,0.31-0.29,0.53c0,0.17,0.04,0.31,0.13,0.42  c0.08,0.11,0.23,0.22,0.45,0.32c0.22,0.09,0.55,0.2,0.98,0.32c0.8,0.21,1.4,0.5,1.78,0.85c0.39,0.35,0.59,0.85,0.59,1.48  c0,0.74-0.3,1.32-0.9,1.74c-0.6,0.41-1.34,0.62-2.23,0.62c-0.61,0-1.16-0.09-1.67-0.28c-0.49-0.19-0.92-0.44-1.29-0.77l0.9-1.01  c0.64,0.49,1.32,0.73,2.02,0.73c0.4,0,0.72-0.08,0.95-0.24c0.24-0.16,0.36-0.38,0.36-0.66c0-0.21-0.05-0.38-0.14-0.5  c-0.08-0.13-0.24-0.24-0.48-0.34c-0.22-0.1-0.58-0.22-1.06-0.36c-0.76-0.21-1.31-0.49-1.67-0.85c-0.36-0.37-0.53-0.84-0.53-1.39  c0-0.41,0.12-0.78,0.35-1.11c0.24-0.33,0.58-0.58,1.01-0.77C309.26,29.99,309.76,29.9,310.32,29.9z M316.43,30.11v7.41h-1.79v-7.41  H316.43z M315.52,26.36c0.34,0,0.61,0.11,0.81,0.32c0.21,0.21,0.32,0.46,0.32,0.77s-0.11,0.56-0.32,0.77  c-0.2,0.21-0.48,0.31-0.81,0.31c-0.33,0-0.6-0.1-0.81-0.31c-0.21-0.21-0.31-0.46-0.31-0.77s0.1-0.56,0.31-0.77  C314.92,26.47,315.2,26.36,315.52,26.36z M80.23,45.84v9.67h-1.85v-9.67H80.23z M85.66,45.84l-3.35,4.38l3.61,5.29h-2.2l-3.42-5.17  l3.35-4.51H85.66z M92.76,51.64c0,0.09-0.01,0.34-0.04,0.73h-4.65c0.06,0.72,0.24,1.23,0.56,1.54c0.32,0.31,0.74,0.46,1.26,0.46  c0.33,0,0.63-0.05,0.92-0.15c0.29-0.11,0.6-0.28,0.92-0.5l0.74,1.02c-0.82,0.66-1.74,0.99-2.74,0.99c-1.13,0-2-0.35-2.62-1.04  c-0.61-0.69-0.91-1.63-0.91-2.83c0-0.76,0.13-1.43,0.39-2.03c0.26-0.61,0.64-1.08,1.13-1.41c0.49-0.35,1.08-0.52,1.76-0.52  c1.04,0,1.84,0.33,2.41,0.99C92.48,49.55,92.76,50.46,92.76,51.64z M90.99,51.12c0-1.3-0.48-1.95-1.44-1.95  c-0.44,0-0.78,0.16-1.04,0.49c-0.24,0.32-0.39,0.83-0.43,1.54h2.91V51.12z M102.23,47.9c0.6,0,1.07,0.21,1.43,0.62  c0.35,0.4,0.53,0.95,0.53,1.64v5.36h-1.79v-5.08c0-0.79-0.27-1.19-0.81-1.19c-0.29,0-0.54,0.09-0.76,0.28  c-0.21,0.18-0.42,0.46-0.64,0.84v5.15h-1.79v-5.08c0-0.79-0.27-1.19-0.81-1.19c-0.3,0-0.56,0.09-0.77,0.28  c-0.21,0.18-0.42,0.46-0.64,0.84v5.15h-1.79v-7.41h1.55l0.14,0.97c0.56-0.78,1.27-1.18,2.14-1.18c0.43,0,0.8,0.11,1.11,0.34  c0.32,0.21,0.55,0.52,0.69,0.91c0.3-0.4,0.63-0.71,0.98-0.92C101.34,48.01,101.76,47.9,102.23,47.9z M112.34,51.64  c0,0.09-0.01,0.34-0.04,0.73h-4.65c0.06,0.72,0.24,1.23,0.56,1.54c0.32,0.31,0.74,0.46,1.26,0.46c0.33,0,0.64-0.05,0.92-0.15  c0.29-0.11,0.6-0.28,0.92-0.5l0.74,1.02c-0.82,0.66-1.74,0.99-2.74,0.99c-1.13,0-2-0.35-2.62-1.04c-0.61-0.69-0.91-1.63-0.91-2.83  c0-0.76,0.13-1.43,0.39-2.03c0.26-0.61,0.64-1.08,1.13-1.41c0.5-0.35,1.08-0.52,1.76-0.52c1.04,0,1.84,0.33,2.41,0.99  C112.06,49.55,112.34,50.46,112.34,51.64z M110.56,51.12c0-1.3-0.48-1.95-1.44-1.95c-0.44,0-0.78,0.16-1.04,0.49  c-0.24,0.32-0.39,0.83-0.43,1.54h2.91V51.12z M117.9,47.9c0.66,0,1.18,0.2,1.54,0.6c0.37,0.39,0.56,0.94,0.56,1.65v5.36h-1.79v-5.08  c0-0.44-0.08-0.75-0.24-0.92c-0.15-0.18-0.37-0.27-0.67-0.27c-0.31,0-0.59,0.1-0.84,0.29c-0.24,0.19-0.48,0.46-0.71,0.83v5.15h-1.79  v-7.41h1.55l0.14,0.97C116.25,48.29,117,47.9,117.9,47.9z M126.33,55.17c-0.26,0.19-0.56,0.33-0.88,0.42  c-0.32,0.09-0.64,0.14-0.98,0.14c-0.73-0.01-1.28-0.21-1.67-0.62c-0.37-0.41-0.56-1.01-0.56-1.81V49.4h-1.16v-1.29h1.16v-1.64  l1.79-0.21v1.85h1.72l-0.18,1.29h-1.54v3.86c0,0.36,0.06,0.63,0.18,0.78c0.13,0.16,0.33,0.24,0.6,0.24c0.27,0,0.56-0.09,0.88-0.27  L126.33,55.17z M133.18,51.64c0,0.09-0.01,0.34-0.04,0.73h-4.65c0.06,0.72,0.24,1.23,0.56,1.54c0.32,0.31,0.74,0.46,1.26,0.46  c0.33,0,0.63-0.05,0.92-0.15c0.29-0.11,0.6-0.28,0.92-0.5l0.74,1.02c-0.82,0.66-1.74,0.99-2.74,0.99c-1.13,0-2-0.35-2.62-1.04  c-0.61-0.69-0.91-1.63-0.91-2.83c0-0.76,0.13-1.43,0.39-2.03c0.26-0.61,0.64-1.08,1.13-1.41c0.49-0.35,1.08-0.52,1.76-0.52  c1.04,0,1.84,0.33,2.41,0.99C132.89,49.55,133.18,50.46,133.18,51.64z M131.4,51.12c0-1.3-0.48-1.95-1.44-1.95  c-0.44,0-0.78,0.16-1.04,0.49c-0.24,0.32-0.39,0.83-0.43,1.54h2.91V51.12z M138.44,47.91c0.27,0,0.52,0.03,0.74,0.1l-0.31,1.74  c-0.22-0.06-0.44-0.08-0.66-0.08c-0.44,0-0.78,0.16-1.04,0.48c-0.25,0.31-0.45,0.78-0.6,1.43v3.95h-1.79v-7.41h1.55l0.17,1.46  c0.18-0.53,0.43-0.94,0.77-1.22C137.61,48.06,138,47.91,138.44,47.91z M142.09,48.11v7.41h-1.79v-7.41H142.09z M141.18,44.36  c0.34,0,0.61,0.11,0.81,0.32c0.21,0.21,0.32,0.46,0.32,0.77c0,0.31-0.11,0.56-0.32,0.77c-0.21,0.21-0.48,0.31-0.81,0.31  c-0.33,0-0.6-0.1-0.81-0.31c-0.21-0.21-0.31-0.46-0.31-0.77c0-0.31,0.1-0.56,0.31-0.77C140.58,44.47,140.85,44.36,141.18,44.36z   M149.72,53.56c0,0.29,0.04,0.5,0.13,0.64c0.09,0.13,0.24,0.23,0.43,0.31l-0.38,1.19c-0.42-0.04-0.77-0.14-1.04-0.31  c-0.26-0.17-0.46-0.42-0.6-0.77c-0.25,0.37-0.57,0.65-0.95,0.84c-0.37,0.18-0.79,0.27-1.26,0.27c-0.74,0-1.32-0.21-1.75-0.63  c-0.43-0.42-0.64-0.97-0.64-1.65c0-0.8,0.29-1.41,0.87-1.83c0.59-0.43,1.42-0.64,2.51-0.64h0.92v-0.42c0-0.48-0.11-0.81-0.34-0.99  c-0.22-0.2-0.57-0.29-1.05-0.29c-0.54,0-1.2,0.13-1.96,0.39l-0.42-1.22c0.92-0.35,1.82-0.53,2.69-0.53c1.89,0,2.84,0.85,2.84,2.55  V53.56z M146.53,54.42c0.61,0,1.08-0.3,1.43-0.91v-1.5h-0.74c-1.16,0-1.74,0.43-1.74,1.29c0,0.35,0.09,0.63,0.27,0.83  C145.92,54.33,146.18,54.42,146.53,54.42z M155.84,47.9c0.66,0,1.18,0.2,1.54,0.6c0.37,0.39,0.56,0.94,0.56,1.65v5.36h-1.79v-5.08  c0-0.44-0.08-0.75-0.24-0.92c-0.15-0.18-0.37-0.27-0.67-0.27c-0.31,0-0.59,0.1-0.84,0.29c-0.24,0.19-0.48,0.46-0.71,0.83v5.15h-1.79  v-7.41h1.55l0.14,0.97C154.19,48.29,154.94,47.9,155.84,47.9z M166.44,45.84c1.24,0,2.2,0.26,2.88,0.77  c0.69,0.51,1.04,1.28,1.04,2.31c0,1.07-0.35,1.88-1.04,2.42c-0.69,0.53-1.61,0.8-2.76,0.8h-1.13v3.37h-1.85v-9.67H166.44z   M166.42,50.76c0.66,0,1.16-0.14,1.5-0.41c0.34-0.28,0.5-0.76,0.5-1.43c0-1.15-0.67-1.72-2-1.72h-0.99v3.56H166.42z M177.45,51.64  c0,0.09-0.01,0.34-0.04,0.73h-4.65c0.06,0.72,0.24,1.23,0.56,1.54c0.32,0.31,0.74,0.46,1.26,0.46c0.33,0,0.63-0.05,0.92-0.15  c0.29-0.11,0.6-0.28,0.92-0.5l0.74,1.02c-0.82,0.66-1.74,0.99-2.74,0.99c-1.13,0-2-0.35-2.62-1.04c-0.61-0.69-0.91-1.63-0.91-2.83  c0-0.76,0.13-1.43,0.39-2.03c0.26-0.61,0.64-1.08,1.13-1.41c0.49-0.35,1.08-0.52,1.76-0.52c1.04,0,1.84,0.33,2.41,0.99  C177.16,49.55,177.45,50.46,177.45,51.64z M175.67,51.12c0-1.3-0.48-1.95-1.44-1.95c-0.44,0-0.78,0.16-1.04,0.49  c-0.24,0.32-0.39,0.83-0.43,1.54h2.91V51.12z M183,47.9c0.66,0,1.18,0.2,1.54,0.6c0.37,0.39,0.56,0.94,0.56,1.65v5.36h-1.79v-5.08  c0-0.44-0.08-0.75-0.24-0.92c-0.15-0.18-0.37-0.27-0.67-0.27c-0.31,0-0.59,0.1-0.84,0.29c-0.24,0.19-0.48,0.46-0.71,0.83v5.15h-1.79  v-7.41h1.55l0.14,0.97C181.36,48.29,182.11,47.9,183,47.9z M193.42,45.14v10.37h-1.58l-0.13-0.94c-0.23,0.35-0.53,0.63-0.9,0.84  c-0.35,0.21-0.76,0.31-1.22,0.31c-0.9,0-1.6-0.35-2.09-1.05s-0.73-1.65-0.73-2.86c0-0.76,0.12-1.43,0.36-2.02  c0.24-0.6,0.59-1.06,1.04-1.4c0.46-0.34,0.99-0.5,1.58-0.5c0.71,0,1.33,0.27,1.86,0.8v-3.75L193.42,45.14z M190.1,54.37  c0.32,0,0.6-0.07,0.84-0.22c0.24-0.16,0.47-0.4,0.69-0.73v-3.39c-0.21-0.26-0.43-0.46-0.66-0.59c-0.22-0.13-0.47-0.2-0.76-0.2  c-0.48,0-0.85,0.21-1.13,0.64c-0.27,0.42-0.41,1.06-0.41,1.92c0,0.91,0.12,1.57,0.36,1.97C189.28,54.17,189.64,54.37,190.1,54.37z   M197.36,48.11v7.41h-1.79v-7.41H197.36z M196.45,44.36c0.34,0,0.61,0.11,0.81,0.32c0.21,0.21,0.32,0.46,0.32,0.77  c0,0.31-0.11,0.56-0.32,0.77c-0.21,0.21-0.48,0.31-0.81,0.31c-0.33,0-0.6-0.1-0.81-0.31c-0.21-0.21-0.31-0.46-0.31-0.77  c0-0.31,0.1-0.56,0.31-0.77C195.86,44.47,196.13,44.36,196.45,44.36z M205.75,45.14v10.37h-1.58l-0.13-0.94  c-0.23,0.35-0.53,0.63-0.9,0.84c-0.35,0.21-0.76,0.31-1.22,0.31c-0.9,0-1.6-0.35-2.09-1.05c-0.49-0.7-0.73-1.65-0.73-2.86  c0-0.76,0.12-1.43,0.36-2.02c0.24-0.6,0.59-1.06,1.04-1.4c0.46-0.34,0.99-0.5,1.58-0.5c0.71,0,1.33,0.27,1.86,0.8v-3.75  L205.75,45.14z M202.43,54.37c0.32,0,0.6-0.07,0.84-0.22c0.24-0.16,0.47-0.4,0.69-0.73v-3.39c-0.21-0.26-0.43-0.46-0.66-0.59  c-0.21-0.13-0.47-0.2-0.76-0.2c-0.48,0-0.85,0.21-1.13,0.64c-0.27,0.42-0.41,1.06-0.41,1.92c0,0.91,0.12,1.57,0.36,1.97  C201.61,54.17,201.97,54.37,202.43,54.37z M209.7,48.11v7.41h-1.79v-7.41H209.7z M208.79,44.36c0.34,0,0.61,0.11,0.81,0.32  c0.21,0.21,0.32,0.46,0.32,0.77c0,0.31-0.11,0.56-0.32,0.77c-0.21,0.21-0.48,0.31-0.81,0.31c-0.33,0-0.6-0.1-0.81-0.31  c-0.21-0.21-0.31-0.46-0.31-0.77c0-0.31,0.1-0.56,0.31-0.77C208.19,44.47,208.46,44.36,208.79,44.36z M213.65,44.95v10.57h-1.79  V45.14L213.65,44.95z M218.08,48.11l-2.46,3.26l2.7,4.14h-2.06l-2.55-4.05l2.48-3.36H218.08z M224.6,53.56  c0,0.29,0.04,0.5,0.13,0.64c0.09,0.13,0.24,0.23,0.43,0.31l-0.38,1.19c-0.42-0.04-0.77-0.14-1.04-0.31  c-0.26-0.17-0.46-0.42-0.6-0.77c-0.25,0.37-0.57,0.65-0.95,0.84c-0.37,0.18-0.79,0.27-1.26,0.27c-0.74,0-1.32-0.21-1.75-0.63  c-0.43-0.42-0.64-0.97-0.64-1.65c0-0.8,0.29-1.41,0.87-1.83c0.59-0.43,1.42-0.64,2.51-0.64h0.92v-0.42c0-0.48-0.11-0.81-0.34-0.99  c-0.21-0.2-0.57-0.29-1.05-0.29c-0.54,0-1.19,0.13-1.96,0.39l-0.42-1.22c0.92-0.35,1.82-0.53,2.69-0.53c1.89,0,2.84,0.85,2.84,2.55  V53.56z M221.41,54.42c0.61,0,1.08-0.3,1.43-0.91v-1.5h-0.74c-1.16,0-1.74,0.43-1.74,1.29c0,0.35,0.09,0.63,0.27,0.83  C220.8,54.33,221.06,54.42,221.41,54.42z M230.72,47.9c0.66,0,1.18,0.2,1.54,0.6c0.37,0.39,0.56,0.94,0.56,1.65v5.36h-1.79v-5.08  c0-0.44-0.08-0.75-0.24-0.92c-0.15-0.18-0.37-0.27-0.67-0.27c-0.31,0-0.59,0.1-0.84,0.29c-0.24,0.19-0.48,0.46-0.71,0.83v5.15h-1.79  v-7.41h1.55l0.14,0.97C229.07,48.29,229.82,47.9,230.72,47.9z M240.31,45.84v9.67h-1.85v-9.67H240.31z M245.74,45.84l-3.35,4.38  l3.61,5.29h-2.2l-3.42-5.17l3.35-4.51H245.74z M252.85,51.64c0,0.09-0.01,0.34-0.04,0.73h-4.65c0.06,0.72,0.24,1.23,0.56,1.54  c0.32,0.31,0.74,0.46,1.26,0.46c0.33,0,0.63-0.05,0.92-0.15c0.29-0.11,0.6-0.28,0.92-0.5l0.74,1.02c-0.82,0.66-1.74,0.99-2.74,0.99  c-1.13,0-2-0.35-2.62-1.04c-0.61-0.69-0.91-1.63-0.91-2.83c0-0.76,0.13-1.43,0.39-2.03c0.26-0.61,0.64-1.08,1.13-1.41  c0.5-0.35,1.08-0.52,1.76-0.52c1.04,0,1.84,0.33,2.41,0.99C252.56,49.55,252.85,50.46,252.85,51.64z M251.07,51.12  c0-1.3-0.48-1.95-1.44-1.95c-0.44,0-0.78,0.16-1.04,0.49c-0.24,0.32-0.39,0.83-0.43,1.54h2.91V51.12z M258.29,47.9  c0.86,0,1.53,0.35,2.02,1.04c0.48,0.68,0.73,1.64,0.73,2.87c0,0.77-0.12,1.45-0.36,2.04c-0.23,0.59-0.57,1.05-1.01,1.39  c-0.44,0.33-0.96,0.49-1.55,0.49c-0.4,0-0.77-0.08-1.11-0.25c-0.33-0.17-0.61-0.41-0.85-0.71l-0.11,0.76h-1.58V45.14l1.79-0.2v4  c0.24-0.34,0.54-0.59,0.88-0.77C257.48,47.99,257.87,47.9,258.29,47.9z M257.62,54.38c0.48,0,0.86-0.21,1.13-0.62  c0.27-0.42,0.41-1.07,0.41-1.96c0-0.93-0.13-1.59-0.38-1.97c-0.25-0.39-0.61-0.59-1.06-0.59c-0.57,0-1.06,0.34-1.47,1.01v3.28  c0.16,0.27,0.35,0.48,0.59,0.63C257.08,54.31,257.34,54.38,257.62,54.38z M268.72,55.52h-1.55l-0.1-1.04  c-0.27,0.42-0.59,0.73-0.97,0.94c-0.36,0.21-0.8,0.31-1.3,0.31c-0.66,0-1.18-0.2-1.54-0.6c-0.36-0.41-0.53-0.98-0.53-1.69v-5.32  h1.79v5.1c0,0.42,0.07,0.72,0.21,0.9c0.15,0.18,0.38,0.27,0.7,0.27c0.57,0,1.07-0.35,1.5-1.05v-5.21h1.79V55.52z M277.11,45.14  v10.37h-1.58l-0.13-0.94c-0.23,0.35-0.53,0.63-0.9,0.84c-0.36,0.21-0.76,0.31-1.22,0.31c-0.91,0-1.6-0.35-2.09-1.05  c-0.49-0.7-0.73-1.65-0.73-2.86c0-0.76,0.12-1.43,0.36-2.02c0.24-0.6,0.59-1.06,1.04-1.4c0.46-0.34,0.98-0.5,1.58-0.5  c0.71,0,1.33,0.27,1.86,0.8v-3.75L277.11,45.14z M273.79,54.37c0.32,0,0.6-0.07,0.84-0.22c0.24-0.16,0.47-0.4,0.69-0.73v-3.39  c-0.22-0.26-0.43-0.46-0.66-0.59c-0.21-0.13-0.47-0.2-0.76-0.2c-0.48,0-0.85,0.21-1.13,0.64c-0.27,0.42-0.41,1.06-0.41,1.92  c0,0.91,0.12,1.57,0.36,1.97C272.97,54.17,273.32,54.37,273.79,54.37z M284.73,53.56c0,0.29,0.04,0.5,0.13,0.64  c0.09,0.13,0.24,0.23,0.43,0.31l-0.38,1.19c-0.42-0.04-0.77-0.14-1.04-0.31c-0.26-0.17-0.46-0.42-0.6-0.77  c-0.25,0.37-0.57,0.65-0.95,0.84c-0.37,0.18-0.79,0.27-1.26,0.27c-0.74,0-1.32-0.21-1.75-0.63c-0.43-0.42-0.64-0.97-0.64-1.65  c0-0.8,0.29-1.41,0.87-1.83c0.59-0.43,1.42-0.64,2.51-0.64h0.92v-0.42c0-0.48-0.11-0.81-0.34-0.99c-0.21-0.2-0.57-0.29-1.05-0.29  c-0.54,0-1.2,0.13-1.96,0.39l-0.42-1.22c0.92-0.35,1.82-0.53,2.69-0.53c1.89,0,2.84,0.85,2.84,2.55V53.56z M281.54,54.42  c0.61,0,1.08-0.3,1.43-0.91v-1.5h-0.74c-1.16,0-1.74,0.43-1.74,1.29c0,0.35,0.09,0.63,0.27,0.83  C280.93,54.33,281.19,54.42,281.54,54.42z M290.28,55.54c-0.3,0.91-0.75,1.62-1.36,2.13c-0.61,0.51-1.44,0.81-2.49,0.9l-0.18-1.3  c0.49-0.07,0.87-0.18,1.16-0.32c0.3-0.13,0.54-0.31,0.71-0.53s0.34-0.52,0.49-0.9H288l-2.35-7.41h1.9l1.61,6.22l1.68-6.22h1.85  L290.28,55.54z M298.99,53.56c0,0.29,0.04,0.5,0.13,0.64c0.09,0.13,0.24,0.23,0.43,0.31l-0.38,1.19c-0.42-0.04-0.76-0.14-1.04-0.31  c-0.26-0.17-0.46-0.42-0.6-0.77c-0.25,0.37-0.57,0.65-0.95,0.84c-0.37,0.18-0.79,0.27-1.26,0.27c-0.74,0-1.32-0.21-1.75-0.63  c-0.43-0.42-0.64-0.97-0.64-1.65c0-0.8,0.29-1.41,0.87-1.83c0.59-0.43,1.42-0.64,2.51-0.64h0.92v-0.42c0-0.48-0.11-0.81-0.34-0.99  c-0.21-0.2-0.56-0.29-1.05-0.29c-0.54,0-1.19,0.13-1.96,0.39l-0.42-1.22c0.92-0.35,1.82-0.53,2.69-0.53c1.89,0,2.84,0.85,2.84,2.55  V53.56z M295.8,54.42c0.61,0,1.08-0.3,1.43-0.91v-1.5h-0.74c-1.16,0-1.74,0.43-1.74,1.29c0,0.35,0.09,0.63,0.27,0.83  C295.19,54.33,295.45,54.42,295.8,54.42z M306.57,53.56c0,0.29,0.04,0.5,0.13,0.64c0.09,0.13,0.24,0.23,0.43,0.31l-0.38,1.19  c-0.42-0.04-0.77-0.14-1.04-0.31c-0.26-0.17-0.46-0.42-0.6-0.77c-0.25,0.37-0.57,0.65-0.95,0.84c-0.37,0.18-0.79,0.27-1.26,0.27  c-0.74,0-1.32-0.21-1.75-0.63c-0.43-0.42-0.64-0.97-0.64-1.65c0-0.8,0.29-1.41,0.87-1.83c0.59-0.43,1.42-0.64,2.51-0.64h0.92v-0.42  c0-0.48-0.11-0.81-0.34-0.99c-0.21-0.2-0.56-0.29-1.05-0.29c-0.54,0-1.2,0.13-1.96,0.39l-0.42-1.22c0.92-0.35,1.82-0.53,2.69-0.53  c1.89,0,2.84,0.85,2.84,2.55V53.56z M303.37,54.42c0.61,0,1.08-0.3,1.43-0.91v-1.5h-0.74c-1.16,0-1.74,0.43-1.74,1.29  c0,0.35,0.09,0.63,0.27,0.83C302.77,54.33,303.03,54.42,303.37,54.42z M312.68,47.9c0.66,0,1.18,0.2,1.54,0.6  c0.37,0.39,0.56,0.94,0.56,1.65v5.36h-1.79v-5.08c0-0.44-0.08-0.75-0.24-0.92c-0.15-0.18-0.37-0.27-0.67-0.27  c-0.31,0-0.59,0.1-0.84,0.29c-0.24,0.19-0.48,0.46-0.71,0.83v5.15h-1.79v-7.41h1.55l0.14,0.97C311.03,48.29,311.79,47.9,312.68,47.9  z M323.45,51.64h-1.18v3.88h-1.85v-9.67h2.88c2.56,0,3.84,0.95,3.84,2.84c0,0.64-0.16,1.18-0.48,1.6c-0.32,0.42-0.81,0.76-1.48,1.02  l2.53,4.21h-2.13L323.45,51.64z M322.27,50.31h1.15c0.59,0,1.03-0.13,1.33-0.38c0.31-0.26,0.46-0.68,0.46-1.25  c0-0.52-0.16-0.9-0.48-1.13c-0.31-0.24-0.8-0.36-1.47-0.36h-0.99V50.31z M330.72,48.11v7.41h-1.79v-7.41H330.72z M329.81,44.36  c0.34,0,0.61,0.11,0.81,0.32c0.21,0.21,0.32,0.46,0.32,0.77c0,0.31-0.11,0.56-0.32,0.77c-0.21,0.21-0.48,0.31-0.81,0.31  c-0.33,0-0.6-0.1-0.81-0.31c-0.2-0.21-0.31-0.46-0.31-0.77c0-0.31,0.1-0.56,0.31-0.77C329.21,44.47,329.48,44.36,329.81,44.36z   M335.22,47.9c1,0,1.88,0.29,2.63,0.88l-0.7,1.05c-0.64-0.4-1.26-0.6-1.86-0.6c-0.36,0-0.63,0.07-0.83,0.21  c-0.2,0.13-0.29,0.31-0.29,0.53c0,0.17,0.04,0.31,0.13,0.42c0.08,0.11,0.23,0.22,0.45,0.32c0.22,0.09,0.55,0.2,0.98,0.32  c0.8,0.21,1.4,0.5,1.78,0.85c0.39,0.35,0.59,0.85,0.59,1.48c0,0.74-0.3,1.32-0.9,1.74c-0.6,0.41-1.34,0.62-2.23,0.62  c-0.61,0-1.16-0.09-1.67-0.28c-0.49-0.19-0.92-0.44-1.29-0.77l0.9-1.01c0.64,0.49,1.32,0.73,2.02,0.73c0.4,0,0.72-0.08,0.95-0.24  c0.24-0.16,0.36-0.38,0.36-0.66c0-0.21-0.05-0.38-0.14-0.5c-0.08-0.13-0.24-0.24-0.48-0.34c-0.22-0.1-0.58-0.22-1.06-0.36  c-0.76-0.21-1.31-0.49-1.67-0.85c-0.35-0.37-0.53-0.84-0.53-1.39c0-0.41,0.12-0.78,0.35-1.11c0.24-0.33,0.58-0.58,1.01-0.77  C334.16,47.99,334.66,47.9,335.22,47.9z M345.61,51.64c0,0.09-0.01,0.34-0.04,0.73h-4.65c0.06,0.72,0.24,1.23,0.56,1.54  c0.32,0.31,0.74,0.46,1.26,0.46c0.33,0,0.64-0.05,0.92-0.15c0.29-0.11,0.6-0.28,0.92-0.5l0.74,1.02c-0.82,0.66-1.74,0.99-2.74,0.99  c-1.13,0-2-0.35-2.62-1.04c-0.61-0.69-0.91-1.63-0.91-2.83c0-0.76,0.13-1.43,0.39-2.03c0.26-0.61,0.64-1.08,1.13-1.41  c0.5-0.35,1.08-0.52,1.76-0.52c1.04,0,1.84,0.33,2.41,0.99C345.33,49.55,345.61,50.46,345.61,51.64z M343.83,51.12  c0-1.3-0.48-1.95-1.44-1.95c-0.44,0-0.78,0.16-1.04,0.49c-0.24,0.32-0.39,0.83-0.43,1.54h2.91V51.12z M351.46,55.17  c-0.26,0.19-0.55,0.33-0.88,0.42c-0.32,0.09-0.64,0.14-0.98,0.14c-0.73-0.01-1.28-0.21-1.67-0.62c-0.37-0.41-0.56-1.01-0.56-1.81  V49.4h-1.16v-1.29h1.16v-1.64l1.79-0.21v1.85h1.72l-0.18,1.29h-1.54v3.86c0,0.36,0.06,0.63,0.18,0.78c0.13,0.16,0.33,0.24,0.6,0.24  c0.27,0,0.57-0.09,0.88-0.27L351.46,55.17z M362.2,45.14v10.37h-1.58l-0.13-0.94c-0.23,0.35-0.53,0.63-0.9,0.84  c-0.35,0.21-0.76,0.31-1.22,0.31c-0.9,0-1.6-0.35-2.09-1.05c-0.49-0.7-0.73-1.65-0.73-2.86c0-0.76,0.12-1.43,0.36-2.02  c0.24-0.6,0.59-1.06,1.04-1.4c0.46-0.34,0.98-0.5,1.58-0.5c0.71,0,1.33,0.27,1.86,0.8v-3.75L362.2,45.14z M358.88,54.37  c0.32,0,0.6-0.07,0.84-0.22c0.24-0.16,0.47-0.4,0.69-0.73v-3.39c-0.21-0.26-0.43-0.46-0.66-0.59c-0.21-0.13-0.47-0.2-0.76-0.2  c-0.48,0-0.85,0.21-1.13,0.64c-0.27,0.42-0.41,1.06-0.41,1.92c0,0.91,0.12,1.57,0.36,1.97C358.06,54.17,358.42,54.37,358.88,54.37z   M369.82,53.56c0,0.29,0.04,0.5,0.13,0.64c0.09,0.13,0.24,0.23,0.43,0.31l-0.38,1.19c-0.42-0.04-0.77-0.14-1.04-0.31  c-0.26-0.17-0.46-0.42-0.6-0.77c-0.25,0.37-0.57,0.65-0.95,0.84c-0.37,0.18-0.79,0.27-1.26,0.27c-0.74,0-1.32-0.21-1.75-0.63  c-0.43-0.42-0.64-0.97-0.64-1.65c0-0.8,0.29-1.41,0.87-1.83c0.59-0.43,1.42-0.64,2.51-0.64h0.92v-0.42c0-0.48-0.11-0.81-0.34-0.99  c-0.21-0.2-0.56-0.29-1.05-0.29c-0.54,0-1.19,0.13-1.96,0.39l-0.42-1.22c0.92-0.35,1.82-0.53,2.69-0.53c1.89,0,2.84,0.85,2.84,2.55  V53.56z M366.63,54.42c0.61,0,1.08-0.3,1.43-0.91v-1.5h-0.74c-1.16,0-1.74,0.43-1.74,1.29c0,0.35,0.09,0.63,0.27,0.83  C366.03,54.33,366.29,54.42,366.63,54.42z M375.94,47.9c0.66,0,1.18,0.2,1.54,0.6c0.37,0.39,0.56,0.94,0.56,1.65v5.36h-1.79v-5.08  c0-0.44-0.08-0.75-0.24-0.92c-0.15-0.18-0.37-0.27-0.67-0.27c-0.31,0-0.59,0.1-0.84,0.29c-0.24,0.19-0.48,0.46-0.71,0.83v5.15h-1.79  v-7.41h1.55l0.14,0.97C374.29,48.29,375.05,47.9,375.94,47.9z M389.9,45.84l-0.2,1.47h-2.52v8.2h-1.86v-8.2h-2.6v-1.47H389.9z   M396.36,51.64c0,0.09-0.01,0.34-0.04,0.73h-4.65c0.06,0.72,0.24,1.23,0.56,1.54c0.32,0.31,0.74,0.46,1.26,0.46  c0.33,0,0.64-0.05,0.92-0.15c0.29-0.11,0.6-0.28,0.92-0.5l0.74,1.02c-0.82,0.66-1.74,0.99-2.74,0.99c-1.13,0-2-0.35-2.62-1.04  c-0.61-0.69-0.91-1.63-0.91-2.83c0-0.76,0.13-1.43,0.39-2.03c0.26-0.61,0.64-1.08,1.13-1.41c0.5-0.35,1.08-0.52,1.76-0.52  c1.04,0,1.84,0.33,2.41,0.99C396.08,49.55,396.36,50.46,396.36,51.64z M394.58,51.12c0-1.3-0.48-1.95-1.44-1.95  c-0.44,0-0.78,0.16-1.04,0.49c-0.24,0.32-0.39,0.83-0.43,1.54h2.91V51.12z M399.76,44.95v10.57h-1.79V45.14L399.76,44.95z   M404.2,48.11l-2.46,3.26l2.7,4.14h-2.06l-2.55-4.05l2.48-3.36H404.2z M409.4,47.9c0.66,0,1.18,0.2,1.54,0.6  c0.37,0.39,0.56,0.94,0.56,1.65v5.36h-1.79v-5.08c0-0.44-0.08-0.75-0.24-0.92c-0.15-0.18-0.37-0.27-0.67-0.27  c-0.31,0-0.59,0.1-0.84,0.29c-0.24,0.19-0.48,0.46-0.71,0.83v5.15h-1.79v-7.41H407l0.14,0.97C407.75,48.29,408.5,47.9,409.4,47.9z   M416.61,47.9c1.09,0,1.94,0.35,2.55,1.05c0.62,0.69,0.92,1.64,0.92,2.86c0,0.77-0.14,1.46-0.42,2.06c-0.28,0.59-0.68,1.05-1.2,1.37  c-0.52,0.33-1.14,0.49-1.86,0.49c-1.09,0-1.95-0.35-2.56-1.04c-0.62-0.7-0.92-1.66-0.92-2.88c0-0.77,0.14-1.46,0.42-2.04  c0.28-0.59,0.68-1.05,1.2-1.37C415.26,48.06,415.89,47.9,416.61,47.9z M416.61,49.26c-1.07,0-1.61,0.85-1.61,2.55  c0,0.88,0.13,1.53,0.39,1.95c0.27,0.41,0.67,0.62,1.2,0.62c0.53,0,0.93-0.21,1.19-0.63c0.27-0.42,0.41-1.06,0.41-1.93  s-0.14-1.51-0.41-1.92C417.52,49.47,417.13,49.26,416.61,49.26z M423.51,55.73c-0.57,0-1.02-0.16-1.34-0.49  c-0.32-0.34-0.48-0.81-0.48-1.41v-8.68l1.79-0.2v8.82c0,0.35,0.14,0.52,0.42,0.52c0.14,0,0.28-0.02,0.42-0.07l0.38,1.26  C424.33,55.64,423.93,55.73,423.51,55.73z M428.84,47.9c1.09,0,1.94,0.35,2.55,1.05c0.62,0.69,0.92,1.64,0.92,2.86  c0,0.77-0.14,1.46-0.42,2.06c-0.28,0.59-0.68,1.05-1.2,1.37c-0.52,0.33-1.14,0.49-1.86,0.49c-1.09,0-1.95-0.35-2.56-1.04  c-0.62-0.7-0.92-1.66-0.92-2.88c0-0.77,0.14-1.46,0.42-2.04c0.28-0.59,0.68-1.05,1.2-1.37C427.5,48.06,428.12,47.9,428.84,47.9z   M428.84,49.26c-1.07,0-1.61,0.85-1.61,2.55c0,0.88,0.13,1.53,0.39,1.95c0.27,0.41,0.67,0.62,1.2,0.62s0.93-0.21,1.19-0.63  c0.27-0.42,0.41-1.06,0.41-1.93s-0.14-1.51-0.41-1.92C429.76,49.47,429.37,49.26,428.84,49.26z M440.44,48.5  c-0.48,0.17-1.19,0.25-2.14,0.25c0.46,0.21,0.79,0.46,1.01,0.77c0.22,0.3,0.34,0.68,0.34,1.13c0,0.49-0.12,0.91-0.36,1.29  c-0.23,0.37-0.58,0.67-1.04,0.88c-0.45,0.21-0.98,0.32-1.58,0.32c-0.34,0-0.63-0.04-0.88-0.11c-0.21,0.14-0.31,0.32-0.31,0.55  c0,0.35,0.3,0.52,0.9,0.52h1.13c0.54,0,1.01,0.09,1.41,0.27c0.41,0.18,0.73,0.43,0.95,0.76c0.22,0.32,0.34,0.68,0.34,1.08  c0,0.75-0.32,1.33-0.95,1.74c-0.64,0.42-1.55,0.63-2.74,0.63c-0.86,0-1.54-0.09-2.03-0.27c-0.49-0.18-0.83-0.43-1.04-0.77  c-0.21-0.34-0.31-0.77-0.31-1.29h1.61c0,0.26,0.05,0.47,0.14,0.62c0.1,0.15,0.28,0.26,0.53,0.34c0.26,0.07,0.63,0.11,1.12,0.11  c0.68,0,1.16-0.08,1.44-0.25s0.42-0.41,0.42-0.73c0-0.28-0.11-0.5-0.32-0.66c-0.21-0.15-0.53-0.22-0.94-0.22h-1.12  c-0.7,0-1.23-0.14-1.58-0.41c-0.36-0.27-0.53-0.61-0.53-1.02c0-0.26,0.07-0.51,0.22-0.76c0.16-0.24,0.37-0.45,0.64-0.62  c-0.45-0.23-0.78-0.52-0.99-0.85c-0.21-0.35-0.31-0.76-0.31-1.23c0-0.53,0.13-1,0.39-1.4c0.26-0.4,0.62-0.71,1.08-0.92  c0.47-0.22,1-0.34,1.6-0.34c0.78,0.02,1.41-0.04,1.89-0.17c0.49-0.14,1.01-0.36,1.57-0.66L440.44,48.5z M436.56,49.12  c-0.4,0-0.72,0.13-0.95,0.39c-0.22,0.25-0.34,0.59-0.34,1.02c0,0.45,0.12,0.8,0.35,1.06c0.23,0.26,0.55,0.39,0.97,0.39  c0.43,0,0.76-0.13,0.98-0.38c0.22-0.26,0.34-0.63,0.34-1.09C437.9,49.58,437.45,49.12,436.56,49.12z M443.31,48.11v7.41h-1.79v-7.41  H443.31z M442.4,44.36c0.34,0,0.61,0.11,0.81,0.32c0.21,0.21,0.32,0.46,0.32,0.77c0,0.31-0.11,0.56-0.32,0.77  c-0.2,0.21-0.48,0.31-0.81,0.31c-0.33,0-0.6-0.1-0.81-0.31c-0.21-0.21-0.31-0.46-0.31-0.77c0-0.31,0.1-0.56,0.31-0.77  C441.8,44.47,442.07,44.36,442.4,44.36z"/>
<rect x="1.24" y="0.52" class="st0" width="64" height="64"/>
<g>
	<path class="st1" d="M33.05,0.46c15.83,4.42,23.23,9.91,31.69,23.02c0.69,16.43-2.25,25.15-12.11,37.25   c-15.41,5.73-24.62,5.63-39.17,0C3.25,47.85,0.5,39.06,1.36,23.48C10.45,9.79,17.96,4.45,33.05,0.46"/>
	<path class="st2" d="M33.05,0.46c15.83,4.42,23.23,9.91,31.69,23.02c0.69,16.43-2.25,25.15-12.11,37.25   c-15.41,5.73-24.62,5.63-39.17,0C3.25,47.85,0.5,39.06,1.36,23.48C10.45,9.79,17.96,4.45,33.05,0.46"/>
	<polyline class="st3" points="10.96,26.64 10.25,27.65 8.87,29.74 7.95,32.41 7.46,33.54 7.55,35.42 8.32,36.7 8.59,38.21    8.97,39.25 9.79,40.79 9.73,41.59 9.92,42.42 10.56,43.58 11.18,44.35 11.36,45.27  "/>
	<path class="st4" d="M33.05,52.16c-1.32-0.35-2.65-0.98-3.82-1.84c-0.24-0.18-0.48-0.37-0.71-0.57c-0.09-0.08-0.18-0.16-0.26-0.24   c-1.52,0.62-3.7,1.32-5.93,1.71c-1.87,0.33-3.77,0.45-5.37,0.12c-1.66-0.34-2.99-1.15-3.61-2.68c-0.1-0.26-0.19-0.55-0.25-0.85   c0,0,0,0,0,0c-1.28-0.85-1.91-1.88-2.12-2.71c-0.04-0.18-0.07-0.35-0.08-0.5c-0.01-0.09-0.01-0.17,0-0.26   c-0.88-0.87-1.41-1.77-1.48-2.62c-0.01-0.18-0.01-0.36,0.03-0.54c0.02-0.1,0.04-0.2,0.07-0.3h0l0,0l0.01,0   c-0.44-0.52-0.79-1.05-1.03-1.67c-0.25-0.64-0.37-1.36-0.34-2.24c-1.57-1.44-1.37-3.7-0.41-5.61c1.12-2.24,2.62-4.36,3.28-6.23   c0.36-1.04,0.65-0.39,0.65-0.07c0,1.56-0.25,3.23-0.57,4.73c-0.03,0.16-0.07,0.32-0.17,0.83c-0.16,0.77-0.16,1.49,0.06,2.01   c0.09,0.21,0.21,0.39,0.38,0.53c0.17,0.14,0.38,0.24,0.64,0.29c0.61,0.12,1.46-0.01,2.63-0.5c2.83-1.19,5.57-2.23,7.52-2.37   c2.18-0.15,3.44,0.72,3.02,3.49c-0.06,0.38-0.12,0.77-0.18,1.12c-0.16,0.93-0.24,1.45-0.18,1.95c0.04,0.37,0.14,0.8,0.41,1.23   c0.22,0.36,0.57,0.74,1.09,1.1c0.03-0.08,0.05-0.15,0.08-0.22c-0.15-1.57,0-3.15,0.67-4.63c0.12-0.26,0.25-0.52,0.41-0.78   l-3.05-14.83c-0.21-1.02-0.44-1.65-0.85-1.96c-0.54-0.4-1.42-0.28-2.04-0.18c-0.52,0.09-0.52-0.22-0.15-0.43   c0.57-0.32,1.26-0.78,1.88-1.19c1.12-0.74,2.24-1.41,3.49-0.46c0.16-1.07,1-1.62,1.79-2.17c0.23-0.17,0.8-0.5,1.1-0.94   c0.29-0.41,0.62-0.56,0.68-0.08c0.01,0.13,0.06,0.39,0.1,0.66c0.57-0.62,1.43-0.97,1.99-1.57c0.32-0.34,0.33-0.66,0.63-0.68   c0.3,0.02,0.31,0.34,0.63,0.68c0.56,0.6,1.42,0.95,1.99,1.57c0.04-0.28,0.09-0.54,0.1-0.66c0.06-0.49,0.39-0.34,0.68,0.08   c0.31,0.44,0.88,0.76,1.1,0.94c0.79,0.55,1.63,1.1,1.79,2.17c1.25-0.95,2.38-0.29,3.49,0.46c0.62,0.41,1.31,0.87,1.88,1.19   c0.37,0.21,0.37,0.52-0.16,0.43c-0.61-0.1-1.5-0.22-2.04,0.18c-0.4,0.3-0.64,0.94-0.85,1.96l-3.05,14.83   c0.15,0.26,0.29,0.52,0.4,0.78c0.66,1.48,0.82,3.05,0.67,4.63c0.03,0.07,0.06,0.15,0.08,0.22c0.52-0.36,0.87-0.74,1.09-1.1   c0.27-0.43,0.37-0.86,0.41-1.23c0.06-0.5-0.02-1.02-0.18-1.95c-0.06-0.35-0.12-0.74-0.18-1.12c-0.42-2.76,0.85-3.63,3.02-3.49   c1.95,0.13,4.69,1.18,7.52,2.37c1.16,0.49,2.02,0.62,2.62,0.5c0.26-0.05,0.47-0.16,0.64-0.29c0.17-0.14,0.29-0.32,0.38-0.53   c0.22-0.53,0.22-1.24,0.06-2.01c-0.11-0.51-0.14-0.67-0.17-0.83c-0.31-1.5-0.57-3.17-0.57-4.73c0-0.33,0.29-0.97,0.65,0.07   c0.65,1.88,2.16,4,3.27,6.23c0.96,1.91,1.16,4.17-0.41,5.61c0.04,0.88-0.08,1.6-0.34,2.24c-0.23,0.62-0.59,1.14-1.02,1.67l0.01,0   l0,0h0c0.03,0.1,0.05,0.2,0.07,0.3c0.03,0.18,0.04,0.36,0.02,0.54c-0.07,0.84-0.61,1.74-1.49,2.62c0.01,0.09,0.01,0.17,0,0.26   c-0.01,0.15-0.03,0.32-0.08,0.5c-0.21,0.83-0.83,1.86-2.12,2.71c0,0,0,0,0,0c-0.06,0.3-0.15,0.59-0.25,0.85   c-0.62,1.53-1.95,2.34-3.61,2.68c-1.6,0.33-3.5,0.21-5.37-0.12c-2.23-0.4-4.41-1.1-5.93-1.71c-0.09,0.08-0.18,0.16-0.26,0.24   c-0.24,0.2-0.47,0.39-0.71,0.57C35.69,51.17,34.36,51.8,33.05,52.16"/>
	<path class="st5" d="M32.24,28.63c0.29,0.37,0.58,0.74,0.81,1.2c0.22-0.46,0.52-0.83,0.81-1.2c0.45-0.57,0.88-1.12,0.9-1.93   c0.02-0.85-0.48-1.54-0.97-2.23c-0.26-0.37-0.53-0.74-0.73-1.15c-0.21,0.41-0.47,0.78-0.74,1.15c-0.5,0.69-0.99,1.39-0.97,2.23   C31.36,27.51,31.79,28.06,32.24,28.63"/>
	<path class="st5" d="M13.45,47.22c0.7,0.3,1.34,0.46,1.98,0.53c0.58,0.06,1.17,0.05,1.82,0.03c0.44-0.02,0.49,0.7-0.01,0.72   c-0.65,0.03-1.26,0.03-1.88-0.04c-0.47-0.05-0.94-0.14-1.43-0.3c0.03,0.09,0.06,0.17,0.09,0.26c0.52,1.27,1.66,1.96,3.09,2.25   c1.5,0.31,3.31,0.19,5.1-0.12c1.87-0.33,3.7-0.88,5.12-1.41c-2.12-0.39-3.76-1.11-4.89-2.22c-1.28-1.24-1.89-2.96-1.76-5.2   c0.08-1.46,0.52-2.96,0.94-4.36c0.29-0.97,0.56-1.9,0.67-2.71c0.21-1.49-0.16-2.59-2.18-2.9c-1.55,0.42-3.35,1.14-5.2,1.91   c-1.31,0.55-2.31,0.69-3.04,0.54c-0.39-0.08-0.71-0.23-0.96-0.45c-0.26-0.21-0.45-0.49-0.58-0.81c-0.28-0.67-0.29-1.53-0.11-2.43   c0.01-0.06,0.1-0.45,0.18-0.83c0.18-0.84,0.34-1.63,0.47-2.46c-0.33,0.65-0.71,1.31-1.08,1.96c-1.17,2.04-2.35,4.1-1.95,5.83   c0.5,2.18,3.06,2.67,4.92,2.94c0.81,0.12,0.71,0.83-0.17,0.69c-1.03-0.17-2.22-0.43-3.16-0.84c-0.19-0.09-0.38-0.18-0.56-0.28   c0.02,0.55,0.12,1.02,0.29,1.45c0.8,2.08,2.37,2.31,4.37,2.51c0.92,0.1,0.89,0.81-0.04,0.72c-1-0.09-2.11-0.27-2.94-0.62   c-0.14-0.06-0.28-0.13-0.4-0.19c-0.2,1.11,0.69,2.15,1.75,2.66c1.09,0.53,2.36,0.51,3.22,0.45c0.64-0.05,0.65,0.72,0.01,0.72   c-0.68,0-1.42-0.01-2.13-0.1c-0.48-0.06-0.94-0.17-1.35-0.34c0.01,0.05,0.02,0.1,0.03,0.16C11.84,45.64,12.37,46.49,13.45,47.22"/>
	<path class="st5" d="M30.84,31.47c-1.56,1.04-2.55,2.24-3.13,3.51c-0.44,0.98-0.63,2.01-0.65,3.06c0.4-0.6,0.88-1.15,1.37-1.71   c1.07-1.22,2.17-2.48,2.37-4.39C30.82,31.78,30.83,31.63,30.84,31.47"/>
	<path class="st5" d="M19.5,53.28C19.51,53.26,19.5,53.28,19.5,53.28"/>
	<path class="st5" d="M52.65,47.22c-0.7,0.3-1.34,0.46-1.98,0.53c-0.58,0.06-1.18,0.05-1.82,0.03c-0.44-0.02-0.49,0.7,0.01,0.72   c0.65,0.03,1.26,0.03,1.89-0.04c0.47-0.05,0.94-0.14,1.43-0.3c-0.03,0.09-0.06,0.17-0.09,0.26c-0.52,1.27-1.66,1.96-3.09,2.25   c-1.5,0.31-3.31,0.19-5.1-0.12c-1.87-0.33-3.7-0.88-5.12-1.41c2.11-0.39,3.76-1.11,4.89-2.22c1.28-1.24,1.89-2.96,1.76-5.2   c-0.08-1.46-0.52-2.96-0.94-4.36c-0.28-0.97-0.56-1.9-0.67-2.71c-0.21-1.49,0.16-2.59,2.18-2.9c1.55,0.42,3.35,1.14,5.2,1.91   c1.31,0.55,2.31,0.69,3.05,0.54c0.39-0.08,0.7-0.23,0.96-0.45c0.26-0.21,0.45-0.49,0.58-0.81c0.28-0.67,0.29-1.53,0.11-2.43   c-0.01-0.06-0.09-0.45-0.17-0.83c-0.18-0.84-0.34-1.63-0.47-2.46c0.33,0.65,0.71,1.31,1.08,1.96c1.18,2.04,2.35,4.1,1.95,5.83   c-0.5,2.18-3.06,2.67-4.92,2.94c-0.81,0.12-0.71,0.83,0.17,0.69c1.03-0.17,2.22-0.43,3.16-0.84c0.19-0.09,0.38-0.18,0.55-0.28   c-0.02,0.55-0.12,1.02-0.28,1.45c-0.8,2.08-2.37,2.31-4.37,2.51c-0.92,0.1-0.89,0.81,0.05,0.72c1-0.09,2.11-0.27,2.94-0.62   c0.14-0.06,0.27-0.13,0.4-0.19c0.19,1.11-0.69,2.15-1.75,2.66c-1.09,0.53-2.37,0.51-3.22,0.45c-0.63-0.05-0.64,0.72-0.01,0.72   c0.68,0,1.43-0.01,2.13-0.1c0.48-0.06,0.94-0.17,1.35-0.34c-0.01,0.05-0.02,0.1-0.03,0.16C54.25,45.64,53.73,46.49,52.65,47.22"/>
	<path class="st5" d="M35.26,31.47c1.56,1.04,2.55,2.24,3.13,3.51c0.44,0.98,0.64,2.01,0.66,3.06c-0.4-0.6-0.89-1.15-1.37-1.71   c-1.07-1.22-2.17-2.48-2.37-4.39C35.28,31.78,35.26,31.63,35.26,31.47"/>
	<path class="st5" d="M33.05,46.14c-0.19,0-0.21,0.3-0.31,0.57c-0.08,0.25-0.19,0.47-0.32,0.7c-0.07,0.12-0.13,0.24-0.19,0.37h0   c-0.55,1.22,0.04,2.05,0.82,2.84c0.8-0.84,1.36-1.62,0.81-2.84c-0.05-0.12-0.12-0.24-0.19-0.37c-0.13-0.23-0.23-0.45-0.32-0.7   C33.26,46.44,33.23,46.14,33.05,46.14"/>
	<path class="st5" d="M34.49,29.23c-0.02,0.03-0.05,0.06-0.07,0.09c-0.39,0.5-0.8,1.01-0.96,1.73c-0.18,0.81-0.64,0.87-0.82,0.03   c-0.14-0.65-0.48-1.14-0.83-1.59v0.02c-0.07-0.09-0.14-0.18-0.21-0.27c0,0.88-0.01,2-0.08,2.76c-0.23,2.14-1.4,3.49-2.55,4.8   c-0.9,1.03-1.78,2.03-2.09,3.37l-0.11,0.48l-0.42-0.25c-0.87-0.51-1.41-1.06-1.73-1.59c-0.33-0.55-0.46-1.07-0.51-1.52   c-0.07-0.59,0.02-1.15,0.19-2.15c0.04-0.29,0.1-0.62,0.17-1.11c0.32-2.1-0.63-2.77-2.27-2.66c-0.19,0.01-0.39,0.03-0.6,0.07   c1.37,0.63,1.61,1.82,1.4,3.32c-0.12,0.86-0.4,1.81-0.69,2.81c-0.4,1.35-0.83,2.8-0.9,4.19c-0.11,2.02,0.42,3.55,1.54,4.65   c1.14,1.12,2.91,1.81,5.23,2.14l0.21,0.11h0h0c0.2,0.21,0.4,0.4,0.61,0.58c0.21,0.18,0.43,0.36,0.67,0.53   c0.77,0.57,2.36,1.75,3.29,1.73c0.97-0.01,3.49-1.73,3.49-1.73s0.45-0.35,0.67-0.53c0.21-0.18,0.42-0.38,0.61-0.58l0.21-0.11   c2.33-0.33,4.09-1.02,5.23-2.14c1.13-1.1,1.66-2.62,1.55-4.65c-0.08-1.39-0.51-2.84-0.91-4.19c-0.29-1-0.57-1.95-0.69-2.81   c-0.21-1.5,0.03-2.69,1.4-3.32c-0.21-0.03-0.41-0.06-0.6-0.07c-1.63-0.11-2.59,0.56-2.27,2.66c0.08,0.49,0.13,0.82,0.18,1.11   c0.17,1,0.26,1.56,0.19,2.15c-0.06,0.45-0.18,0.98-0.52,1.52c-0.33,0.54-0.86,1.09-1.73,1.59l-0.42,0.25l-0.11-0.48   c-0.31-1.34-1.19-2.35-2.09-3.37c-1.15-1.31-2.33-2.65-2.55-4.8C34.5,31.24,34.49,30.11,34.49,29.23"/>
	<path class="st5" d="M30.89,28.21c-0.16-0.34-0.26-0.72-0.27-1.18c-0.03-1.08,0.54-1.88,1.11-2.67c0.51-0.72,0.93-1.17,1.09-2.2   c0.08-0.52,0.36-0.43,0.44,0.01c0.17,0.96,0.6,1.46,1.12,2.19c0.57,0.79,1.13,1.58,1.11,2.67c-0.01,0.46-0.11,0.85-0.27,1.18   c0.01,0.76-0.01,1.74,0.01,2.46c1.23,0.75,2.16,1.58,2.85,2.48l0.01-0.07l2.89-14.08c0.25-1.2,0.54-1.96,1.12-2.39   c0.23-0.17,0.48-0.28,0.79-0.34c-0.08-0.06-0.17-0.11-0.25-0.17c-0.91-0.61-1.84-1.23-2.8-0.62c-0.36,0.23-0.52,0.4-0.59,0.8   l-1.42,7.87c-0.13,0.59-0.84,0.48-0.7-0.19l1.37-7.61c0.09-0.48,0.23-1,0.09-1.48c-0.21-0.7-0.87-1.16-1.47-1.58   c-0.27-0.19-0.54-0.37-0.76-0.57c-0.03,0.18-0.05,0.36-0.08,0.5h0l-0.89,9.05c-0.07,0.56-0.78,0.5-0.71-0.16l0.76-7.7   c0.08-0.78,0.11-1.15-0.47-1.7c-0.25-0.23-0.53-0.46-0.81-0.67c-0.29-0.22-0.58-0.41-0.8-0.63c-0.12-0.11-0.22-0.24-0.3-0.37   c-0.08,0.13-0.18,0.25-0.3,0.37c-0.23,0.22-0.52,0.41-0.8,0.63c-0.28,0.21-0.56,0.44-0.81,0.67c-0.58,0.55-0.54,0.92-0.47,1.7   l0.76,7.7c0.07,0.65-0.64,0.71-0.71,0.16l-0.89-9.05h0c-0.02-0.14-0.05-0.32-0.08-0.5c-0.22,0.2-0.49,0.38-0.77,0.57   c-0.6,0.42-1.26,0.87-1.47,1.58c-0.14,0.48,0,1,0.08,1.48l1.37,7.61c0.15,0.67-0.57,0.79-0.7,0.19l-1.42-7.87   c-0.07-0.4-0.24-0.57-0.59-0.8c-0.96-0.61-1.88,0-2.8,0.62c-0.08,0.06-0.17,0.11-0.25,0.17c0.3,0.06,0.56,0.17,0.79,0.34   c0.57,0.43,0.87,1.19,1.12,2.39l2.89,14.08l0.02,0.07c0.69-0.89,1.62-1.73,2.84-2.48C30.89,29.95,30.88,28.97,30.89,28.21"/>
	<path class="st5" d="M33.32,57.56c0.96-0.07,1.72-0.39,2.61-0.72c1.36-0.51,2.57-0.97,4.98-0.36c0.66,0.16,1.36,0.47,2.11,0.79   c1.56,0.67,3.28,1.41,5.28,1.25l0.19-0.64c-0.86-0.68-1.14-1.95-1.4-3.15c-0.07-0.32-0.14-0.63-0.22-0.96c0,0.01,0,0.01,0,0   l-0.07-0.25l-0.26-0.02c-1.48-0.11-2.48-0.56-3.79-1.02c-0.57-0.2-1-0.48-1.71-0.71c-1.93-0.6-3.92-0.02-5.56,0.4   c-0.86,0.22-1.58,0.79-2.35,0.82h0l-0.05,0l-0.05,0h-0.01c-0.77-0.03-1-0.6-1.86-0.82c-1.64-0.42-3.41-0.87-5.34-0.26   c-0.71,0.22-1.49,0.68-2.05,0.88c-1.31,0.47-2.34,0.77-3.67,0.71l-0.26,0.02l-0.07,0.25c0,0.01,0,0.01,0,0   c-0.09,0.33-0.15,0.64-0.22,0.96c-0.27,1.2-0.55,2.47-1.4,3.15l0.19,0.64c2.01,0.17,3.73-0.58,5.28-1.25   c0.74-0.32,1.45-0.62,2.1-0.79c2.41-0.61,3.62-0.15,4.98,0.36C31.6,57.17,32.36,57.49,33.32,57.56"/>
	<path class="st6" d="M47.73,58.77c-1.81,0-3.39-0.68-4.79-1.28l-0.06-0.02c-0.72-0.31-1.4-0.6-2.02-0.76   c-0.75-0.19-1.42-0.28-2.04-0.28c-1.12,0-1.93,0.31-2.8,0.63c-0.09,0.03-0.18,0.07-0.27,0.1c-0.78,0.29-1.51,0.57-2.41,0.63   l-0.02,0l-0.02,0c-0.9-0.06-1.64-0.34-2.42-0.64c-0.09-0.03-0.17-0.06-0.26-0.1c-0.86-0.32-1.68-0.63-2.8-0.63   c-0.62,0-1.28,0.09-2.04,0.28c-0.63,0.16-1.33,0.46-2.06,0.77l-0.02,0.01c-1.4,0.6-2.98,1.29-4.79,1.29c-0.2,0-0.4-0.01-0.6-0.03   l-0.16-0.01l-0.28-0.96l0.13-0.1c0.79-0.62,1.06-1.84,1.32-3.01l0.03-0.12c0.06-0.26,0.12-0.54,0.19-0.82v0l0.12-0.45l0.44-0.04   l0.02,0c0.11,0.01,0.22,0.01,0.32,0.01c1.09,0,1.99-0.25,3.26-0.7c0.24-0.08,0.52-0.22,0.82-0.36c0.41-0.19,0.83-0.4,1.24-0.52   c0.66-0.2,1.32-0.31,2.04-0.31c1.21,0,2.34,0.29,3.43,0.56c0.44,0.11,0.73,0.31,0.98,0.48c0.27,0.18,0.48,0.32,0.83,0.34h0.11   c0.39-0.01,0.8-0.2,1.22-0.4c0.34-0.16,0.69-0.32,1.07-0.42c0.1-0.03,0.2-0.05,0.31-0.08c1.06-0.27,2.27-0.58,3.52-0.58   c0.67,0,1.28,0.09,1.86,0.27c0.42,0.13,0.73,0.28,1.04,0.42c0.23,0.1,0.44,0.2,0.68,0.29c0.2,0.07,0.38,0.14,0.57,0.21   c1.04,0.38,1.94,0.71,3.17,0.8l0.43,0.04l0.12,0.45c0.09,0.33,0.16,0.65,0.22,0.93c0.26,1.17,0.52,2.39,1.31,3.01l0.13,0.1   l-0.28,0.96l-0.16,0.01C48.12,58.76,47.92,58.77,47.73,58.77 M38.82,55.94c0.66,0,1.36,0.1,2.15,0.3c0.66,0.17,1.36,0.47,2.1,0.78   l0.06,0.03c1.36,0.58,2.89,1.24,4.6,1.24c0.13,0,0.26,0,0.4-0.01l0.1-0.33c-0.83-0.74-1.1-1.98-1.36-3.18   c-0.06-0.29-0.13-0.61-0.22-0.95l-0.02-0.09l-0.09-0.01c-1.29-0.1-2.22-0.44-3.29-0.83c-0.18-0.07-0.37-0.14-0.56-0.2   c-0.25-0.09-0.48-0.19-0.72-0.3c-0.29-0.14-0.6-0.28-0.98-0.4c-0.54-0.17-1.1-0.25-1.72-0.25c-1.18,0-2.36,0.3-3.4,0.57   c-0.1,0.03-0.21,0.05-0.31,0.08c-0.34,0.09-0.67,0.24-0.99,0.39c-0.47,0.22-0.92,0.42-1.41,0.44l-0.06,0l-0.07,0   c-0.49-0.02-0.79-0.22-1.08-0.42c-0.23-0.16-0.47-0.32-0.83-0.41c-1.06-0.27-2.16-0.55-3.31-0.55c-0.67,0-1.29,0.09-1.9,0.28   c-0.38,0.12-0.79,0.31-1.18,0.5c-0.31,0.15-0.61,0.29-0.86,0.38c-1.32,0.47-2.26,0.73-3.42,0.73c-0.11,0-0.22,0-0.33-0.01   l-0.07,0.01l-0.02,0.06L19.98,54h-0.02c-0.06,0.22-0.1,0.44-0.15,0.65l-0.03,0.11c-0.26,1.2-0.54,2.44-1.36,3.18l0.1,0.33   c0.13,0.01,0.26,0.01,0.39,0.01c1.71,0,3.25-0.66,4.6-1.25l0.02-0.01c0.75-0.32,1.46-0.63,2.13-0.8c0.79-0.2,1.5-0.3,2.16-0.3   c1.2,0,2.06,0.32,2.97,0.67c0.09,0.03,0.18,0.07,0.26,0.1c0.78,0.29,1.45,0.55,2.27,0.61c0.82-0.06,1.48-0.31,2.25-0.6   c0.09-0.03,0.18-0.07,0.28-0.1C36.76,56.27,37.61,55.94,38.82,55.94"/>
	<path class="st6" d="M33.03,56.33L33.03,56.33 M47.63,56.39c0.05,0.12,0.1,0.24,0.17,0.37c-1.46,0.33-3.09-0.3-4.58-0.97   c-1.12-0.51-2.24-1.01-3.31-1.06c-1.21-0.05-2.35,0.06-3.46,0.32c-1.11,0.27-2.19,0.68-3.31,1.25c-0.01,0-0.01,0.01-0.03,0.01   c0,0,0,0,0,0h0c0,0,0,0,0,0c0,0-0.01,0-0.01,0h0h0h0h0v0h0v0h0h0h0h-0.01h0c0,0,0,0,0,0h0h-0.01l0,0h0h-0.01h0h0h-0.01c0,0,0,0,0,0   h0h0h0c0,0,0,0,0,0h0h0h0h0h0h0h0v0h0v0h-0.01h0h0c0,0-0.01,0-0.01-0.01h0l0,0h0c0,0,0,0-0.01,0h0v0c0,0-0.01,0-0.01,0c0,0,0,0,0,0   c-1.11-0.56-2.2-0.98-3.31-1.25c-1.11-0.27-2.24-0.38-3.46-0.32c-1.07,0.05-2.09,0.56-3.1,1.06c-1.32,0.65-2.75,1.23-4.2,0.9   l0.17-0.37c1.31,0.3,2.6-0.26,3.86-0.89c1.04-0.52,2.1-1.04,3.26-1.1c1.25-0.06,2.42,0.06,3.57,0.33c1.11,0.27,2.2,0.69,3.32,1.24   c1.11-0.56,2.21-0.97,3.32-1.24c1.15-0.27,2.32-0.39,3.57-0.33c1.14,0.05,2.29,0.57,3.45,1.1C44.82,56.07,46.3,56.69,47.63,56.39"/>
	<rect x="32.82" y="52.84" class="st6" width="0.4" height="3.11"/>
	<path class="st6" d="M11.83,22.4c-1.27-0.6-1.9-0.91-3.17-1.51c-0.24,0.51-0.35,0.76-0.57,1.29c-0.26-0.11-0.4-0.17-0.66-0.28   c0.6-1.45,0.94-2.13,1.68-3.42c0.25,0.14,0.37,0.22,0.62,0.36c-0.27,0.47-0.4,0.71-0.65,1.2c1.25,0.65,1.87,0.97,3.11,1.62   C12.05,21.96,11.97,22.1,11.83,22.4"/>
	<path class="st6" d="M9.42,17.96c0.19-0.32,0.29-0.48,0.5-0.79c0.77,0.51,1.15,0.76,1.91,1.26c0.3,0.2,0.51,0.32,0.61,0.36   c0.16,0.07,0.33,0.07,0.48,0.02c0.16-0.05,0.3-0.17,0.43-0.36c0.13-0.19,0.19-0.35,0.18-0.51c-0.01-0.15-0.07-0.28-0.17-0.39   c-0.1-0.11-0.28-0.26-0.55-0.46c-0.75-0.56-1.12-0.85-1.87-1.41c0.22-0.3,0.33-0.44,0.56-0.72c0.69,0.56,1.04,0.84,1.73,1.4   c0.39,0.32,0.66,0.56,0.8,0.73c0.14,0.17,0.23,0.34,0.27,0.52c0.04,0.18,0.04,0.37,0,0.57c-0.05,0.2-0.16,0.43-0.33,0.68   c-0.21,0.3-0.4,0.51-0.59,0.62c-0.18,0.11-0.37,0.18-0.55,0.2c-0.19,0.02-0.36,0-0.52-0.05c-0.23-0.08-0.55-0.24-0.96-0.49   C10.57,18.67,10.19,18.44,9.42,17.96"/>
	<path class="st6" d="M15.86,16.37c-1.03-0.96-1.54-1.44-2.57-2.4c-0.35,0.38-0.51,0.57-0.85,0.97c-0.22-0.19-0.33-0.28-0.55-0.46   c0.91-1.09,1.39-1.6,2.41-2.54c0.19,0.21,0.29,0.32,0.48,0.53c-0.37,0.34-0.55,0.52-0.91,0.88c1,0.99,1.5,1.49,2.5,2.48   C16.17,16.04,16.07,16.14,15.86,16.37"/>
	<path class="st6" d="M19.04,13.5c-1.29-1.15-1.96-1.7-3.35-2.77c0.28-0.22,0.42-0.33,0.7-0.55c0.91,0.77,1.35,1.17,2.22,1.98   c-0.45-1.11-0.66-1.67-1.06-2.81c0.34-0.23,0.51-0.34,0.86-0.56c0.88,0.85,1.31,1.28,2.14,2.16c-0.4-1.14-0.59-1.71-0.94-2.87   c0.3-0.17,0.45-0.25,0.76-0.4c0.42,1.69,0.65,2.52,1.19,4.17c-0.27,0.15-0.4,0.23-0.67,0.39c-0.91-0.93-1.37-1.39-2.34-2.27   c0.42,1.24,0.65,1.85,1.13,3.05C19.42,13.22,19.29,13.31,19.04,13.5"/>
	<path class="st6" d="M20.75,7.51c0.3-0.15,0.46-0.22,0.77-0.36c0.39,0.83,0.58,1.25,0.96,2.08c0.15,0.33,0.26,0.54,0.32,0.63   c0.1,0.14,0.23,0.24,0.38,0.28c0.15,0.05,0.32,0.03,0.52-0.05c0.19-0.08,0.32-0.19,0.38-0.32c0.06-0.13,0.08-0.27,0.05-0.41   c-0.03-0.14-0.11-0.37-0.23-0.68c-0.34-0.87-0.51-1.31-0.86-2.18c0.32-0.12,0.47-0.18,0.79-0.29c0.3,0.84,0.45,1.26,0.75,2.09   c0.17,0.48,0.27,0.82,0.31,1.03c0.03,0.21,0.02,0.4-0.03,0.57c-0.05,0.17-0.14,0.33-0.27,0.47c-0.13,0.14-0.33,0.27-0.59,0.37   c-0.31,0.13-0.57,0.19-0.77,0.18c-0.2-0.01-0.38-0.06-0.54-0.15c-0.16-0.09-0.29-0.2-0.39-0.33c-0.15-0.19-0.33-0.5-0.55-0.93   C21.36,8.72,21.16,8.31,20.75,7.51"/>
	<path class="st6" d="M25.99,9.95c-0.52-1.61-0.78-2.42-1.3-4.02c0.68-0.21,1.02-0.31,1.71-0.48c0.43-0.11,0.76-0.14,0.97-0.11   c0.21,0.03,0.4,0.13,0.55,0.3c0.16,0.17,0.26,0.38,0.3,0.62c0.06,0.31,0.02,0.58-0.1,0.82C28,7.32,27.46,7.62,27.46,7.62   c0,0.01,0.35,0.16,0.48,0.26c0.13,0.1,0.32,0.3,0.56,0.59c0.24,0.29,0.36,0.43,0.59,0.73c-0.34,0.06-0.51,0.09-0.84,0.16   c-0.28-0.32-0.42-0.47-0.72-0.78c-0.26-0.28-0.44-0.44-0.53-0.51C26.9,8,26.81,7.97,26.72,7.96c-0.09-0.01-0.22,0.01-0.39,0.05   c-0.06,0.02-0.09,0.03-0.15,0.04c0.2,0.68,0.3,1.02,0.49,1.7C26.4,9.83,26.26,9.87,25.99,9.95 M26,7.4   c0.22-0.06,0.33-0.09,0.56-0.15c0.37-0.1,0.59-0.16,0.68-0.22c0.08-0.05,0.14-0.13,0.18-0.22c0.03-0.09,0.04-0.2,0.01-0.33   c-0.03-0.14-0.09-0.24-0.18-0.31c-0.09-0.07-0.21-0.1-0.34-0.09c-0.07,0-0.26,0.05-0.58,0.13c-0.25,0.06-0.37,0.1-0.62,0.17   C25.82,6.79,25.88,6.99,26,7.4"/>
	<path class="st6" d="M29.44,9.14c-0.28-1.67-0.41-2.5-0.69-4.17c0.33-0.05,0.5-0.08,0.83-0.12c0.23,1.67,0.34,2.51,0.57,4.19   C29.87,9.07,29.72,9.09,29.44,9.14"/>
	<path class="st6" d="M32.2,8.85c-0.08-1.69-0.12-2.53-0.2-4.22c0.34-0.01,0.5-0.02,0.84-0.03c0.01,0.66,0.02,1,0.03,1.66   c0.62-0.01,0.93-0.01,1.55,0.02c0.03-0.66,0.04-1,0.07-1.66c0.34,0.01,0.5,0.02,0.84,0.05c-0.12,1.68-0.18,2.53-0.3,4.21   c-0.29-0.02-0.43-0.03-0.71-0.04c0.03-0.74,0.05-1.11,0.08-1.84c-0.6-0.02-0.9-0.03-1.51-0.02c0.01,0.74,0.02,1.11,0.03,1.85   C32.63,8.84,32.48,8.84,32.2,8.85"/>
	<path class="st6" d="M38.9,9.47c-0.3-0.07-0.46-0.1-0.76-0.17c-0.04-0.4-0.07-0.6-0.12-1c-0.58-0.11-0.87-0.15-1.45-0.23   c-0.17,0.37-0.26,0.55-0.42,0.92c-0.3-0.04-0.45-0.05-0.75-0.07c0.7-1.64,1.09-2.45,1.98-4.03c0.35,0.05,0.53,0.08,0.88,0.14   C38.62,6.8,38.75,7.69,38.9,9.47 M37.92,7.56c-0.09-0.65-0.15-0.98-0.26-1.63C37.34,6.51,37.19,6.8,36.9,7.4   C37.3,7.45,37.51,7.49,37.92,7.56"/>
	<path class="st6" d="M39.28,9.56c0.42-1.64,0.64-2.46,1.06-4.09c0.32,0.08,0.48,0.12,0.79,0.21c0.35,1.27,0.48,1.91,0.69,3.17   c0.38-1.06,0.57-1.6,0.95-2.66c0.3,0.1,0.44,0.16,0.74,0.27c-0.61,1.58-0.92,2.37-1.53,3.95c-0.27-0.1-0.4-0.15-0.67-0.25   c-0.17-1.23-0.3-1.85-0.6-3.08c-0.3,1.06-0.46,1.59-0.76,2.65C39.67,9.66,39.54,9.62,39.28,9.56"/>
	<path class="st6" d="M44.33,6.78c0.57,0.24,0.86,0.37,1.42,0.64c0.31,0.15,0.54,0.3,0.68,0.43c0.18,0.18,0.31,0.4,0.37,0.64   c0.06,0.25,0.06,0.51,0,0.79c-0.06,0.28-0.19,0.59-0.39,0.93c-0.18,0.3-0.36,0.54-0.55,0.72c-0.24,0.22-0.48,0.37-0.72,0.46   c-0.18,0.07-0.39,0.08-0.61,0.06c-0.17-0.02-0.37-0.09-0.62-0.21c-0.49-0.24-0.74-0.35-1.24-0.56C43.33,9.12,43.67,8.34,44.33,6.78    M44.81,7.78c-0.47,1.02-0.7,1.53-1.18,2.54c0.2,0.09,0.3,0.14,0.5,0.24c0.19,0.09,0.33,0.14,0.42,0.16   c0.12,0.02,0.24,0.02,0.35-0.02c0.11-0.04,0.23-0.12,0.37-0.27c0.13-0.14,0.28-0.36,0.44-0.64c0.16-0.29,0.25-0.52,0.29-0.7   c0.03-0.18,0.03-0.34-0.01-0.47c-0.04-0.13-0.13-0.25-0.25-0.35c-0.09-0.08-0.29-0.19-0.6-0.33C45.01,7.87,44.94,7.84,44.81,7.78"/>
	<path class="st6" d="M48.56,14.23c-0.25-0.21-0.37-0.31-0.63-0.5c0.13-0.38,0.2-0.57,0.32-0.96c-0.49-0.36-0.73-0.54-1.24-0.87   c-0.31,0.25-0.47,0.38-0.78,0.64c-0.26-0.17-0.39-0.25-0.66-0.41c1.35-1.17,2.07-1.72,3.57-2.75c0.3,0.2,0.45,0.31,0.75,0.53   C49.46,11.68,49.19,12.55,48.56,14.23 M48.48,12.04c0.2-0.63,0.29-0.95,0.47-1.6c-0.54,0.39-0.81,0.58-1.34,0.99   C47.96,11.67,48.14,11.79,48.48,12.04"/>
	<path class="st6" d="M49.23,14.81c0.48-0.53,0.71-0.8,1.19-1.33c0.22-1.12,0.3-1.69,0.42-2.85c0.32,0.25,0.48,0.38,0.79,0.65   c-0.12,0.78-0.2,1.16-0.37,1.92c0.73-0.24,1.1-0.34,1.86-0.53c0.29,0.29,0.43,0.44,0.71,0.74c-1.16,0.2-1.72,0.32-2.82,0.63   c-0.49,0.52-0.74,0.77-1.23,1.29C49.56,15.11,49.45,15.01,49.23,14.81"/>
	<path class="st6" d="M52.82,18.9c-0.19-0.28-0.29-0.42-0.49-0.69c0.23-0.34,0.34-0.51,0.56-0.86c-0.39-0.51-0.59-0.75-1-1.22   c-0.37,0.16-0.56,0.24-0.93,0.41c-0.22-0.24-0.32-0.36-0.55-0.59c1.62-0.77,2.46-1.11,4.19-1.68c0.25,0.29,0.37,0.44,0.61,0.74   C54.33,16.63,53.85,17.41,52.82,18.9 M53.28,16.7c0.35-0.57,0.52-0.86,0.85-1.45c-0.63,0.22-0.94,0.34-1.56,0.59   C52.87,16.17,53.01,16.34,53.28,16.7"/>
	<path class="st6" d="M53.06,19.25c1.4-0.95,2.1-1.42,3.5-2.38c0.2,0.3,0.3,0.45,0.49,0.76c-0.55,1.25-0.86,1.85-1.52,3.01   c0.99-0.54,1.49-0.81,2.48-1.34c0.17,0.31,0.25,0.47,0.41,0.8c-1.51,0.76-2.26,1.13-3.78,1.89c-0.15-0.3-0.22-0.44-0.37-0.73   c0.66-1.1,0.97-1.67,1.52-2.87c-0.93,0.59-1.4,0.89-2.33,1.48C53.3,19.62,53.23,19.49,53.06,19.25"/>
	<path class="st6" d="M55,22.76c1.54-0.7,2.31-1.05,3.84-1.75c0.16,0.36,0.24,0.54,0.39,0.91c-1.56,0.65-2.34,0.97-3.9,1.62   C55.2,23.21,55.14,23.06,55,22.76"/>
	<path class="st6" d="M32.12,45.76c0.33-0.32,1.52-0.3,1.88,0c0.39,0.32,0.29,1.97,0.29,1.97s0.69,0.88,0.67,1.23   c-0.04,0.66-1.28,1.83-1.95,1.83c-0.69,0-1.92-1.21-1.95-1.87c-0.02-0.36,0.69-1.28,0.69-1.28S31.77,46.1,32.12,45.76 M32.14,47.73   c0,0-0.49,0.75-0.48,1.05c0.02,0.55,0.87,1.54,1.34,1.55c0.47,0,1.32-0.96,1.34-1.51c0.01-0.28-0.46-1.01-0.46-1.01   s0.06-1.35-0.2-1.62c-0.24-0.25-1.06-0.27-1.29,0C32.17,46.46,32.14,47.73,32.14,47.73"/>
	<path class="st5" d="M35.61,39.55L35.61,39.55C35.61,39.55,35.61,39.56,35.61,39.55"/>
	<path class="st5" d="M34.59,37.74c-0.58-0.93-1.16-2-1.56-3.28c-0.49,1.31-0.21,2.59,0.03,3.68c0.28,1.25,0.57,2.52-0.08,4.48   c-0.24,0.72-0.86,0.23-0.68-0.19c1.1-2.56-0.22-4.98-0.55-5.69c-0.26,0.91-0.97,1.92-1.36,2.8c-0.54,1.2-0.74,2.75,0.01,3.88   c0.14,0.22,0.32,0.41,0.54,0.6c0.17,0.14,0.36,0.27,0.58,0.39c0.13-0.09,0.27-0.16,0.43-0.22c0.04-0.02,0.09-0.04,0.14-0.06   c0.28-0.1,0.59-0.16,0.91-0.16c0.46,0,0.9,0.11,1.27,0.32c0.07,0.04,0.14,0.08,0.2,0.12c1.38-0.73,1.73-2.05,1.57-3.31   c-0.03-0.27-0.09-0.54-0.16-0.79c-0.08-0.26-0.17-0.51-0.27-0.75v0v0C35.33,38.93,34.97,38.34,34.59,37.74"/>
	<path class="st7" d="M33.36,32.8c0.33,2.41,1.13,3.33,1.87,4.6c0.38,0.62,0.76,1.22,1.05,1.88c0,0.01,0,0.01,0,0.01c0,0,0,0,0,0v0   c0.12,0.26,0.22,0.54,0.3,0.83c0.08,0.29,0.15,0.59,0.19,0.88c0.21,1.59-0.28,3.25-2.19,4.12l-0.22,0.1l-0.19-0.15   c-0.05-0.04-0.09-0.07-0.14-0.1c-0.04-0.03-0.1-0.06-0.15-0.09c-0.27-0.14-0.57-0.23-0.9-0.23c-0.23,0-0.45,0.04-0.65,0.11   c-0.03,0.01-0.06,0.02-0.1,0.03c-0.16,0.07-0.31,0.16-0.44,0.27l-0.19,0.15l-0.22-0.1l-0.01,0c-0.37-0.17-0.68-0.36-0.95-0.59   c-0.27-0.22-0.49-0.47-0.67-0.74c-0.9-1.35-0.68-3.13-0.07-4.51c0.5-1.13,1.4-2.06,1.64-3.48c0.09-0.5,0.18-1.03,0.62-0.17   c0.06,0.12,0.15,0.28,0.22,0.54c-0.23-0.89,0.46-2.8,0.7-3.44C33.11,32.16,33.31,31.99,33.36,32.8"/>
	<path class="st6" d="M34.33,45.5l-0.3-0.25c-0.04-0.04-0.08-0.06-0.11-0.09l-0.01-0.01c-0.03-0.02-0.06-0.04-0.1-0.06l-0.02-0.01   c-0.4-0.22-0.91-0.25-1.35-0.1C32.41,45,32.4,45,32.39,45c-0.02,0.01-0.04,0.01-0.05,0.02c-0.14,0.06-0.27,0.14-0.38,0.23   l-0.3,0.24l-0.39-0.17c-0.36-0.17-0.7-0.37-0.98-0.61c-0.28-0.23-0.52-0.5-0.72-0.79c-0.82-1.24-0.85-3.01-0.09-4.74   c0.18-0.41,0.42-0.79,0.64-1.17c0.41-0.68,0.83-1.38,0.98-2.25c0.07-0.41,0.14-0.83,0.48-0.83c0.14,0,0.25,0.08,0.36,0.22   c0.13-0.92,0.51-1.98,0.72-2.5c0.15-0.38,0.29-0.63,0.53-0.63c0.35,0,0.39,0.49,0.41,0.76c0.27,1.95,0.85,2.89,1.46,3.87   c0.13,0.2,0.25,0.41,0.38,0.63c0.35,0.56,0.71,1.14,1,1.76h0.01l0.04,0.11l0.04,0.04v0.05c0.12,0.27,0.22,0.55,0.29,0.82   c0.09,0.3,0.15,0.61,0.19,0.92c0.15,1.17,0.05,3.29-2.33,4.37L34.33,45.5z M34.18,44.77c0.05,0.03,0.1,0.07,0.16,0.12l0.07,0.06   l0.09-0.04c2.1-0.95,2.18-2.83,2.05-3.87c-0.04-0.28-0.1-0.57-0.18-0.85c-0.07-0.26-0.17-0.53-0.28-0.79l-0.07-0.1l0.01-0.03   c-0.28-0.61-0.63-1.16-0.99-1.75c-0.13-0.22-0.25-0.42-0.38-0.62c-0.61-0.99-1.25-2.01-1.53-4.07l0-0.02c0-0.01,0-0.02,0-0.02   c0,0.01-0.01,0.02-0.01,0.03c-0.22,0.56-0.91,2.46-0.7,3.29l-0.46,0.13c-0.07-0.23-0.14-0.37-0.21-0.49   c-0.04-0.09-0.08-0.15-0.11-0.2c-0.02,0.1-0.04,0.22-0.06,0.3c-0.16,0.97-0.61,1.7-1.04,2.42c-0.23,0.38-0.45,0.73-0.61,1.12   c-0.7,1.57-0.69,3.17,0.05,4.27c0.17,0.26,0.38,0.49,0.62,0.69c0.26,0.22,0.56,0.41,0.9,0.56l0.09,0.04l0.07-0.06   c0.15-0.12,0.32-0.22,0.5-0.3l0.02-0.01c0.01,0,0.02-0.01,0.03-0.01c0.02-0.01,0.04-0.02,0.06-0.02c0.23-0.08,0.47-0.12,0.72-0.12   c0.35,0,0.71,0.09,1.02,0.25l0.03,0.02C34.09,44.71,34.13,44.74,34.18,44.77"/>
	<path class="st6" d="M32.34,35.71c0,0,1.11,2.29,1.24,3.53c0.12,1.15-1.12,3.53-1.12,3.53s0.61-2.22,0.52-3.4   c-0.07-1.04-1.04-3.13-1.04-3.13L32.34,35.71z"/>
</g>
</svg>