<?xml version="1.0" encoding="UTF-8"?>
<svg width="484px" height="928px" viewBox="0 0 484 928" version="1.1" xmlns="http://www.w3.org/2000/svg" xmlns:xlink="http://www.w3.org/1999/xlink">
    <title>illustration</title>
    <defs>
        <rect id="path-1" x="0" y="0" width="484" height="928"></rect>
        <filter x="-7.7%" y="-7.7%" width="115.4%" height="115.4%" filterUnits="objectBoundingBox" id="filter-3">
            <feGaussianBlur stdDeviation="3" in="SourceGraphic"></feGaussianBlur>
        </filter>
    </defs>
    <g id="ðŸ“-Pages-New" stroke="none" stroke-width="1" fill="none" fill-rule="evenodd">
        <g id="Create-Account" transform="translate(0.000000, -120.000000)">
            <g id="Illustrations" transform="translate(0.000000, 37.000000)">
                <g id="illustration" transform="translate(0.000000, 83.000000)">
                    <mask id="mask-2" fill="white">
                        <use xlink:href="#path-1"></use>
                    </mask>
                    <g id="Mask"></g>
                    <g id="Shape" mask="url(#mask-2)">
                        <g transform="translate(171.781249, 447.639648) rotate(-270.000000) translate(-171.781249, -447.639648) translate(-308.218751, 68.639648)" id="Rectangle">
                            <path d="M741.645297,205.146385 L910.488572,205.303004 C916.004174,205.30812 920.474176,209.778122 920.479292,215.293723 L920.63591,384.136999 C920.641033,389.659844 916.168036,394.141148 910.645191,394.146271 C910.639007,394.146276 910.632823,394.146276 910.626639,394.146271 L741.783363,393.989652 C736.267762,393.984536 731.79776,389.514534 731.792643,383.998932 L731.636025,215.155657 C731.630902,209.632812 736.1039,205.151508 741.626745,205.146385 C741.632929,205.146379 741.639113,205.146379 741.645297,205.146385 Z" fill="#7666F8" fill-rule="evenodd" opacity="0.0257970473" transform="translate(826.135968, 299.646328) rotate(-45.000000) translate(-826.135968, -299.646328) "></path>
                            <path d="M274.258311,24.8497714 L370.793068,24.9393167 C376.308669,24.944433 380.778671,29.4144349 380.783788,34.9300365 L380.873333,131.464794 C380.878456,136.987639 376.405458,141.468942 370.882613,141.474065 C370.876429,141.474071 370.870245,141.474071 370.864061,141.474065 L274.329304,141.38452 C268.813703,141.379404 264.343701,136.909402 264.338584,131.3938 L264.249039,34.8590431 C264.243916,29.3361979 268.716914,24.8548944 274.239759,24.8497714 C274.245943,24.8497657 274.252127,24.8497657 274.258311,24.8497714 Z" fill="#7367F0" fill-rule="evenodd" opacity="0.0375744048" filter="url(#filter-3)" transform="translate(322.561186, 83.161918) rotate(-45.000000) translate(-322.561186, -83.161918) "></path>
                            <path d="M464.544405,116.530364 L809.409235,116.850259 C814.924837,116.855375 819.394839,121.325377 819.399955,126.840979 L819.71985,471.705809 C819.724973,477.228654 815.251976,481.709958 809.729131,481.715081 C809.722947,481.715086 809.716763,481.715086 809.710579,481.715081 L464.845749,481.395185 C459.330147,481.390069 454.860145,476.920067 454.855029,471.404465 L454.535133,126.539635 C454.53001,121.01679 459.003008,116.535487 464.525853,116.530364 C464.532037,116.530358 464.538221,116.530358 464.544405,116.530364 Z" fill="#7367F0" fill-rule="evenodd" opacity="0.0659412202" transform="translate(637.127492, 299.122722) rotate(-45.000000) translate(-637.127492, -299.122722) "></path>
                            <path d="M281.011474,462.80054 C288.680532,462.80054 294.897531,469.006017 294.897531,476.66086 L294.897531,692.881848 C294.897531,700.536691 288.680532,706.742168 281.011474,706.742168 L64.3889823,706.742168 C56.7199247,706.742168 50.5029251,700.536691 50.5029251,692.881848 L50.5029251,476.66086 C50.5029251,469.006017 56.7199247,462.80054 64.3889823,462.80054 L281.011474,462.80054 Z M239.353303,518.241417 L106.047154,518.241417 L106.047154,651.300487 L239.353303,651.300487 L239.353303,518.241417 Z" fill="#7367F0" fill-rule="nonzero" opacity="0.0895647321" transform="translate(172.700228, 584.771354) rotate(-45.000000) translate(-172.700228, -584.771354) "></path>
                        </g>
                    </g>
                    <g id="Untitled-1" mask="url(#mask-2)">
                        <g transform="translate(322.000000, 423.500000) scale(-1, 1) translate(-322.000000, -423.500000) translate(68.000000, 220.000000)">
                            <rect id="Rectangle" fill="#BABFC7" fill-rule="evenodd" x="0.5" y="191.5" width="302" height="12" rx="6"></rect>
                            <path d="M374.566127,41.1559472 C378.646313,55.296718 368.684815,69.8687046 357.716107,72.9299484 C346.7474,75.9911922 338.914866,66.3840147 334.83468,52.2432439 C330.754495,38.1024731 336.34352,24.1598285 347.316177,21.0985847 C358.288834,18.0373409 370.489892,27.0190612 374.566127,41.1559472 Z" id="Path" fill="#ECC4A6" fill-rule="nonzero"></path>
                            <path d="M314.940539,314.5 C314.940539,314.5 342.479157,357.212442 346.200488,359.070681 C349.921818,360.928919 359.217407,361.38865 355.732045,368.342557 C352.246682,375.296464 350.850216,402.69872 347.608558,404.093365 C344.366901,405.48801 316.460791,408.729303 320.646321,404.093365 C324.83185,399.457427 327.404288,401.775396 329.516394,393.415255 C331.628501,385.055113 334.591639,369.269744 330.642077,366.020724 C326.692516,362.771704 302.5,333.545979 302.5,333.545979 L314.940539,314.5 Z" id="Path" fill="#ECC4A6" fill-rule="nonzero"></path>
                            <path d="M175.521526,332.5 C175.521526,332.5 142.053526,387.731627 135.854173,392.696355 C129.654819,397.661082 109.208168,405.112047 125.938301,406.351292 C142.668434,407.590538 150.72798,400.766942 161.266494,397.661082 C171.805008,394.555223 184.814755,392.696355 179.85682,384.629641 C174.898884,376.562926 176.960179,358.950148 187.649519,347.777575 C198.33886,336.605001 175.521526,332.5 175.521526,332.5 Z" id="Path" fill="#ECC4A6" fill-rule="nonzero"></path>
                            <path d="M346.709449,204.541575 C346.709449,204.541575 263.7669,202.372394 230.883366,229.370949 C211.648067,258.54643 165.116298,344.628047 161.5,354.098845 C163.981849,356.581783 177.943703,361.071212 184.14639,360.439826 C202.452448,338.60857 226.643702,319.72895 236.265223,302.604042 C248.124668,281.497138 251.779685,270.945623 271.011112,269.082452 C290.24254,267.21928 333.680708,261.013874 346.709449,261.013874 C359.738189,261.013874 346.709449,204.541575 346.709449,204.541575 Z" id="Path" fill="#33373E" fill-rule="evenodd"></path>
                            <polygon id="Path" fill="#BABFC7" fill-rule="evenodd" points="419.5 406.5 415.093678 406.5 383.5 276.5 393.191553 276.5"></polygon>
                            <polygon id="Path" fill="#BABFC7" fill-rule="evenodd" points="288.5 406.5 292.830792 406.5 328.5 271.5 318.962221 271.5"></polygon>
                            <path d="M393.965415,199.5 L345.63073,207.810339 C345.63073,207.810339 281.400512,208.398134 252.038792,213.850706 C225.327621,218.804426 221.380903,249.041066 252.038792,290.693304 C269.447816,314.348186 284.167484,333.231101 314.266545,354.5 C321.927137,348.896612 324.853219,346.765855 326.972106,333.300709 C324.791127,330.323063 319.152404,311.695374 317.402188,308.048725 C300.75379,273.368819 278.528761,260.754428 278.206659,257.34367 C281.936055,251.303303 377.041484,288.837109 395.952356,266.756125 C414.024988,245.672846 393.965415,199.5 393.965415,199.5 Z" id="Path" fill="#42474F" fill-rule="evenodd"></path>
                            <path d="M395.121389,90.0476131 C382.403194,88.267481 369.448473,90.6822689 357.335168,99.4320053 C346.745721,110.201805 334.768129,127.964427 335.500976,157.26308 C336.435453,194.467841 329.731258,196.85941 336.722388,207.0913 C365.877297,219.087842 415.741924,270.731023 403.996982,215.384394 C395.497506,175.312072 422.647748,145.436811 400.743761,100.983816 C398.960112,97.3655041 396.734428,93.8594178 395.121389,90.0476131 Z" id="Path" fill="#7367F0" fill-rule="evenodd"></path>
                            <path d="M335.498408,171.111679 C334.930437,190.544065 332.176168,196.270648 334.280772,202.361686 C346.208158,203.57524 368.020569,208.332531 373.470754,215.931788 C379.695091,224.628285 385.919428,225.86898 383.029001,219.45226 C380.138575,213.03554 372.432068,203.916432 384.277759,172.643162 C396.12345,141.369892 401.733134,120.247058 390.113075,98.5 L335.498408,171.111679 Z" id="Path" fill="#6258D4" fill-rule="evenodd"></path>
                            <path d="M396.5,90.2457465 C388.62314,72.0005565 386.68902,51.5 386.68902,51.5 L366.068805,57.4608841 C366.068805,57.4608841 377.767111,83.1438225 366.536737,92.3179361 C363.735887,94.5779104 361.053553,96.9749899 358.5,99.5 C370.681837,90.8716012 383.709851,88.4903005 396.5,90.2457465 Z" id="Path" fill="#ECC4A6" fill-rule="nonzero"></path>
                            <path d="M386.69745,55.2726511 C385.478041,54.2105223 383.970338,52.8857165 382.345759,51.5 L365.535063,56.3576214 L365.5,56.4451804 C365.889587,57.3550327 370.175049,67.1045378 370.747742,76.5 C375.757836,73.5306076 381.239331,68.6920207 387.5,60.2368661 C387.176642,58.3600579 386.907827,56.685016 386.69745,55.2726511 Z" id="Path" fill="#E38540" fill-rule="nonzero"></path>
                            <path d="M381.471198,96.0889402 C360.284667,103.481359 362.634404,125.825918 343.13237,158.729964 C333.040952,175.767544 323.68091,175.514646 323.68091,175.514646 C306.199097,175.425122 288.737259,174.319583 271.383714,172.20362 C253.457248,170.01313 252.321282,175.347344 264.770217,179.80614 C289.917065,188.797655 316.009254,198.481724 337.051843,196.147276 C358.094433,193.812828 394.075744,140.120522 395.931414,126.144959 C398.499006,106.827401 392.142269,92.357714 381.471198,96.0889402 Z" id="Path" fill="#F09959" fill-rule="nonzero"></path>
                            <path d="M370.55002,282.5 C369.238959,282.5 367.900826,282.5 366.524018,282.449494 C349.356468,282.022131 337.672943,279.636671 328.282807,277.721311 C317.318625,275.483485 311.266087,274.248019 304.250557,277.624183 C301.551815,278.919106 298.319085,277.771086 297.030054,275.060008 C295.741022,272.34893 296.883819,269.101425 299.582562,267.806501 C309.885412,262.864637 318.505928,264.624594 330.436969,267.06056 C339.413289,268.890448 350.578578,271.17101 366.790871,271.575061 C384.936883,272.02962 396.001619,269.325581 401.597799,263.078318 C406.594527,257.510951 408.056418,248.159483 406.196181,233.6447 C405.561921,228.679525 404.923794,224.54965 404.363016,220.901528 C402.781235,210.621518 401.737027,203.80703 403.032618,193.317224 C404.231523,183.565589 407.44923,170.57377 414.894045,145.386581 C415.446726,143.523861 416.946652,142.098837 418.828814,141.6483 C420.710977,141.197764 422.689432,141.790163 424.018914,143.202346 C425.348396,144.614529 425.826926,146.631952 425.274245,148.494671 C411.40175,195.430725 412.124961,200.003504 415.06808,219.242585 C415.636593,222.952868 416.282455,227.156561 416.936052,232.2616 C419.229442,250.160317 416.90898,262.26633 409.638199,270.366791 C402.162445,278.700359 390.018694,282.5 370.55002,282.5 Z" id="Path" fill="#BABFC7" fill-rule="evenodd"></path>
                            <path d="M177.334653,379.5 C154.92744,390.197294 142.86532,396.326905 135.685022,395.74404 C133.987506,395.606895 132.563153,395.435464 131.392452,395.256414 C123.400469,399.866003 110.647635,405.317509 124.996524,406.353714 C141.881931,407.572779 150.010497,400.860303 160.644362,397.805021 C171.278227,394.74974 184.405685,392.921143 179.402891,384.985792 C178.388411,383.290147 177.688272,381.433097 177.334653,379.5 L177.334653,379.5 Z" id="Path" fill="#33373E" fill-rule="evenodd"></path>
                            <path d="M347.685769,359.5 C347.144572,377.240192 344.74949,394.820386 334.075255,398.133502 C331.59631,398.928698 328.976818,399.165726 326.39871,398.828124 C324.721385,400.939309 322.671747,400.962723 319.923544,404.069013 C315.770533,408.751861 343.448316,405.47777 346.676303,404.069013 C349.90429,402.660256 351.28223,374.992424 354.736675,367.956444 C357.580835,362.184833 351.861809,360.834612 347.685769,359.5 Z" id="Path" fill="#33373E" fill-rule="evenodd"></path>
                            <path d="M263.032102,193.5 L191.78539,193.5 C189.658656,193.499078 187.725398,192.264357 186.829131,190.334567 L158.036742,128.335072 C157.186098,126.5585 157.355646,124.461521 158.480645,122.844875 C159.605645,121.22823 161.512377,120.341555 163.472746,120.523431 C165.433116,120.705306 167.144412,121.927649 167.953166,123.723701 L195.273128,182.557763 L263.032102,182.557763 C266.051939,182.557763 268.5,185.007266 268.5,188.028882 C268.5,191.050497 266.051939,193.5 263.032102,193.5 L263.032102,193.5 Z" id="Path" fill="#7367F0" fill-rule="evenodd"></path>
                            <path d="M276.893259,172.11656 C262.488492,171.906932 248.204871,163.378179 241.108002,164.624301 C234.011134,165.870423 210.836887,181.837087 213.752231,182.458207 C216.667575,183.079327 235.050653,173.622776 235.695468,173.479142 C236.340282,173.335508 240.287329,180.028075 250.100235,182.485381 C259.913141,184.942686 250.166671,175.18334 280.58238,184.306039 C300.341063,190.241616 276.893259,172.11656 276.893259,172.11656 Z" id="Path" fill="#ECC4A6" fill-rule="nonzero"></path>
                            <path d="M393.418427,72.5 L395.5,89.6771654 C395.5,89.6771654 377.180621,90.7952756 368.067017,96.0551181 C358.953414,101.314961 345.5,116.5 345.5,116.5 L356.487787,97.1062992 L358.07393,84.6968504 L393.418427,72.5 Z" id="Path" fill="#7367F0" fill-rule="evenodd"></path>
                            <path d="M385.318511,93.8387541 C371.57016,91.2645686 365.210141,103.569485 356.296802,123.658987 C347.383462,143.748488 332.16831,168.141221 329.133817,171.289171 C326.099323,174.437121 278.145013,171.289171 278.145013,171.289171 C278.145013,171.289171 276.693734,185.164186 278.145013,186.819573 C279.596293,188.47496 287.884883,188.269491 287.884883,188.269491 C287.884883,188.269491 291.202648,190.917335 294.31087,193.010799 C297.419091,195.104263 323.747785,199.0392 335.975008,198.438299 C348.202232,197.837397 359.401143,196.779034 361.058085,194.914301 C362.715027,193.049567 396.086694,141.693792 398.162723,123.263555 C400.238751,104.833317 392.334322,95.1568611 385.318511,93.8387541 Z" id="Path" fill="#7367F0" fill-rule="evenodd"></path>
                            <path d="M345.657174,9.82119146 C319.657453,11.0599669 323.732037,49.9559719 323.732037,49.9559719 C323.732037,49.9559719 330.488083,52.0321749 344.632708,49.7128477 C343.546152,45.5372869 344.011819,34.8706972 344.011819,34.8706972 C344.011819,34.8706972 345.657174,43.5266888 347.744913,48.7828014 C350.732941,50.1489275 354.116785,48.9371659 359.871648,47.5556033 C362.824751,59.9047665 371.171825,65.1377244 376.887883,66.9244939 C383.201547,68.90036 389.883863,71.2544193 397.346171,67.5419521 C404.808479,63.8294849 400.706732,25.9021174 396.744685,18.27265 C390.795794,6.82651938 380.912019,-3.42328608 363.810412,1.98719105 C355.234385,4.70400696 345.657174,9.82119146 345.657174,9.82119146 Z" id="Path" fill="#33373E" fill-rule="nonzero"></path>
                            <path d="M390.5,56.2606084 L401.037651,71.6614924 C401.037651,71.6614924 389.361626,100.865419 423.316705,114.098628 C449.910812,124.463423 446.776438,142.721171 434.761978,161.071324 C422.747518,179.421477 441.953732,195.5 441.953732,195.5 C441.953732,195.5 444.88043,175.159283 470.720749,171.316762 C505.952653,166.084312 515.928809,118.726594 489.615449,95.0477346 C467.836356,75.45396 461.213789,91.6826415 446.472615,74.0986822 C431.731442,56.514723 403.906661,68.3888045 403.906661,68.3888045 L393.707445,53.5 L390.5,56.2606084 Z" id="Path" fill="#33373E" fill-rule="nonzero"></path>
                            <path d="M502.20896,142.5 C502.05013,142.501367 501.893688,142.461583 501.755135,142.384557 C501.533326,142.26785 501.367637,142.068193 501.294819,141.829871 C501.222,141.591548 501.248072,141.33426 501.367251,141.115074 C510.288592,124.919558 503.011881,105.300287 499.346373,99.9838495 C498.958489,99.4221998 498.589998,98.8490093 498.18272,98.2450435 C494.579274,92.6670154 490.09533,85.7271791 466.170619,81.4532556 C460.406656,80.426129 455.740407,77.0293023 450.802638,73.4324359 C440.601278,66.0040412 429.034565,57.5831423 403.911291,69.0546456 C403.599142,69.2291949 403.214362,69.2139311 402.917266,69.0152137 C402.620171,68.8164964 402.461716,68.4684089 402.507921,68.1159782 C402.554126,67.7635476 402.797066,67.4672218 403.135522,67.3504618 C429.271174,55.4250225 441.311106,64.1882969 451.935261,71.9205979 C456.694602,75.3828222 461.190183,78.6565477 466.519715,79.6144297 C491.258983,84.0306892 495.99893,91.3552171 499.788561,97.2371515 C500.176446,97.8295766 500.533299,98.3912263 500.905668,98.9297945 C504.749603,104.496282 512.387047,125.054201 503.027396,142.015253 C502.861928,142.310654 502.549661,142.495592 502.20896,142.5 L502.20896,142.5 Z" id="Path" fill="#303C60" fill-rule="nonzero"></path>
                            <path d="M385.358744,71.5 C383.504091,71.4887313 381.652863,71.3392946 379.820466,71.0529336 C370.697681,69.6884093 358.461317,64.5102144 357.5,35.4275747 C357.511158,34.9240744 357.914299,34.5170574 358.418226,34.5005202 C358.922153,34.4839829 359.351171,34.8636912 359.395391,35.3653742 C359.784588,47.3545281 362.170368,56.2219925 366.470998,61.7267403 C369.736364,65.9097265 374.06813,68.2772346 380.092905,69.1791424 C388.534595,70.4425908 394.131252,68.8875773 396.723306,64.5529773 C396.89781,64.2599232 397.215579,64.0821204 397.556913,64.0865457 C397.898247,64.0909709 398.211289,64.2769518 398.378119,64.5744312 C398.54495,64.8719105 398.540223,65.2356941 398.365719,65.5287482 C395.987723,69.4979201 391.624821,71.5 385.358744,71.5 Z" id="Path" fill="#303C60" fill-rule="nonzero"></path>
                            <polygon id="Path" fill="#BABFC7" fill-rule="evenodd" points="268.5 406.5 261.547825 406.5 234.5 199.5 249.794786 199.5"></polygon>
                        </g>
                    </g>
                </g>
            </g>
        </g>
    </g>
</svg>