<svg xmlns="http://www.w3.org/2000/svg" xmlns:xlink="http://www.w3.org/1999/xlink" width="668" height="378" viewBox="0 0 668 378">
    <defs>
        <linearGradient id="ole6nyj9la" x1="50%" x2="50%" y1="81.177%" y2="-34.513%">
            <stop offset="0%" stop-color="#FF8C19"/>
            <stop offset="100%" stop-color="#FFC967"/>
        </linearGradient>
        <linearGradient id="am8kexv0ib" x1="62.11%" x2="62.11%" y1="31.381%" y2="-27.478%">
            <stop offset="0%" stop-color="#F8FDFF"/>
            <stop offset="100%" stop-color="#AAD4FF"/>
        </linearGradient>
        <path id="otu1t6pfxc" d="M13.75.112h30.673c1.168 0 2.115.94 2.115 2.1v5.774c7.757 9.712 11.635 19.423 11.635 29.135 0 9.412-3.312 18.825-9.935 28.237-.396.562-1.044.897-1.735.897H11.67c-.691 0-1.339-.335-1.735-.897C3.312 55.946 0 46.533 0 37.121c0-9.528 3.733-19.057 11.2-28.585l.435-.55V2.212c0-1.16.947-2.1 2.115-2.1z"/>
    </defs>
    <g fill="none" fill-rule="evenodd">
        <g>
            <g>
                <g>
                    <path fill="#7367F0" fill-rule="nonzero" d="M618.526 151.035c8.614-11.498 24.925-13.841 36.431-5.233 11.392 8.523 13.803 24.583 5.492 36.06l-.255.347-68.253 91.106c-8.694 11.604-24.84 14.547-37.057 6.824l-.369-.237-42.967-28.104-43.322 63.054c-8.055 11.723-24.014 14.788-35.83 6.96l-.356-.241c-11.731-8.05-14.799-23.998-6.965-35.806l.24-.356 56.77-82.626c8.458-12.31 25.123-15.701 37.709-7.754l.38.244L563.94 223.9l54.586-72.864zM395.115 3.192C397.3.02 401.65-.788 404.833 1.39c3.14 2.149 3.97 6.4 1.892 9.562l-.085.126-17.01 24.708c-2.493 3.482-7.318 4.321-10.842 1.912l-.125-.087-9.77-6.954-10.587 16.772c-2.029 3.214-6.259 4.21-9.51 2.264l-.128-.079c-3.224-2.023-4.222-6.24-2.27-9.481l.078-.128 14.041-22.241c2.313-3.664 7.168-4.765 10.843-2.46l.192.125.189.13 9.974 7.1 13.4-19.467z" opacity=".085" transform="translate(-143.000000, -351.000000) translate(143.500000, 351.000000) translate(0.500000, 25.000000)"/>
                    <path fill="#00CFE8" d="M583.235 116.44v-16.308h16.322c1.38 0 2.5-1.12 2.5-2.5v-7.543c0-1.38-1.12-2.5-2.5-2.5h-16.322V71.16c0-1.381-1.12-2.5-2.5-2.5h-7.673c-1.38 0-2.5 1.119-2.5 2.5v16.43h-16.321c-1.381 0-2.5 1.12-2.5 2.5v7.543c0 1.38 1.119 2.5 2.5 2.5h16.321v16.309c0 1.38 1.12 2.5 2.5 2.5h7.673c1.38 0 2.5-1.12 2.5-2.5z" opacity=".07" transform="translate(-143.000000, -351.000000) translate(143.500000, 351.000000) translate(0.500000, 25.000000)"/>
                    <path fill="#00CFE8" d="M84.148 18.537c46.474 0 84.15 37.65 84.15 84.093 0 46.443-37.676 84.093-84.15 84.093-46.474 0-84.15-37.65-84.15-84.093 0-46.443 37.676-84.093 84.15-84.093zm0 41.613c-23.477 0-42.508 19.019-42.508 42.48 0 23.46 19.031 42.48 42.508 42.48 23.477 0 42.509-19.02 42.509-42.48 0-23.461-19.032-42.48-42.509-42.48z" opacity=".074" transform="translate(-143.000000, -351.000000) translate(143.500000, 351.000000) translate(0.500000, 25.000000)"/>
                </g>
                <g>
                    <path fill="#DFDFDF" d="M47.111 236H172v118c0 2.21-1.79 4-4 4H27c-2.21 0-4-1.79-4-4v-93.889C23 246.795 33.795 236 47.111 236z" transform="translate(-143.000000, -351.000000) translate(143.500000, 351.000000) translate(328.000000, 189.000000) scale(-1, 1) translate(-328.000000, -189.000000) translate(129.500000, 0.000000)"/>
                    <path fill="#D1D1D1" d="M37 336L144 336 144 360 37 360z" transform="translate(-143.000000, -351.000000) translate(143.500000, 351.000000) translate(328.000000, 189.000000) scale(-1, 1) translate(-328.000000, -189.000000) translate(129.500000, 0.000000)"/>
                    <path fill="#DFDFDF" d="M176.173 360L183 377 150 377 155.719 360z" transform="translate(-143.000000, -351.000000) translate(143.500000, 351.000000) translate(328.000000, 189.000000) scale(-1, 1) translate(-328.000000, -189.000000) translate(129.500000, 0.000000)"/>
                    <path fill="#F1F1F1" d="M63.173 358L70 377 37 377 42.719 358z" transform="translate(-143.000000, -351.000000) translate(143.500000, 351.000000) translate(328.000000, 189.000000) scale(-1, 1) translate(-328.000000, -189.000000) translate(129.500000, 0.000000)"/>
                    <path fill="#DFDFDF" d="M287.173 360L294 377 261 377 266.719 360zM131.578 109.894L172 109v139h-64V134c0-13.109 10.473-23.816 23.578-24.106z" transform="translate(-143.000000, -351.000000) translate(143.500000, 351.000000) translate(328.000000, 189.000000) scale(-1, 1) translate(-328.000000, -189.000000) translate(129.500000, 0.000000)"/>
                    <path fill="#F2F2F2" d="M144.111 109H271.16c12.062 0 21.84 9.778 21.84 21.84v117.413c0 .965-.782 1.747-1.747 1.747H120V133.111C120 119.795 130.795 109 144.111 109z" transform="translate(-143.000000, -351.000000) translate(143.500000, 351.000000) translate(328.000000, 189.000000) scale(-1, 1) translate(-328.000000, -189.000000) translate(129.500000, 0.000000)"/>
                    <path fill="#DFDFDF" d="M269.111 109h3.049c12.062 0 21.84 9.778 21.84 21.84v103.413c0 .965-.782 1.747-1.747 1.747H245V133.111C245 119.795 255.795 109 269.111 109z" transform="translate(-143.000000, -351.000000) translate(143.500000, 351.000000) translate(328.000000, 189.000000) scale(-1, 1) translate(-328.000000, -189.000000) translate(129.500000, 0.000000)"/>
                    <path fill="#F2F2F2" d="M49.6 250H165v92H37v-79.4c0-6.959 5.641-12.6 12.6-12.6z" transform="translate(-143.000000, -351.000000) translate(143.500000, 351.000000) translate(328.000000, 189.000000) scale(-1, 1) translate(-328.000000, -189.000000) translate(129.500000, 0.000000)"/>
                    <g>
                        <g>
                            <path fill="#33373E" d="M14.105 80.612C-3.09 76.584-4.223 52.84 8.85 44.604-4.632 16.172 26.547-12.057 47.904 5.352 61.905-.677 73.54 22.849 60.512 41.12c5.463 31.373-5.655 39.483-25.696 39.828l-20.71-.337z" transform="translate(-143.000000, -351.000000) translate(143.500000, 351.000000) translate(328.000000, 189.000000) scale(-1, 1) translate(-328.000000, -189.000000) translate(129.500000, 0.000000) translate(115.500000, 196.000000) scale(-1, 1) translate(-115.500000, -196.000000) translate(0.000000, 15.000000) translate(46.125178, 0.659181)"/>
                            <path fill="#EDC2C2" d="M14.32 74.942s8.364-1.976 8.654-15.764c.29-13.788.087-18.495.087-18.495l18.425-.334s.201 15.366.204 20.925c.008 14.928 10.348 13.668 10.348 13.668s-2.15 12.104-18.845 13.049c-13.036.738-18.874-13.05-18.874-13.05z" transform="translate(-143.000000, -351.000000) translate(143.500000, 351.000000) translate(328.000000, 189.000000) scale(-1, 1) translate(-328.000000, -189.000000) translate(129.500000, 0.000000) translate(115.500000, 196.000000) scale(-1, 1) translate(-115.500000, -196.000000) translate(0.000000, 15.000000) translate(46.125178, 0.659181)"/>
                            <path fill="#FFD7D7" d="M18.766 33.798c-8.22-.32-6.88 11.785 1.66 11.768 0 0 4.959 17.196 22.177 17.196 13.984 0 14.893-20.042 15.02-24.04.137-4.263.154-18.268.154-18.268l-39.331-.018.32 13.362z" transform="translate(-143.000000, -351.000000) translate(143.500000, 351.000000) translate(328.000000, 189.000000) scale(-1, 1) translate(-328.000000, -189.000000) translate(129.500000, 0.000000) translate(115.500000, 196.000000) scale(-1, 1) translate(-115.500000, -196.000000) translate(0.000000, 15.000000) translate(46.125178, 0.659181)"/>
                            <path stroke="#F77B7B" stroke-linecap="round" stroke-width="1.5" d="M39.283 51.21s4.102 3.493 8.851.222" transform="translate(-143.000000, -351.000000) translate(143.500000, 351.000000) translate(328.000000, 189.000000) scale(-1, 1) translate(-328.000000, -189.000000) translate(129.500000, 0.000000) translate(115.500000, 196.000000) scale(-1, 1) translate(-115.500000, -196.000000) translate(0.000000, 15.000000) translate(46.125178, 0.659181)"/>
                            <path stroke="#F49494" stroke-linecap="round" d="M41.984 55.318c1.296.547 2.525.548 3.6-.08" transform="translate(-143.000000, -351.000000) translate(143.500000, 351.000000) translate(328.000000, 189.000000) scale(-1, 1) translate(-328.000000, -189.000000) translate(129.500000, 0.000000) translate(115.500000, 196.000000) scale(-1, 1) translate(-115.500000, -196.000000) translate(0.000000, 15.000000) translate(46.125178, 0.659181) translate(43.784217, 55.478022) rotate(2.000000) translate(-43.784217, -55.478022)"/>
                            <path stroke="#F77B7B" stroke-linecap="round" d="M19.142 40.51c.519-1.873.292-3.508-1.556-4.253" transform="translate(-143.000000, -351.000000) translate(143.500000, 351.000000) translate(328.000000, 189.000000) scale(-1, 1) translate(-328.000000, -189.000000) translate(129.500000, 0.000000) translate(115.500000, 196.000000) scale(-1, 1) translate(-115.500000, -196.000000) translate(0.000000, 15.000000) translate(46.125178, 0.659181) translate(18.484904, 38.383610) rotate(-13.000000) translate(-18.484904, -38.383610)"/>
                            <path fill="#33373E" d="M17.465 32.302s4.505 6.082 5.418 6.114c.913.032 1.232-7.91 1.232-7.91 5.527-.424 19.514-3.226 22.942-9.753 2.398 5.76 6.981 8.317 9.993 7.826l.57 12.236 1.406-24.599H16.363l1.102 16.086z" transform="translate(-143.000000, -351.000000) translate(143.500000, 351.000000) translate(328.000000, 189.000000) scale(-1, 1) translate(-328.000000, -189.000000) translate(129.500000, 0.000000) translate(115.500000, 196.000000) scale(-1, 1) translate(-115.500000, -196.000000) translate(0.000000, 15.000000) translate(46.125178, 0.659181)"/>
                        </g>
                        <g>
                            <path fill="#FFD7D7" d="M91.622 132.095s-7.374 14.982-1.33 19.703c6.055 4.722 22.046 13.571 22.046 13.571l-42.367-2.678 9.418-32.676 12.233 2.08z" transform="translate(-143.000000, -351.000000) translate(143.500000, 351.000000) translate(328.000000, 189.000000) scale(-1, 1) translate(-328.000000, -189.000000) translate(129.500000, 0.000000) translate(115.500000, 196.000000) scale(-1, 1) translate(-115.500000, -196.000000) translate(0.000000, 15.000000) translate(53.010188, 186.656250)"/>
                            <path fill="#2B2E35" d="M74.07 146.353c2.09.246-.143 7.327 4.384 7.865 4.518.538 6.714-6.17 11.84-4.044 5.128 2.127 23.826 13.123 24.562 17.619.745 4.494-6.221 5.817-15.775 4.802-9.554-1.015-11.315-4.434-18.487-3.057-7.163 1.376-12.53-.818-12.293-6.083.237-5.265 3.678-17.347 5.768-17.102z" transform="translate(-143.000000, -351.000000) translate(143.500000, 351.000000) translate(328.000000, 189.000000) scale(-1, 1) translate(-328.000000, -189.000000) translate(129.500000, 0.000000) translate(115.500000, 196.000000) scale(-1, 1) translate(-115.500000, -196.000000) translate(0.000000, 15.000000) translate(53.010188, 186.656250)"/>
                            <path fill="#FFF" fill-opacity=".541" d="M92.633 151.265l-1.181 1.782c-.305.46-.18 1.081.28 1.386.021.014.042.027.064.039l13.22 7.421c.292.164.646.171.944.02l2.155-1.1c-3.082-2.246-5.601-3.933-8.386-5.589-2.138-1.272-4.504-2.583-7.096-3.959z" transform="translate(-143.000000, -351.000000) translate(143.500000, 351.000000) translate(328.000000, 189.000000) scale(-1, 1) translate(-328.000000, -189.000000) translate(129.500000, 0.000000) translate(115.500000, 196.000000) scale(-1, 1) translate(-115.500000, -196.000000) translate(0.000000, 15.000000) translate(53.010188, 186.656250)"/>
                            <path fill="#33373E" d="M27.8.045c12.827.576 84.214 16.46 97.184 19.158 12.97 2.698 23.936 17.3 14.045 34.208-11.108 18.98-39.77 72.884-46.728 85.035-3.444 6.014-20.82 2.642-16.739-7.452 7.609-18.818 11.142-66.091 30.541-83.328 0 0-65.237 11.422-93.417-1.661C-7.794 36.495-3.161-1.348 27.8.045z" transform="translate(-143.000000, -351.000000) translate(143.500000, 351.000000) translate(328.000000, 189.000000) scale(-1, 1) translate(-328.000000, -189.000000) translate(129.500000, 0.000000) translate(115.500000, 196.000000) scale(-1, 1) translate(-115.500000, -196.000000) translate(0.000000, 15.000000) translate(53.010188, 186.656250)"/>
                        </g>
                        <g>
                            <path fill="#FFD7D7" d="M80.996 30.762s-.145-10.499 3.506-15.985c3.65-5.487 3.795-11.315 6.558-11.124 2.763.19.027 13.737.027 13.737s3.506-1.347 6.024-3.051c2.519-1.705 10.155-10.106 11.94-8.617 3.025 2.537-1.848 16.845-4.502 19.706-2.664 2.861-17.212 12.27-17.212 12.27l-6.34-6.936z" transform="translate(-143.000000, -351.000000) translate(143.500000, 351.000000) translate(328.000000, 189.000000) scale(-1, 1) translate(-328.000000, -189.000000) translate(129.500000, 0.000000) translate(115.500000, 196.000000) scale(-1, 1) translate(-115.500000, -196.000000) translate(0.000000, 15.000000) translate(90.694523, 79.640000)"/>
                            <path fill="#675CD7" d="M2.174 24.47C8.141 38.393 19.065 63.967 23.57 71.597c5.644 9.555 14.545 13.765 24.965 6.675 10.95-7.45 41.1-36.504 41.984-43.086.876-6.581-6.503-14.478-13.18-10.39-6.678 4.089-34.423 27.316-34.423 27.316S31.717 23.236 22.71 6.51C14.909-7.962-6.908 3.307 2.174 24.47z" transform="translate(-143.000000, -351.000000) translate(143.500000, 351.000000) translate(328.000000, 189.000000) scale(-1, 1) translate(-328.000000, -189.000000) translate(129.500000, 0.000000) translate(115.500000, 196.000000) scale(-1, 1) translate(-115.500000, -196.000000) translate(0.000000, 15.000000) translate(90.694523, 79.640000)"/>
                            <path fill="#000" fill-opacity=".303" d="M43.03 52.126c2.006 6.841 3.242 10.064 3.711 9.668.469-.396.29-4.513-.537-12.35l-3.173 2.682z" transform="translate(-143.000000, -351.000000) translate(143.500000, 351.000000) translate(328.000000, 189.000000) scale(-1, 1) translate(-328.000000, -189.000000) translate(129.500000, 0.000000) translate(115.500000, 196.000000) scale(-1, 1) translate(-115.500000, -196.000000) translate(0.000000, 15.000000) translate(90.694523, 79.640000)"/>
                        </g>
                        <g>
                            <g>
                                <path fill="#7596FF" fill-rule="nonzero" d="M3.151.756h18.816c1.325 0 2.4 1.074 2.4 2.4v42.712c0 1.326-1.075 2.4-2.4 2.4H3.15c-1.325 0-2.4-1.074-2.4-2.4V3.156c0-1.326 1.075-2.4 2.4-2.4z" transform="translate(-143.000000, -351.000000) translate(143.500000, 351.000000) translate(328.000000, 189.000000) scale(-1, 1) translate(-328.000000, -189.000000) translate(129.500000, 0.000000) translate(115.500000, 196.000000) scale(-1, 1) translate(-115.500000, -196.000000) translate(0.000000, 15.000000) translate(191.388041, 99.402033) scale(-1, 1) rotate(-18.000000) translate(-191.388041, -99.402033) translate(177.888041, 74.902033) translate(0.000000, 0.000000)"/>
                                <path fill="#93C2F9" d="M2.53 0.131H26.145V47.644H2.53z" transform="translate(-143.000000, -351.000000) translate(143.500000, 351.000000) translate(328.000000, 189.000000) scale(-1, 1) translate(-328.000000, -189.000000) translate(129.500000, 0.000000) translate(115.500000, 196.000000) scale(-1, 1) translate(-115.500000, -196.000000) translate(0.000000, 15.000000) translate(191.388041, 99.402033) scale(-1, 1) rotate(-18.000000) translate(-191.388041, -99.402033) translate(177.888041, 74.902033) translate(0.000000, 0.000000)"/>
                                <path fill="#E6F3FF" fill-rule="nonzero" d="M6.751 1.828h1.791c.365 0 .669.265.732.613l.012.135c0 .413.332.747.743.747h8.636c.365 0 .668-.264.731-.613l.012-.134c0-.413.333-.748.744-.748h1.782c1.323 0 2.409 1.026 2.514 2.33l.009.21-.034 38.638c-.005 1.685-1.363 3.051-3.04 3.054H7.215c-1.604.003-2.917-1.249-3.028-2.834l-.008-.218s0-.002.003-.002l.034-38.628c.001-1.409 1.136-2.55 2.536-2.55z" transform="translate(-143.000000, -351.000000) translate(143.500000, 351.000000) translate(328.000000, 189.000000) scale(-1, 1) translate(-328.000000, -189.000000) translate(129.500000, 0.000000) translate(115.500000, 196.000000) scale(-1, 1) translate(-115.500000, -196.000000) translate(0.000000, 15.000000) translate(191.388041, 99.402033) scale(-1, 1) rotate(-18.000000) translate(-191.388041, -99.402033) translate(177.888041, 74.902033) translate(0.000000, 0.000000)"/>
                            </g>
                        </g>
                        <g>
                            <path fill="#7367F0" d="M0 14.183s14.378 48.433 14.804 57.6c.426 9.17-11.76 36.116-9.685 42.927 4.784 15.739 65.857 22.516 68.19 1.343 1.089-9.874-1.176-18.737 1.434-30.372 2.6-11.635 13.052-28.924 7.124-45.18-5.929-16.255-4.34-31.294-8.58-34.137-4.24-2.842-14.152-5.86-14.152-5.86-4.82 7.135-21.092 7.03-28.856-.504 0 0-19.29 3.764-30.279 14.183z" transform="translate(-143.000000, -351.000000) translate(143.500000, 351.000000) translate(328.000000, 189.000000) scale(-1, 1) translate(-328.000000, -189.000000) translate(129.500000, 0.000000) translate(115.500000, 196.000000) scale(-1, 1) translate(-115.500000, -196.000000) translate(0.000000, 15.000000) translate(33.240443, 73.153607)"/>
                            <path fill="#000" fill-opacity=".199" d="M12.885 22.027c9.584 15.301 9.555 41.941 14.703 45.43 5.147 3.489 25.181.065 25.181 2.828s-27.686 28.084-23.14 40.19c2.38 6.337 1.734 12.008-1.937 17.01l-1.199-.262c-10.908-2.48-19.678-6.934-21.374-12.513-2.075-6.811 11.517-33.758 11.09-42.927C15.85 64.001 4.42 27.926.975 17.2c2.806-4.98 6.775-3.37 11.91 4.828z" transform="translate(-143.000000, -351.000000) translate(143.500000, 351.000000) translate(328.000000, 189.000000) scale(-1, 1) translate(-328.000000, -189.000000) translate(129.500000, 0.000000) translate(115.500000, 196.000000) scale(-1, 1) translate(-115.500000, -196.000000) translate(0.000000, 15.000000) translate(33.240443, 73.153607)"/>
                        </g>
                        <g>
                            <path fill="#FFD7D7" d="M62.468 52.486S74.58 41.704 78.287 40.452c3.707-1.25 25.42-2.754 25.283.073-.156 3.03-11.818 2.855-13.026 4.346-1.209 1.49-1.483 11.675-6.051 12.819-4.559 1.143-18.226 3.115-18.226 3.115l-3.799-8.319z" transform="translate(-143.000000, -351.000000) translate(143.500000, 351.000000) translate(328.000000, 189.000000) scale(-1, 1) translate(-328.000000, -189.000000) translate(129.500000, 0.000000) translate(115.500000, 196.000000) scale(-1, 1) translate(-115.500000, -196.000000) translate(0.000000, 15.000000) translate(0.000000, 83.288281)"/>
                            <path fill="#675CD7" d="M30.25 6.832C17.49 24.947 6.595 52.541 2.414 63.299c-4.182 10.758.036 26.985 18.423 23.799 18.354-3.177 47.557-20.441 50.788-25.477 3.231-5.036-1.677-14.2-7.859-13-5.727 1.11-34.133 13.26-34.133 13.26s18.275-32.586 22.737-41.322C59.825 5.971 41.488-9.129 30.25 6.832z" transform="translate(-143.000000, -351.000000) translate(143.500000, 351.000000) translate(328.000000, 189.000000) scale(-1, 1) translate(-328.000000, -189.000000) translate(129.500000, 0.000000) translate(115.500000, 196.000000) scale(-1, 1) translate(-115.500000, -196.000000) translate(0.000000, 15.000000) translate(0.000000, 83.288281)"/>
                            <path fill="#000" fill-opacity=".303" d="M29.923 61.658c-6.38 3.19-9.182 4.115-8.404 2.778.778-1.338 4.797-4.356 12.057-9.055l-3.653 6.277z" transform="translate(-143.000000, -351.000000) translate(143.500000, 351.000000) translate(328.000000, 189.000000) scale(-1, 1) translate(-328.000000, -189.000000) translate(129.500000, 0.000000) translate(115.500000, 196.000000) scale(-1, 1) translate(-115.500000, -196.000000) translate(0.000000, 15.000000) translate(0.000000, 83.288281)"/>
                        </g>
                        <g transform="translate(-143.000000, -351.000000) translate(143.500000, 351.000000) translate(328.000000, 189.000000) scale(-1, 1) translate(-328.000000, -189.000000) translate(129.500000, 0.000000) translate(115.500000, 196.000000) scale(-1, 1) translate(-115.500000, -196.000000) translate(0.000000, 15.000000) translate(30.924977, 181.000000)">
                            <path fill="#FFD7D7" d="M158.258 138.352s-.222 17.635 14.222 24.228c14.435 6.592 24.72 6.195 23.411 11.292-1.309 5.096-38.883 4.89-42.391.905-2.991-3.391-9.495-34.966-11.285-32.552l16.043-3.873z"/>
                            <path fill="#2B2E35" d="M146.83 158.092c1.613-3.136 1.714 5.684 8.077 3.74 5.163-1.577 6.928-10.604 10.19-8.627 3.263 1.977 31.983 17.308 32.146 17.4 3.536 1.916 2.548 7.72-3.424 8.734-6.636 1.125-41.02.367-42.866-1.412-1.845-1.78-5.417-17.321-4.123-19.835z"/>
                            <path fill="#FFF" fill-opacity=".541" d="M169.346 158.477c-.573 0-1.126.553-1.659 1.658-.24.498-.03 1.096.467 1.336l.051.023 15.351 6.358c.375.155.806.069 1.091-.218.518-.519.703-.932.557-1.238-.28-.588-14.776-7.919-15.858-7.919z"/>
                            <path fill="#42474F" d="M8.29.25C-4.14 26.66-1.62 44.4 15.85 53.468c25.343 13.156 101.21-2.404 101.21-2.404s-1.356 10.98 0 20.773c3.54 25.576 20.38 68.188 23.943 73.542 4.927 7.404 19.935 1.82 20.218-4.345.282-6.165-11.314-84.905-13.078-99.92-1.754-15.017-7.293-17.198-23.47-21.303-3.717-.943-47.669-11.93-51.695-11.61C49.914 10.035 28.351 7.385 8.291.25z"/>
                            <path fill="#52565E" d="M28.732 49.38c25.09 2.828 91.515-3.002 94.183-.353 2.547 2.53 2.122 46.529 7.836 71.995l-.87-2.405c-5.373-15.013-10.952-33.272-12.822-46.78-1.356-9.793 0-20.773 0-20.773l-3.06.596c-14.42 2.725-75.849 13.385-98.15 1.808C3.765 47.196-1.166 36.775 1.056 22.205c3.826 16.468 13.05 25.526 27.676 27.175z"/>
                            <ellipse cx="158.842" cy="43.129" fill="#52565E" rx="4.218" ry="7.775" transform="translate(158.841927, 43.128906) rotate(13.000000) translate(-158.841927, -43.128906)"/>
                            <ellipse cx="139.162" cy="38.18" fill="#52565E" rx="5.625" ry="8.481" transform="translate(139.162396, 38.179687) rotate(-16.000000) translate(-139.162396, -38.179687)"/>
                        </g>
                    </g>
                    <path fill="#DFDFDF" d="M168.111 236H293v120.253c0 .965-.782 1.747-1.747 1.747H144v-97.889C144 246.795 154.795 236 168.111 236z" transform="translate(-143.000000, -351.000000) translate(143.500000, 351.000000) translate(328.000000, 189.000000) scale(-1, 1) translate(-328.000000, -189.000000) translate(129.500000, 0.000000)"/>
                    <g>
                        <path fill="url(#ole6nyj9la)" d="M4 0h3.115c1.55 0 2.808 1.257 2.808 2.808v1.589c0 .673.546 1.219 1.219 1.219h29.925c2.209 0 4 1.79 4 4V34.26c0 2.209-1.791 4-4 4H4c-2.21 0-4-1.791-4-4V4c0-2.21 1.79-4 4-4z" transform="translate(-143.000000, -351.000000) translate(143.500000, 351.000000) translate(328.000000, 189.000000) scale(-1, 1) translate(-328.000000, -189.000000) translate(129.500000, 0.000000) translate(39.000000, 20.000000) scale(-1, 1) translate(-39.000000, -20.000000) translate(13.000000, 0.000000)"/>
                        <path fill="url(#am8kexv0ib)" d="M11.688 3.478h33.687c.673 0 1.22.546 1.22 1.22 0 .063-.006.126-.015.188L41.517 37.23c-.093.594-.604 1.03-1.205 1.03H6.625c-.673 0-1.22-.545-1.22-1.218 0-.064.006-.127.015-.189l5.063-32.344c.093-.593.604-1.03 1.205-1.03z" transform="translate(-143.000000, -351.000000) translate(143.500000, 351.000000) translate(328.000000, 189.000000) scale(-1, 1) translate(-328.000000, -189.000000) translate(129.500000, 0.000000) translate(39.000000, 20.000000) scale(-1, 1) translate(-39.000000, -20.000000) translate(13.000000, 0.000000)"/>
                        <path fill="#FFCC7B" d="M51.078 16.934l-3.211 16.587C47.138 37.283 43.844 40 40.013 40H4.849c-2.21 0-4-1.79-4-4 0-.255.024-.51.073-.76l3.211-16.587c.729-3.762 4.023-6.48 7.854-6.48h35.164c2.21 0 4 1.792 4 4 0 .256-.024.51-.073.761z" transform="translate(-143.000000, -351.000000) translate(143.500000, 351.000000) translate(328.000000, 189.000000) scale(-1, 1) translate(-328.000000, -189.000000) translate(129.500000, 0.000000) translate(39.000000, 20.000000) scale(-1, 1) translate(-39.000000, -20.000000) translate(13.000000, 0.000000)"/>
                    </g>
                    <g>
                        <g>
                            <path fill="#57E295" d="M41.464 101.6c11.009-24.85 21.01-50.371 30.166-76.456C50.54 44.978 34.14 69.142 36.476 101.6h4.988z" transform="translate(-143.000000, -351.000000) translate(143.500000, 351.000000) translate(328.000000, 189.000000) scale(-1, 1) translate(-328.000000, -189.000000) translate(129.500000, 0.000000) translate(314.000000, 213.000000)"/>
                            <path fill="#28C76F" d="M35.597 104.195C32.99 61.823 34.095 22.47 55.933 0c-3.012 46.523-8.647 79.296-15.783 104.195h-4.553z" transform="translate(-143.000000, -351.000000) translate(143.500000, 351.000000) translate(328.000000, 189.000000) scale(-1, 1) translate(-328.000000, -189.000000) translate(129.500000, 0.000000) translate(314.000000, 213.000000)"/>
                            <path fill="#57E295" d="M34.595 99.782C22.395 70.172 10.135 61.685 0 31.291c33.167 17.16 35.246 31.331 41.756 68.491h-7.161z" transform="translate(-143.000000, -351.000000) translate(143.500000, 351.000000) translate(328.000000, 189.000000) scale(-1, 1) translate(-328.000000, -189.000000) translate(129.500000, 0.000000) translate(314.000000, 213.000000)"/>
                            <path fill="#28C76F" d="M28.028 99.782L6.141 70.172c10.57 3.007 28.24 7.876 28.24 29.61h-6.353z" transform="translate(-143.000000, -351.000000) translate(143.500000, 351.000000) translate(328.000000, 189.000000) scale(-1, 1) translate(-328.000000, -189.000000) translate(129.500000, 0.000000) translate(314.000000, 213.000000)"/>
                            <path fill="#57E295" d="M48.5 99.782H55.8c4.64-9.667 11.179-16.322 26.998-8.255-10.37-15.76-31.645-20.53-34.3 8.255z" transform="translate(-143.000000, -351.000000) translate(143.500000, 351.000000) translate(328.000000, 189.000000) scale(-1, 1) translate(-328.000000, -189.000000) translate(129.500000, 0.000000) translate(314.000000, 213.000000)"/>
                            <path fill="#28C76F" d="M41.783 99.782h6.072c11.144-15.901 15.935-22.83 27.467-36.41-15.192 5.752-30.786 13.58-33.539 36.41z" transform="translate(-143.000000, -351.000000) translate(143.500000, 351.000000) translate(328.000000, 189.000000) scale(-1, 1) translate(-328.000000, -189.000000) translate(129.500000, 0.000000) translate(314.000000, 213.000000)"/>
                        </g>
                        <g transform="translate(-143.000000, -351.000000) translate(143.500000, 351.000000) translate(328.000000, 189.000000) scale(-1, 1) translate(-328.000000, -189.000000) translate(129.500000, 0.000000) translate(314.000000, 213.000000) translate(12.769231, 97.375000)">
                            <mask id="3ce2ypl32d" fill="#fff">
                                <use xlink:href="#otu1t6pfxc"/>
                            </mask>
                            <use fill="#7367F0" xlink:href="#otu1t6pfxc"/>
                            <path fill="#857AF9" d="M-7.404-1.706h27.5c-13.165 30.42 12.804 48.436 0 78.742h-27.5V-1.706z" mask="url(#3ce2ypl32d)"/>
                        </g>
                    </g>
                </g>
            </g>
        </g>
    </g>
</svg>
