<svg xmlns="http://www.w3.org/2000/svg" xmlns:xlink="http://www.w3.org/1999/xlink" width="729" height="514" viewBox="0 0 729 514">
    <defs>
        <linearGradient id="kpqr7itldb" x1="43.252%" x2="50%" y1="-28.186%" y2="91.05%">
            <stop offset="0%" stop-color="#FDC6C6"/>
            <stop offset="100%" stop-color="#FAB2B2"/>
        </linearGradient>
        <linearGradient id="q05xt45e8c" x1="42.314%" x2="50%" y1="8.689%" y2="71.69%">
            <stop offset="0%" stop-color="#FDC6C6"/>
            <stop offset="100%" stop-color="#FAB2B2"/>
        </linearGradient>
        <linearGradient id="l8z1bwfb9d" x1="68.669%" x2="68.669%" y1="-53.107%" y2="100%">
            <stop offset="0%" stop-color="#7367F0"/>
            <stop offset="100%" stop-color="#8CA5FF"/>
        </linearGradient>
        <linearGradient id="r7aafpcz8e" x1="68.669%" x2="68.669%" y1="-53.107%" y2="100%">
            <stop offset="0%" stop-color="#7367F0"/>
            <stop offset="100%" stop-color="#8CA5FF"/>
        </linearGradient>
        <filter id="ukf92uhlha" width="119.7%" height="119.7%" x="-9.8%" y="-9.8%" filterUnits="objectBoundingBox">
            <feGaussianBlur in="SourceGraphic" stdDeviation="3"/>
        </filter>
        <path id="808ztuxuif" d="M14.916.122H48.19c1.267 0 2.294 1.02 2.294 2.279v6.267c8.414 10.54 12.621 21.08 12.621 31.62 0 10.215-3.592 20.43-10.777 30.646-.43.61-1.132.973-1.882.973H12.66c-.75 0-1.452-.363-1.881-.973C3.593 60.718 0 50.503 0 40.288 0 29.946 4.05 19.605 12.15 9.264l.471-.596V2.4c0-1.259 1.027-2.28 2.295-2.28z"/>
    </defs>
    <g fill="none" fill-rule="evenodd">
        <g>
            <g>
                <g>
                    <path fill="#BFE7FF" d="M558.525 155.012l127.818.157c5.513.007 9.98 4.475 9.988 9.988l.157 127.818c.006 5.523-4.465 10.006-9.988 10.013h-.025l-127.818-.157c-5.513-.007-9.98-4.475-9.988-9.988l-.157-127.818c-.006-5.523 4.465-10.006 9.988-10.013h.025z" opacity=".15" transform="translate(-113.000000, -277.000000) translate(113.000000, 290.000000) translate(0.500000, 0.000000) translate(622.500000, 229.000000) rotate(-45.000000) translate(-622.500000, -229.000000)"/>
                    <path fill="#7367F0" d="M237.807 19.423l71.218.088c5.514.006 9.981 4.474 9.988 9.987l.088 71.219c.006 5.522-4.465 10.005-9.988 10.012h-.025l-71.218-.088c-5.513-.006-9.98-4.474-9.988-9.987l-.087-71.219c-.007-5.523 4.465-10.005 9.988-10.012h.024z" filter="url(#ukf92uhlha)" opacity=".038" transform="translate(-113.000000, -277.000000) translate(113.000000, 290.000000) translate(0.500000, 0.000000) translate(273.447783, 65.075922) rotate(-45.000000) translate(-273.447783, -65.075922)"/>
                    <path fill="#7367F0" d="M330.589 91.106l265.6.327c5.513.007 9.981 4.474 9.988 9.987l.326 265.6c.007 5.524-4.465 10.006-9.988 10.013h-.024l-265.6-.326c-5.514-.007-9.981-4.475-9.988-9.988l-.327-265.6c-.006-5.523 4.465-10.006 9.988-10.013h.025z" opacity=".066" transform="translate(-113.000000, -277.000000) translate(113.000000, 290.000000) translate(0.500000, 0.000000) translate(463.539842, 234.069720) rotate(-45.000000) translate(-463.539842, -234.069720)"/>
                    <path fill="#7367F0" fill-rule="nonzero" d="M220.715 269c6.005 0 10.873 4.856 10.873 10.846v169.198c0 5.99-4.868 10.846-10.873 10.846H51.102c-6.005 0-10.873-4.856-10.873-10.846V279.846c0-5.99 4.868-10.846 10.873-10.846h169.613zm-32.618 43.384H83.72v104.121h104.377V312.384z" opacity=".09" transform="translate(-113.000000, -277.000000) translate(113.000000, 290.000000) translate(0.500000, 0.000000) translate(135.908441, 364.445000) rotate(-45.000000) translate(-135.908441, -364.445000)"/>
                </g>
                <g>
                    <g>
                        <path fill="#C5C5C5" d="M71.522 134.586L54.153 271.344 63.26 271.224 80.628 135.866z" transform="translate(-113.000000, -277.000000) translate(113.000000, 290.000000) translate(143.500000, 122.000000) translate(228.768750, 104.592233)"/>
                        <path fill="#C3C3C3" d="M87.166 134.586L69.798 271.344 78.904 271.224 96.273 135.866z" transform="translate(-113.000000, -277.000000) translate(113.000000, 290.000000) translate(143.500000, 122.000000) translate(228.768750, 104.592233) translate(83.035068, 202.964946) scale(-1, 1) translate(-83.035068, -202.964946)"/>
                        <path fill="#C3C3C3" d="M140.116 134.586L122.747 271.344 131.854 271.224 149.222 135.866z" transform="translate(-113.000000, -277.000000) translate(113.000000, 290.000000) translate(143.500000, 122.000000) translate(228.768750, 104.592233) translate(135.984966, 202.964946) scale(-1, 1) translate(-135.984966, -202.964946)"/>
                        <path fill="#C5C5C5" d="M0 144.995v-6.4c0-6.123 4.964-11.087 11.088-11.087h65.797c5.72 0 10.501-4.352 11.039-10.046L98.06 10.046C98.6 4.351 103.381 0 109.101 0h47.4c6.124 0 11.088 4.964 11.088 11.088 0 .284-.01.569-.033.852l-10.324 133.907c-.445 5.776-5.262 10.236-11.055 10.236H11.088C4.964 156.083 0 151.119 0 144.995z" transform="translate(-113.000000, -277.000000) translate(113.000000, 290.000000) translate(143.500000, 122.000000) translate(228.768750, 104.592233)"/>
                        <path fill="#B2B0B0" d="M152.955 0l-10.162 131.442c-.446 5.775-5.263 10.233-11.055 10.233H0v-3.442c0-6.123 4.964-11.088 11.088-11.088h65.587c5.72 0 10.5-4.35 11.04-10.043L97.846 10.043C98.386 4.35 103.167 0 108.886 0h44.069z" transform="translate(-113.000000, -277.000000) translate(113.000000, 290.000000) translate(143.500000, 122.000000) translate(228.768750, 104.592233)"/>
                    </g>
                    <g>
                        <g>
                            <path fill="url(#kpqr7itldb)" d="M93.573 133.787s-7.523 18.04-1.356 22.82c6.176 4.784 18.188 16.61 18.188 16.61l-38.92-8.441 9.608-33.095 12.48 2.106z" transform="translate(-113.000000, -277.000000) translate(113.000000, 290.000000) translate(143.500000, 122.000000) translate(268.293750, 188.500000) scale(-1, 1) translate(-268.293750, -188.500000) translate(149.793750, 0.000000) translate(53.060112, 197.641349)"/>
                            <path fill="#323740" d="M91.338 145.666s-.956 8.465 1.804 11.354c2.76 2.887 17.704 13.883 18.874 15.969 1.17 2.088-.923 4.39-.923 4.39s-16.14 1.402-23.4-3.009c-5.24-3.186-13.057-8.906-13.057-8.906l-2.07 5.625-5.868-.24s-.777-6.931.615-10.254c1.393-3.325 8.564-20.241 8.564-20.241s2.76 2.479 5.694 3.728c2.933 1.248 6.607 4.668 6.607 4.668l3.16-3.084z" transform="translate(-113.000000, -277.000000) translate(113.000000, 290.000000) translate(143.500000, 122.000000) translate(268.293750, 188.500000) scale(-1, 1) translate(-268.293750, -188.500000) translate(149.793750, 0.000000) translate(53.060112, 197.641349)"/>
                            <path fill="#42474F" d="M28.463.045c13.085.584 85.914 16.67 99.146 19.404 13.232 2.733 24.418 17.522 14.328 34.647-11.332 19.223-40.572 73.817-47.671 86.124-3.514 6.092-21.24 2.676-17.077-7.548 7.762-19.059 11.367-66.937 31.157-84.395 0 0-66.554 11.568-95.303-1.682C-7.85 36.962-3.124-1.365 28.463.045z" transform="translate(-113.000000, -277.000000) translate(113.000000, 290.000000) translate(143.500000, 122.000000) translate(268.293750, 188.500000) scale(-1, 1) translate(-268.293750, -188.500000) translate(149.793750, 0.000000) translate(53.060112, 197.641349)"/>
                        </g>
                        <g>
                            <path fill="#FFE0D1" d="M82.631 28.292s-.148-10.633 3.577-16.19C89.932 6.545 90.08.642 92.898.835c2.82.193.028 13.913.028 13.913s3.577-1.364 6.146-3.09c2.569-1.726 10.36-10.235 12.18-8.727 3.087 2.57-1.885 17.06-4.593 19.958C103.942 25.787 89.1 35.318 89.1 35.318L52.747 72.442l-6.825-18.86 36.71-25.29z" transform="translate(-113.000000, -277.000000) translate(113.000000, 290.000000) translate(143.500000, 122.000000) translate(268.293750, 188.500000) scale(-1, 1) translate(-268.293750, -188.500000) translate(149.793750, 0.000000) translate(90.172555, 84.957137)"/>
                            <path fill="#FFB66F" d="M2.218 24.785c6.087 14.1 17.232 40 21.827 47.728 5.758 9.678 14.838 13.941 25.47 6.761 1.88-1.27 5.688-4.334 11.42-9.19L50.53 47.217 43.78 52.78S32.358 23.534 23.168 6.593C15.21-8.064-7.047 3.35 2.218 24.785z" transform="translate(-113.000000, -277.000000) translate(113.000000, 290.000000) translate(143.500000, 122.000000) translate(268.293750, 188.500000) scale(-1, 1) translate(-268.293750, -188.500000) translate(149.793750, 0.000000) translate(90.172555, 84.957137)"/>
                            <path fill="#000" fill-opacity=".16" d="M43.9 52.794c2.045 6.929 3.307 10.193 3.785 9.791.478-.4.295-4.57-.548-12.507l-3.238 2.716z" transform="translate(-113.000000, -277.000000) translate(113.000000, 290.000000) translate(143.500000, 122.000000) translate(268.293750, 188.500000) scale(-1, 1) translate(-268.293750, -188.500000) translate(149.793750, 0.000000) translate(90.172555, 84.957137)"/>
                            <path fill="#FFEDC2" d="M47.944 48.482L56.645 77.584 65.887 70.34 53.024 44.541z" transform="translate(-113.000000, -277.000000) translate(113.000000, 290.000000) translate(143.500000, 122.000000) translate(268.293750, 188.500000) scale(-1, 1) translate(-268.293750, -188.500000) translate(149.793750, 0.000000) translate(90.172555, 84.957137)"/>
                        </g>
                        <g>
                            <g>
                                <path fill="#42474F" d="M28.359 4.77S22.321-1.653 15.347.408C8.374 2.468 2.067 15.102 5.062 26.977c2.98 11.876.741 14.32-2.874 22.324-9.71 21.53 16.049 38.844 16.049 38.844l28.073-5.96-10.028-52.44L28.359 4.77z" transform="translate(-113.000000, -277.000000) translate(113.000000, 290.000000) translate(143.500000, 122.000000) translate(268.293750, 188.500000) scale(-1, 1) translate(-268.293750, -188.500000) translate(149.793750, 0.000000) translate(35.180402, 0.000000) translate(33.163122, 49.212621) rotate(12.000000) translate(-33.163122, -49.212621) translate(9.663122, 4.712621)"/>
                                <path fill="#000" fill-opacity=".199" d="M18.14 11.452c-16.353 17.123-2.169 29.947.503 33.097C27.826 69.656 20.52 72.6 10.3 80.817l5.495 6.27 15.753-6.576-.506-70.436-12.902 1.377z" transform="translate(-113.000000, -277.000000) translate(113.000000, 290.000000) translate(143.500000, 122.000000) translate(268.293750, 188.500000) scale(-1, 1) translate(-268.293750, -188.500000) translate(149.793750, 0.000000) translate(35.180402, 0.000000) translate(33.163122, 49.212621) rotate(12.000000) translate(-33.163122, -49.212621) translate(9.663122, 4.712621)"/>
                            </g>
                            <path fill="#F9C7B0" d="M25.565 80.199s9.968-2.001 10.264-15.966c.296-13.965-1.346-18.732-1.346-18.732l18.798-.339s.205 15.564.208 21.193c.008 13.688 10.557 15.276 10.557 15.276S61.853 92.458 44.82 93.415c-13.299.748-19.255-13.216-19.255-13.216z" transform="translate(-113.000000, -277.000000) translate(113.000000, 290.000000) translate(143.500000, 122.000000) translate(268.293750, 188.500000) scale(-1, 1) translate(-268.293750, -188.500000) translate(149.793750, 0.000000) translate(35.180402, 0.000000)"/>
                            <g>
                                <path fill="#FB9934" d="M3.768 9.285C1.424 1.55 14.02-3.13 17.72 2.443c0 0 1.814 5.282-1.968 8.298C10.635 14.81 3.768 9.285 3.768 9.285z" transform="translate(-113.000000, -277.000000) translate(113.000000, 290.000000) translate(143.500000, 122.000000) translate(268.293750, 188.500000) scale(-1, 1) translate(-268.293750, -188.500000) translate(149.793750, 0.000000) translate(35.180402, 0.000000) translate(51.641860, 39.993310) rotate(12.000000) translate(-51.641860, -39.993310) translate(26.641860, 9.993310)"/>
                                <path fill="#FFE0D1" d="M6.346 29.948c-8.386-.324-7.018 11.936 1.693 11.92 0 0 5.06 17.415 22.625 17.415 14.266 0 15.194-20.298 15.324-24.348.139-4.317.157-18.501.157-18.501l-40.126-.019.327 13.533z" transform="translate(-113.000000, -277.000000) translate(113.000000, 290.000000) translate(143.500000, 122.000000) translate(268.293750, 188.500000) scale(-1, 1) translate(-268.293750, -188.500000) translate(149.793750, 0.000000) translate(35.180402, 0.000000) translate(51.641860, 39.993310) rotate(12.000000) translate(-51.641860, -39.993310) translate(26.641860, 9.993310)"/>
                                <path fill="#42474F" d="M10.746 37.508c1.427-.39 1.814-8.306 1.814-8.306 4.272-.847 5.024-1.81 8.253-7.1 14.338 3.052 24.073 3.984 25.332 14.47 0 0 10.768-24.212-8.1-32.817C21.452-3.805 3.942 3.298.887 16.498c-2.164 9.318.317 16.162.317 16.162s2.173-3.458 5.742-2.594c3.568.863 2.373 7.832 3.8 7.442z" transform="translate(-113.000000, -277.000000) translate(113.000000, 290.000000) translate(143.500000, 122.000000) translate(268.293750, 188.500000) scale(-1, 1) translate(-268.293750, -188.500000) translate(149.793750, 0.000000) translate(35.180402, 0.000000) translate(51.641860, 39.993310) rotate(12.000000) translate(-51.641860, -39.993310) translate(26.641860, 9.993310)"/>
                                <path stroke="#F77B7B" stroke-linecap="round" stroke-width="1.5" d="M27.278 47.583s4.184 3.538 9.03.225" transform="translate(-113.000000, -277.000000) translate(113.000000, 290.000000) translate(143.500000, 122.000000) translate(268.293750, 188.500000) scale(-1, 1) translate(-268.293750, -188.500000) translate(149.793750, 0.000000) translate(35.180402, 0.000000) translate(51.641860, 39.993310) rotate(12.000000) translate(-51.641860, -39.993310) translate(26.641860, 9.993310)"/>
                                <path stroke="#F49494" stroke-linecap="round" d="M30.033 51.744c1.322.555 2.576.554 3.673-.082" transform="translate(-113.000000, -277.000000) translate(113.000000, 290.000000) translate(143.500000, 122.000000) translate(268.293750, 188.500000) scale(-1, 1) translate(-268.293750, -188.500000) translate(149.793750, 0.000000) translate(35.180402, 0.000000) translate(51.641860, 39.993310) rotate(12.000000) translate(-51.641860, -39.993310) translate(26.641860, 9.993310) translate(31.869496, 51.905940) rotate(2.000000) translate(-31.869496, -51.905940)"/>
                                <path stroke="#F77B7B" stroke-linecap="round" d="M6.733 36.748c.526-1.896.292-3.553-1.594-4.31" transform="translate(-113.000000, -277.000000) translate(113.000000, 290.000000) translate(143.500000, 122.000000) translate(268.293750, 188.500000) scale(-1, 1) translate(-268.293750, -188.500000) translate(149.793750, 0.000000) translate(35.180402, 0.000000) translate(51.641860, 39.993310) rotate(12.000000) translate(-51.641860, -39.993310) translate(26.641860, 9.993310) translate(6.058119, 34.592793) rotate(-13.000000) translate(-6.058119, -34.592793)"/>
                            </g>
                        </g>
                        <g>
                            <path fill="#FF9F43" d="M64.666 1.663c.229-.012 8.267 3.51 9.193 4.869 6.03 8.847 17.102 39.984 17.672 46.739.642 7.792-10.59 20.204-10.727 31.483-.123 11.281 4.804 45.247 2.893 48.42-1.896 3.173-14.358 18.245-16.958 18.306-2.614.062-4.566-7.851-8.526-7.68-3.945.173-12.171 10.664-15.719 10.59-3.532-.078-40.137-23.267-37.34-29.874 2.814-6.607 15.872-23.026 14.542-32.029-1.315-9-11.82-42.228-15.612-53.536-3.776-11.31-6.82-20.318.23-25.184C11.363 8.901 34.299 0 34.299 0l20.535 11.487s8.64-9.767 9.832-9.824z" transform="translate(-113.000000, -277.000000) translate(113.000000, 290.000000) translate(143.500000, 122.000000) translate(268.293750, 188.500000) scale(-1, 1) translate(-268.293750, -188.500000) translate(149.793750, 0.000000) translate(30.630506, 78.102475)"/>
                            <path fill="#FFF6E1" d="M57.364 11.168c6.16 20.481 14.612 40.662 17.997 59.867l-9.847-5.305-9.082 6.882c.64-19.967-2.711-40.932-4.252-61.444h5.184z" transform="translate(-113.000000, -277.000000) translate(113.000000, 290.000000) translate(143.500000, 122.000000) translate(268.293750, 188.500000) scale(-1, 1) translate(-268.293750, -188.500000) translate(149.793750, 0.000000) translate(30.630506, 78.102475)"/>
                            <path fill="#000" fill-opacity=".16" d="M21.39 26.894l-.234 1.656c-2.759 20.568.506 45.526 6.165 49.334 5.776 3.887 28.259.072 28.259 3.15 0 3.079-31.07 31.29-25.97 44.775 2.805 7.415 1.866 14.009-2.816 19.783l-1.36-.914c-10.612-7.198-21.878-16.387-20.28-20.162 2.814-6.607 15.872-23.026 14.542-32.029C18.434 83.847 8.702 52.88 4.571 40.41l-1.316-3.953C1.725 31.82.452 27.623.145 24l.949-.616c15.175-9.727 21.94-8.557 20.296 3.51z" transform="translate(-113.000000, -277.000000) translate(113.000000, 290.000000) translate(143.500000, 122.000000) translate(268.293750, 188.500000) scale(-1, 1) translate(-268.293750, -188.500000) translate(149.793750, 0.000000) translate(30.630506, 78.102475)"/>
                            <path fill="#FFF6E1" d="M30.508 1.45L34.298 0l20.986 10.893s-3.946 10.04-10.933 5.04c-5.99-4.275-3.463-8.038-8.158-9.979-4.68-1.94-5.685-4.504-5.685-4.504z" transform="translate(-113.000000, -277.000000) translate(113.000000, 290.000000) translate(143.500000, 122.000000) translate(268.293750, 188.500000) scale(-1, 1) translate(-268.293750, -188.500000) translate(149.793750, 0.000000) translate(30.630506, 78.102475)"/>
                            <path fill="#FFF6E1" d="M55.284 10.893c1.522 3.378 4.615 5.353 6.213 4.739 2.64-1.014 1.506-5.053 2.546-7.093.745-1.448 1.227-1.667 1.879-3.026.605-1.246.63-2.743.475-3.156l-2.065-.938c-1.891 1.784-3.277 3.148-4.157 4.094-1.096 1.18-2.727 2.972-4.89 5.38z" transform="translate(-113.000000, -277.000000) translate(113.000000, 290.000000) translate(143.500000, 122.000000) translate(268.293750, 188.500000) scale(-1, 1) translate(-268.293750, -188.500000) translate(149.793750, 0.000000) translate(30.630506, 78.102475)"/>
                        </g>
                        <g>
                            <path fill="#FFE0D1" d="M62.81 53.159s12.356-10.92 16.138-12.188c3.782-1.268 25.934-2.79 25.795.074-.16 3.068-12.057 2.891-13.29 4.4-1.233 1.51-1.513 11.826-6.173 12.984-4.65 1.158-18.594 3.155-18.594 3.155L33.335 81.672 31.91 63.318l30.9-10.16z" transform="translate(-113.000000, -277.000000) translate(113.000000, 290.000000) translate(143.500000, 122.000000) translate(268.293750, 188.500000) scale(-1, 1) translate(-268.293750, -188.500000) translate(149.793750, 0.000000) translate(0.000000, 90.084354)"/>
                            <path fill="#FFB66F" d="M29.941 6.92C16.924 25.267 5.811 53.214 1.545 64.11c-4.266 10.896.037 27.33 18.795 24.104 2.112-.363 5.536-1.273 10.273-2.73l4.483-25.235-5.782 2.425S47.957 29.67 52.51 20.823C60.114 6.047 41.407-9.247 29.94 6.92z" transform="translate(-113.000000, -277.000000) translate(113.000000, 290.000000) translate(143.500000, 122.000000) translate(268.293750, 188.500000) scale(-1, 1) translate(-268.293750, -188.500000) translate(149.793750, 0.000000) translate(0.000000, 90.084354)"/>
                            <path fill="#000" fill-opacity=".16" d="M29.314 62.674c-6.314 3.08-9.073 3.942-8.28 2.587.795-1.354 4.745-4.356 11.852-9.005l-3.572 6.418z" transform="translate(-113.000000, -277.000000) translate(113.000000, 290.000000) translate(143.500000, 122.000000) translate(268.293750, 188.500000) scale(-1, 1) translate(-268.293750, -188.500000) translate(149.793750, 0.000000) translate(0.000000, 90.084354)"/>
                            <path fill="#FFEDC2" d="M30.217 61.508L27.12 88.795 39.366 84.908 37.518 58.166z" transform="translate(-113.000000, -277.000000) translate(113.000000, 290.000000) translate(143.500000, 122.000000) translate(268.293750, 188.500000) scale(-1, 1) translate(-268.293750, -188.500000) translate(149.793750, 0.000000) translate(0.000000, 90.084354)"/>
                        </g>
                        <g transform="translate(-113.000000, -277.000000) translate(113.000000, 290.000000) translate(143.500000, 122.000000) translate(268.293750, 188.500000) scale(-1, 1) translate(-268.293750, -188.500000) translate(149.793750, 0.000000) translate(30.115199, 191.912615)">
                            <path fill="url(#q05xt45e8c)" d="M161.968 140.125s-.227 17.86 14.51 24.538c14.726 6.677 25.218 6.275 23.883 11.437-1.336 5.162-39.668 4.954-43.247.916-3.052-3.434-9.686-35.413-11.513-32.968l16.367-3.923z"/>
                            <path fill="#323740" d="M148.223 154.204s3.097 7.585 3.37 12.181c.274 4.598 7.323 17.669 7.323 17.669l5.57.698.509-4.739s8.061 3.431 13.118 3.979c5.057.549 22.402-1.51 25.85-4.374 3.45-2.862 1.708-6.892-8.248-9.348-9.955-2.457-25.423-9.633-28.367-14.828-2.943-5.196-2.96-5.062-2.96-5.062l.058 8.658s-2.548-4.557-5.555-5.165c-3.007-.608-10.668.331-10.668.331z"/>
                            <path fill="#42474F" d="M11.841.253c-16.506 24.839-14.892 42.806 4.843 53.9 25.28 14.213 103.253-2.434 103.253-2.434s-1.383 11.12 0 21.039c3.612 25.904 20.792 69.061 24.426 74.484 5.027 7.499 20.338 1.844 20.627-4.4.288-6.245-11.543-85.994-13.342-101.202-1.79-15.208-7.44-17.417-23.945-21.575-3.791-.955-48.63-12.083-52.737-11.759-23.53 1.858-44.57-.826-63.125-8.053z"/>
                            <path fill="#FFF" fill-opacity=".192" d="M29.827 50.013c25.597 2.864 93.363-3.04 96.085-.357 2.598 2.561 2.164 47.127 7.994 72.92-5.742-15.63-11.958-35.397-13.969-49.818-1.383-9.919 0-21.04 0-21.04l-2.647.528c-13.816 2.68-77.864 14.187-100.606 1.908C3.345 46.95-1.816 35.799 1.201 20.699c3.638 17.814 13.18 27.585 28.626 29.314z" opacity=".44"/>
                            <ellipse cx="162.564" cy="43.682" fill="#FFF" fill-opacity=".192" rx="4.302" ry="7.878" transform="translate(162.563756, 43.681603) rotate(13.000000) translate(-162.563756, -43.681603)"/>
                            <ellipse cx="142.487" cy="38.669" fill="#FFF" fill-opacity=".192" rx="5.736" ry="8.594" transform="translate(142.486957, 38.668960) rotate(-16.000000) translate(-142.486957, -38.668960)"/>
                        </g>
                    </g>
                    <g>
                        <g>
                            <path fill="#7596FF" fill-rule="nonzero" d="M3.995 1.475l39.857 16.036c.911.366 1.518 1.239 1.544 2.22l1.46 55.113c.036 1.36-1.038 2.493-2.398 2.529-.284.007-.568-.034-.837-.123L2.636 63.72C1.63 63.39.95 62.453.944 61.396L.611 3.776c-.008-1.362 1.09-2.471 2.45-2.479.32-.002.637.059.934.178z" transform="translate(-113.000000, -277.000000) translate(113.000000, 290.000000) translate(143.500000, 122.000000) translate(184.993251, 110.364006) rotate(-28.000000) translate(-184.993251, -110.364006) translate(160.993251, 70.864006) translate(-0.000000, -0.000000)"/>
                            <path fill="url(#l8z1bwfb9d)" d="M5.56 2.216L45.43 15.99c.993.343 1.66 1.278 1.66 2.329V73.95c0 1.36-1.103 2.464-2.464 2.464-.274 0-.546-.046-.805-.136L3.951 62.507c-.993-.343-1.66-1.278-1.66-2.33V4.546c0-1.36 1.103-2.464 2.464-2.464.274 0 .546.046.805.135z" transform="translate(-113.000000, -277.000000) translate(113.000000, 290.000000) translate(143.500000, 122.000000) translate(184.993251, 110.364006) rotate(-28.000000) translate(-184.993251, -110.364006) translate(160.993251, 70.864006) translate(-0.000000, -0.000000)"/>
                            <path fill="#FFF" fill-rule="nonzero" d="M4.521 5.018L44.912 18.427 44.912 73.408 5.071 59.393z" transform="translate(-113.000000, -277.000000) translate(113.000000, 290.000000) translate(143.500000, 122.000000) translate(184.993251, 110.364006) rotate(-28.000000) translate(-184.993251, -110.364006) translate(160.993251, 70.864006) translate(-0.000000, -0.000000)"/>
                            <path fill="#7367F0" fill-rule="nonzero" d="M17.83 3.276l16.386 6.056c.605.223 1.016.787 1.044 1.431l.292 6.732c.02.441-.323.815-.765.834-.106.004-.212-.012-.312-.049L18.09 12.224c-.605-.223-1.016-.787-1.044-1.431l-.292-6.732c-.02-.441.323-.815.765-.834.106-.005.212.012.312.049z" transform="translate(-113.000000, -277.000000) translate(113.000000, 290.000000) translate(143.500000, 122.000000) translate(184.993251, 110.364006) rotate(-28.000000) translate(-184.993251, -110.364006) translate(160.993251, 70.864006) translate(-0.000000, -0.000000)"/>
                            <path fill="#A7C3FF" d="M30.126 26.615c.633 0 1.145.513 1.145 1.145 0 .588-.442 1.072-1.012 1.138l-.133.008-17.959-6c-.633 0-1.145-.513-1.145-1.145 0-.588.442-1.072 1.012-1.138l.133-.008 17.959 6zM30.126 38.07c.633 0 1.145.512 1.145 1.145 0 .587-.442 1.071-1.012 1.137l-.133.008-17.959-6c-.633 0-1.145-.512-1.145-1.145 0-.587.442-1.071 1.012-1.138l.133-.007 17.959 6zM30.126 49.524c.633 0 1.145.513 1.145 1.145 0 .588-.442 1.072-1.012 1.138l-.133.008-17.959-6c-.633 0-1.145-.513-1.145-1.145 0-.588.442-1.072 1.012-1.138l.133-.008 17.959 6z" transform="translate(-113.000000, -277.000000) translate(113.000000, 290.000000) translate(143.500000, 122.000000) translate(184.993251, 110.364006) rotate(-28.000000) translate(-184.993251, -110.364006) translate(160.993251, 70.864006) translate(-0.000000, -0.000000)"/>
                        </g>
                    </g>
                    <g>
                        <g>
                            <path fill="#C5C5C5" d="M131.436 7.212L160.326 7.212 160.326 190.791 131.436 190.791z" transform="translate(-113.000000, -277.000000) translate(113.000000, 290.000000) translate(143.500000, 122.000000) translate(0.000000, 186.247573) translate(16.322727, 0.000000)"/>
                            <path fill="#DBDBDB" d="M131.436 0L148.77 0 148.77 190.791 131.436 190.791z" transform="translate(-113.000000, -277.000000) translate(113.000000, 290.000000) translate(143.500000, 122.000000) translate(0.000000, 186.247573) translate(16.322727, 0.000000)"/>
                            <path fill="#C5C5C5" d="M0 7.212L143.003 7.212 143.003 62.273 28.89 62.273 28.89 190.791 0 190.791z" transform="translate(-113.000000, -277.000000) translate(113.000000, 290.000000) translate(143.500000, 122.000000) translate(0.000000, 186.247573) translate(16.322727, 0.000000)"/>
                            <path fill="#DBDBDB" d="M0 7.212L17.334 7.212 17.334 190.791 0 190.791z" transform="translate(-113.000000, -277.000000) translate(113.000000, 290.000000) translate(143.500000, 122.000000) translate(0.000000, 186.247573) translate(16.322727, 0.000000)"/>
                        </g>
                        <g>
                            <path fill="#C5C5C5" d="M373.942 7.212L402.831 7.212 402.831 190.791 373.942 190.791z" transform="translate(-113.000000, -277.000000) translate(113.000000, 290.000000) translate(143.500000, 122.000000) translate(0.000000, 186.247573)"/>
                            <path fill="#C5C5C5" d="M242.506 7.212L385.509 7.212 385.509 75.37 271.395 75.37 271.395 190.791 242.506 190.791z" transform="translate(-113.000000, -277.000000) translate(113.000000, 290.000000) translate(143.500000, 122.000000) translate(0.000000, 186.247573)"/>
                            <path fill="#DBDBDB" d="M39.423 0L259.672 0 259.672 75.236 39.423 75.236z" transform="translate(-113.000000, -277.000000) translate(113.000000, 290.000000) translate(143.500000, 122.000000) translate(0.000000, 186.247573)"/>
                            <path fill="#C3C3C3" d="M238.172 7.212L255.506 7.212 255.506 75.236 238.172 75.236z" transform="translate(-113.000000, -277.000000) translate(113.000000, 290.000000) translate(143.500000, 122.000000) translate(0.000000, 186.247573)"/>
                            <path fill="#DBDBDB" d="M242.506 7.212L259.839 7.212 259.839 190.791 242.506 190.791z" transform="translate(-113.000000, -277.000000) translate(113.000000, 290.000000) translate(143.500000, 122.000000) translate(0.000000, 186.247573)"/>
                            <path fill="#C5C5C5" d="M259.17 0h148.744c5.975 0 10.818 4.844 10.818 10.818 0 5.975-4.843 10.819-10.818 10.819H259.17c-5.975 0-10.819-4.844-10.819-10.819C248.352 4.844 253.196 0 259.171 0z" transform="translate(-113.000000, -277.000000) translate(113.000000, 290.000000) translate(143.500000, 122.000000) translate(0.000000, 186.247573)"/>
                            <path fill="#C3C3C3" d="M22.257 4.327L242.506 4.327 242.506 25.964 22.257 25.964z" transform="translate(-113.000000, -277.000000) translate(113.000000, 290.000000) translate(143.500000, 122.000000) translate(0.000000, 186.247573)"/>
                            <path fill="#DBDBDB" d="M11.697 0h251.769c5.975 0 10.818 4.844 10.818 10.818 0 5.975-4.843 10.819-10.818 10.819H11.696C5.723 21.637.88 16.793.88 10.818.879 4.844 5.722 0 11.697 0z" transform="translate(-113.000000, -277.000000) translate(113.000000, 290.000000) translate(143.500000, 122.000000) translate(0.000000, 186.247573)"/>
                        </g>
                    </g>
                    <g>
                        <path fill="#8C81FF" d="M9.786 2.625h-7.25C1.135 2.625 0 3.704 0 5.034v3.299c0 3.152 2.69 5.707 6.008 5.707h3.778c.6 0 1.086-.462 1.086-1.032 0-.57-.486-1.032-1.086-1.032H6.008c-2.118 0-3.835-1.631-3.835-3.643v-3.3c0-.19.162-.343.362-.343h7.25c.6 0 1.087-.462 1.087-1.032 0-.57-.486-1.033-1.086-1.033z" transform="translate(-113.000000, -277.000000) translate(113.000000, 290.000000) translate(143.500000, 122.000000) translate(286.525000, 175.228155) scale(-1, 1) translate(-286.525000, -175.228155) translate(268.025000, 164.228155)"/>
                        <path fill="#7367F0" d="M33.862 0c1.6 0 2.898 1.232 2.898 2.752v6.881c0 4.955-3.938 9.036-9.002 9.574l-.001 1.436H15.073v-1.468c-4.937-.649-8.738-4.674-8.738-9.542v-6.88C6.335 1.232 7.632 0 9.232 0h24.63z" transform="translate(-113.000000, -277.000000) translate(113.000000, 290.000000) translate(143.500000, 122.000000) translate(286.525000, 175.228155) scale(-1, 1) translate(-286.525000, -175.228155) translate(268.025000, 164.228155)"/>
                        <path fill="#8C81FF" d="M6.483 19.267h29.049c.38 0 .688.308.688.688 0 .387-.3.707-.687.732l-10.68.674h-7.606l-10.765-.675c-.386-.024-.687-.344-.687-.73 0-.38.308-.689.688-.689z" transform="translate(-113.000000, -277.000000) translate(113.000000, 290.000000) translate(143.500000, 122.000000) translate(286.525000, 175.228155) scale(-1, 1) translate(-286.525000, -175.228155) translate(268.025000, 164.228155)"/>
                    </g>
                    <g transform="translate(-113.000000, -277.000000) translate(113.000000, 290.000000) translate(143.500000, 122.000000) translate(95.550000, 122.024272)">
                        <path fill="#8C81FF" d="M9.474 59.662h139.152c1.091 0 1.976.884 1.976 1.976 0 1.09-.885 1.975-1.976 1.975H9.474c-1.09 0-1.975-.884-1.975-1.975 0-1.092.884-1.976 1.975-1.976z"/>
                        <path fill="#7367F0" d="M103.742 59.662h44.884c1.091 0 1.976.884 1.976 1.976 0 1.09-.885 1.975-1.976 1.975h-44.884c-1.091 0-1.976-.884-1.976-1.975 0-1.092.885-1.976 1.976-1.976zM4.094 0h89.922c1.81 0 3.339 1.344 3.57 3.14l6.785 52.632c.254 1.972-1.139 3.776-3.11 4.03-.153.02-.307.03-.46.03H10.878c-1.81 0-3.34-1.344-3.57-3.14L.522 4.06C.27 2.088 1.662.284 3.633.03c.153-.02.307-.03.46-.03z"/>
                        <path fill="url(#r7aafpcz8e)" d="M4.094 0H90.93c1.81 0 3.34 1.344 3.57 3.14l6.786 52.632c.254 1.972-1.139 3.776-3.11 4.03-.153.02-.307.03-.46.03H10.878c-1.81 0-3.34-1.344-3.57-3.14L.522 4.06C.27 2.088 1.662.284 3.633.03c.153-.02.307-.03.46-.03z"/>
                        <ellipse cx="49.32" cy="30.868" fill="#FFF" rx="6.125" ry="6.672" transform="translate(49.319823, 30.868131) rotate(-37.000000) translate(-49.319823, -30.868131)"/>
                    </g>
                    <g>
                        <g>
                            <path fill="#57E295" d="M44.98 110.267C56.922 83.297 67.771 55.6 77.703 27.29c-22.877 21.526-40.667 47.75-38.134 82.978h5.411z" transform="translate(-113.000000, -277.000000) translate(113.000000, 290.000000) translate(143.500000, 122.000000) translate(350.962500, 198.174757)"/>
                            <path fill="#28C76F" d="M38.615 113.083C35.79 67.097 36.986 24.388 60.675 0c-3.267 50.491-9.38 86.06-17.12 113.083h-4.94z" transform="translate(-113.000000, -277.000000) translate(113.000000, 290.000000) translate(143.500000, 122.000000) translate(350.962500, 198.174757)"/>
                            <path fill="#57E295" d="M37.528 108.295C24.293 76.159 10.993 66.947 0 33.96c35.979 18.625 38.234 34.004 45.296 74.335h-7.768z" transform="translate(-113.000000, -277.000000) translate(113.000000, 290.000000) translate(143.500000, 122.000000) translate(350.962500, 198.174757)"/>
                            <path fill="#28C76F" d="M30.405 108.295L6.662 76.159c11.467 3.263 30.633 8.547 30.633 32.136h-6.89z" transform="translate(-113.000000, -277.000000) translate(113.000000, 290.000000) translate(143.500000, 122.000000) translate(350.962500, 198.174757)"/>
                            <path fill="#57E295" d="M52.612 108.295h7.92c5.034-10.493 12.127-17.716 29.287-8.96-11.248-17.104-34.327-22.28-37.207 8.96z" transform="translate(-113.000000, -277.000000) translate(113.000000, 290.000000) translate(143.500000, 122.000000) translate(350.962500, 198.174757)"/>
                            <path fill="#28C76F" d="M45.326 108.295h6.587C64 91.036 69.199 83.516 81.709 68.778c-16.48 6.243-33.397 14.738-36.383 39.517z" transform="translate(-113.000000, -277.000000) translate(113.000000, 290.000000) translate(143.500000, 122.000000) translate(350.962500, 198.174757)"/>
                        </g>
                        <g transform="translate(-113.000000, -277.000000) translate(113.000000, 290.000000) translate(143.500000, 122.000000) translate(350.962500, 198.174757) translate(13.851923, 105.681735)">
                            <mask id="4keo37tmjg" fill="#fff">
                                <use xlink:href="#808ztuxuif"/>
                            </mask>
                            <use fill="#7367F0" xlink:href="#808ztuxuif"/>
                            <path fill="#857AF9" d="M-8.032-1.852H21.8c-14.282 33.016 13.89 52.568 0 85.46H-8.032v-85.46z" mask="url(#4keo37tmjg)"/>
                        </g>
                    </g>
                </g>
            </g>
        </g>
    </g>
</svg>
