<?xml version="1.0" encoding="UTF-8"?>
<svg width="729px" height="514px" viewBox="0 0 729 514" version="1.1" xmlns="http://www.w3.org/2000/svg" xmlns:xlink="http://www.w3.org/1999/xlink">
    <title>verify-email-illustration</title>
    <defs>
        <filter x="-9.8%" y="-9.8%" width="119.7%" height="119.7%" filterUnits="objectBoundingBox" id="filter-1">
            <feGaussianBlur stdDeviation="3" in="SourceGraphic"></feGaussianBlur>
        </filter>
        <linearGradient x1="43.2519157%" y1="-28.1859254%" x2="50%" y2="91.0504812%" id="linearGradient-2">
            <stop stop-color="#FDC6C6" offset="0%"></stop>
            <stop stop-color="#FAB2B2" offset="100%"></stop>
        </linearGradient>
        <linearGradient x1="42.3142644%" y1="8.68934835%" x2="50%" y2="71.6896087%" id="linearGradient-3">
            <stop stop-color="#FDC6C6" offset="0%"></stop>
            <stop stop-color="#FAB2B2" offset="100%"></stop>
        </linearGradient>
        <linearGradient x1="68.6694733%" y1="-53.106962%" x2="68.6694733%" y2="100%" id="linearGradient-4">
            <stop stop-color="#7367F0" offset="0%"></stop>
            <stop stop-color="#8CA5FF" offset="100%"></stop>
        </linearGradient>
        <linearGradient x1="68.6694733%" y1="-53.106962%" x2="68.6694733%" y2="100%" id="linearGradient-5">
            <stop stop-color="#7367F0" offset="0%"></stop>
            <stop stop-color="#8CA5FF" offset="100%"></stop>
        </linearGradient>
        <path d="M14.9158259,0.1217686 L48.1895914,0.1217686 C49.4569426,0.1217686 50.4843338,1.14207107 50.4843338,2.40067795 L50.4843338,8.66767864 C58.8983894,19.2076344 63.1054173,29.7475901 63.1054173,40.2875458 C63.1054173,50.5028722 59.512811,60.7181986 52.3275985,70.933525 C51.8983309,71.5438112 51.1959762,71.907413 50.4463675,71.907413 L12.6590399,71.907413 C11.9094308,71.907413 11.2070756,71.5438062 10.7778126,70.9335163 C3.5926042,60.7181928 0,50.5028693 0,40.2875458 C0,29.9464572 4.04976975,19.6053685 12.1493092,9.26427991 L12.6210835,8.66767864 L12.6210835,2.40067795 C12.6210835,1.14207107 13.6484746,0.1217686 14.9158259,0.1217686 Z" id="path-6"></path>
    </defs>
    <g id="ðŸ“-Pages-New" stroke="none" stroke-width="1" fill="none" fill-rule="evenodd">
        <g id="Verify-Email" transform="translate(-113.000000, -277.000000)">
            <g id="verify-email-illustration" transform="translate(113.000000, 290.000000)">
                <g id="Shape" transform="translate(0.500000, 0.000000)">
                    <path d="M558.524599,155.012318 L686.342912,155.169384 C691.85616,155.176159 696.323841,159.64384 696.330616,165.157088 L696.487682,292.975401 C696.494468,298.498244 692.022821,302.980895 686.499977,302.987682 C686.491785,302.987692 686.483593,302.987692 686.475401,302.987682 L558.657088,302.830616 C553.14384,302.823841 548.676159,298.35616 548.669384,292.842912 L548.512318,165.024599 C548.505532,159.501756 552.977179,155.019105 558.500023,155.012318 C558.508215,155.012308 558.516407,155.012308 558.524599,155.012318 Z" id="Rectangle" fill="#BFE7FF" opacity="0.040019" transform="translate(622.500000, 229.000000) rotate(-45.000000) translate(-622.500000, -229.000000) "></path>
                    <path d="M237.807146,19.4230043 L309.025482,19.5105186 C314.53873,19.5172933 319.006411,23.9849747 319.013186,29.4982229 L319.1007,100.716559 C319.107487,106.239402 314.635839,110.722053 309.112996,110.72884 C309.104804,110.72885 309.096612,110.72885 309.08842,110.72884 L237.870083,110.641325 C232.356835,110.63455 227.889154,106.166869 227.882379,100.653621 L227.794865,29.4352849 C227.788078,23.9124415 232.259726,19.4297908 237.782569,19.4230043 C237.790761,19.4229942 237.798953,19.4229942 237.807146,19.4230043 Z" id="Rectangle" fill="#7367F0" opacity="0.0375744048" filter="url(#filter-1)" transform="translate(273.447783, 65.075922) rotate(-45.000000) translate(-273.447783, -65.075922) "></path>
                    <path d="M330.588761,91.1063585 L596.189125,91.4327328 C601.702373,91.4395075 606.170054,95.9071889 606.176829,101.420437 L606.503203,367.0208 C606.50999,372.543643 602.038342,377.026294 596.515499,377.033081 C596.507307,377.033091 596.499115,377.033091 596.490923,377.033081 L330.890559,376.706706 C325.377311,376.699932 320.90963,372.23225 320.902855,366.719002 L320.576481,101.118639 C320.569694,95.5957958 325.041342,91.113145 330.564185,91.1063585 C330.572377,91.1063484 330.580569,91.1063484 330.588761,91.1063585 Z" id="Rectangle" fill="#7367F0" opacity="0.0659412202" transform="translate(463.539842, 234.069720) rotate(-45.000000) translate(-463.539842, -234.069720) "></path>
                    <path d="M220.715308,269.000314 C226.72012,269.000314 231.587983,273.856228 231.587983,279.846301 L231.587983,449.043698 C231.587983,455.033772 226.72012,459.889685 220.715308,459.889685 L51.1015737,459.889685 C45.0967609,459.889685 40.2288984,455.033772 40.2288984,449.043698 L40.2288984,279.846301 C40.2288984,273.856228 45.0967609,269.000314 51.1015737,269.000314 L220.715308,269.000314 Z M188.097282,312.383948 L83.7195994,312.383948 L83.7195994,416.505423 L188.097282,416.505423 L188.097282,312.383948 Z" id="Rectangle" fill="#7367F0" fill-rule="nonzero" opacity="0.0895647321" transform="translate(135.908441, 364.445000) rotate(-45.000000) translate(-135.908441, -364.445000) "></path>
                </g>
                <g id="Illustration" transform="translate(143.500000, 122.000000)">
                    <g id="Chair4" transform="translate(228.768750, 104.592233)">
                        <polygon id="Path" fill="#374057" points="71.5220485 134.58577 54.1533051 271.344123 63.2595109 271.223703 80.6282542 135.866217"></polygon>
                        <polygon id="Path" fill="#374057" transform="translate(83.035068, 202.964946) scale(-1, 1) translate(-83.035068, -202.964946) " points="87.1663366 134.58577 69.7975932 271.344123 78.903799 271.223703 96.2725424 135.866217"></polygon>
                        <polygon id="Path" fill="#374057" transform="translate(135.984966, 202.964946) scale(-1, 1) translate(-135.984966, -202.964946) " points="140.116235 134.58577 122.747492 271.344123 131.853697 271.223703 149.222441 135.866217"></polygon>
                        <path d="M0,144.994902 L0,138.595725 C1.73433191e-14,132.471992 4.96426669,127.507725 11.088,127.507725 L76.8846672,127.507725 C82.6047918,127.507725 87.38614,123.156389 87.923612,117.461571 L98.0613853,10.046154 C98.5988572,4.35133633 103.380205,5.88268166e-15 109.10033,0 L156.501152,0 C162.624885,1.69683486e-14 167.589152,4.96426669 167.589152,11.088 C167.589152,11.3724358 167.578207,11.6567664 167.556342,11.9403605 L157.232054,145.847263 C156.786723,151.623251 151.969995,156.082902 146.176864,156.082902 L11.088,156.082902 C4.96426669,156.082902 9.63172524e-15,151.118636 0,144.994902 Z" id="Path" fill="#454E67"></path>
                        <path d="M152.955,-4.54747351e-13 L142.793203,131.441987 C142.3467,137.216966 137.53041,141.67525 131.738196,141.67525 L0,141.675 L0,138.233351 C-1.88432012e-14,132.109617 4.96426669,127.145351 11.088,127.145351 L76.6753954,127.145351 C82.3943871,127.145351 87.1751786,122.795686 87.714062,117.10214 L97.8469878,10.043211 C98.3858712,4.34966463 103.166663,-4.44815005e-13 108.885654,-4.54747351e-13 L152.955,-4.54747351e-13 Z" id="Combined-Shape" fill="#374057"></path>
                    </g>
                    <g id="Wom3.4" transform="translate(268.293750, 188.500000) scale(-1, 1) translate(-268.293750, -188.500000) translate(149.793750, 0.000000)">
                        <g id="LLeg" transform="translate(53.060112, 197.641349)">
                            <path d="M93.5725351,133.787439 C93.5725351,133.787439 86.0496705,151.826082 92.2167181,156.607867 C98.3930395,161.390579 110.405253,173.217436 110.405253,173.217436 L71.4852216,164.775967 L81.0928327,131.681342 L93.5725351,133.787439 Z" id="Path" fill="url(#linearGradient-2)"></path>
                            <path d="M91.3375744,145.666021 C91.3375744,145.666021 90.3815125,154.130933 93.1424763,157.019644 C95.9021637,159.907121 110.845577,170.902741 112.016083,172.989032 C113.186588,175.076558 111.093209,177.378886 111.093209,177.378886 C111.093209,177.378886 94.952484,178.781269 87.6933065,174.370429 C82.4521981,171.184205 74.6364879,165.463569 74.6364879,165.463569 L72.5660841,171.089149 L66.6982383,170.849658 C66.6982383,170.849658 65.9208795,163.917985 67.3134877,160.594733 C68.7060959,157.270246 75.8771984,140.354002 75.8771984,140.354002 C75.8771984,140.354002 78.6375597,142.832862 81.5708444,144.082168 C84.5041291,145.330239 88.1783579,148.749782 88.1783579,148.749782 L91.3375744,145.666021 Z" id="Path" fill="#323740"></path>
                            <path d="M28.4628204,0.0452813449 C41.5480899,0.628764729 114.377013,16.715885 127.608796,19.4489743 C140.840579,22.1820635 152.027194,36.9710035 141.937348,54.0957778 C130.604818,73.3192399 101.364817,127.913427 94.2655718,140.220307 C90.7517426,146.311697 73.0250656,142.896404 77.188982,132.672466 C84.9512692,113.613212 88.556083,65.7345481 108.346278,48.2772809 C108.346278,48.2772809 41.7920712,59.8451344 13.0434283,46.5945046 C-7.85034356,36.9623979 -3.12359184,-1.36526658 28.4628204,0.0452813449 Z" id="Path" fill="#42474F"></path>
                        </g>
                        <g id="LArm" transform="translate(90.172555, 84.957137)">
                            <path d="M82.6311688,28.2917525 C82.6311688,28.2917525 82.4833048,17.6586117 86.2076284,12.1016816 C89.9319521,6.54475149 90.0798161,0.642073297 92.8984729,0.835285472 C95.7171298,1.02849765 92.9261974,14.748411 92.9261974,14.748411 C92.9261974,14.748411 96.5026571,13.3839078 99.0717935,11.6579407 C101.64093,9.93197355 109.431513,1.42324214 111.252088,2.93103668 C114.338748,5.50011149 109.366822,19.9919491 106.659063,22.8892073 C103.942063,25.7873899 89.1002173,35.3176498 89.1002173,35.3176498 L52.7471105,72.4415601 L45.9217126,53.582355 L82.6311688,28.2917525 Z" id="Path" fill="#FFE0D1"></path>
                            <path d="M2.2179638,24.7845287 C8.30491988,38.8841142 19.4502882,64.7855562 24.0450127,72.5131327 C29.803172,82.1907056 38.883022,86.4544284 49.5141184,79.2741307 C51.395656,78.0033055 55.2025329,74.9402354 60.9347488,70.0849203 L50.5297337,47.2164685 C46.0307454,50.9248906 43.7812512,52.7791016 43.7812512,52.7791016 C43.7812512,52.7791016 32.3576702,23.5342071 23.1682212,6.59298176 C15.2096526,-8.06398614 -7.04736132,3.34972347 2.2179638,24.7845287 Z" id="Path" fill="#FFB66F"></path>
                            <path d="M43.8992808,52.794257 C45.944714,59.7229224 47.2065069,62.9866686 47.6846593,62.5854955 C48.1628117,62.1843224 47.9801468,58.0151807 47.1366646,50.0780703 L43.8992808,52.794257 Z" id="Path" fill-opacity="0.159855769" fill="#000000"></path>
                            <polygon id="Path-65" fill="#FFEDC2" points="47.9441445 48.4821721 56.6452544 77.5841838 65.8868503 70.3402388 53.024199 44.5409128"></polygon>
                        </g>
                        <g id="Head" transform="translate(35.180402, 0.000000)">
                            <g id="Group-21" transform="translate(33.163122, 49.212621) rotate(12.000000) translate(-33.163122, -49.212621) translate(9.663122, 4.712621)">
                                <path d="M28.3589981,4.77007264 C28.3589981,4.77007264 22.3205023,-1.65325292 15.3474944,0.407684622 C8.37448653,2.46862217 2.06701517,15.1018617 5.06192963,26.9768608 C8.04171825,38.8533979 5.80309533,41.2973007 2.18802182,49.3011209 C-7.52276142,70.8317662 18.2365281,88.1451796 18.2365281,88.1451796 L46.3104549,82.1856776 L36.281644,29.7452844 L28.3589981,4.77007264 Z" id="Path" fill="#42474F"></path>
                                <path d="M18.140822,11.4517429 C1.78747616,28.5754901 15.9713594,41.3985044 18.642742,44.5493085 C27.8262593,69.6557794 20.5206896,72.5981585 10.3006482,80.816884 L15.7960823,87.0878896 L31.5492556,80.5112416 L31.04335,10.0754042 L18.140822,11.4517429 Z" id="Path-50" fill-opacity="0.199355332" fill="#000000"></path>
                            </g>
                            <path d="M25.5653024,80.1985272 C25.5653024,80.1985272 35.533247,78.1977207 35.8293014,64.2328108 C36.1253558,50.2679009 34.4834725,45.500995 34.4834725,45.500995 L53.2811038,45.16225 C53.2811038,45.16225 53.4857046,60.7259182 53.48893,66.3553518 C53.4967725,80.0430558 64.0459206,81.6307109 64.0459206,81.6307109 C64.0459206,81.6307109 61.8529559,92.4582982 44.820027,93.4148123 C31.5211083,94.1627926 25.5653024,80.1985272 25.5653024,80.1985272 Z" id="Path" fill="#F9C7B0"></path>
                            <g id="Group-20" transform="translate(51.641860, 39.993310) rotate(12.000000) translate(-51.641860, -39.993310) translate(26.641860, 9.993310)">
                                <path d="M3.76777441,9.28525507 C1.42421725,1.54866253 14.0197211,-3.13104256 17.7205798,2.44267308 C17.7205798,2.44267308 19.534871,7.72526351 15.7525477,10.7411466 C10.6352868,14.8085907 3.76777441,9.28525507 3.76777441,9.28525507 Z" id="Path" fill="#FB9934"></path>
                                <path d="M6.34573431,29.9481772 C-2.03985841,29.6241176 -0.672070795,41.883918 8.03898566,41.8672744 C8.03898566,41.8672744 13.0985001,59.2830475 30.6644854,59.2830475 C44.9303306,59.2830475 45.8583481,38.9846409 45.9877493,34.9353652 C46.1269537,30.6178349 46.1445993,16.4336219 46.1445993,16.4336219 L6.01929026,16.4150203 L6.34573431,29.9481772 Z" id="Path" fill="#FFE0D1"></path>
                                <path d="M10.7456446,37.5084292 C12.1733295,37.118649 12.5598305,29.2019866 12.5598305,29.2019866 C16.8319627,28.3549676 17.5841332,27.3915392 20.8125384,22.1016703 C35.1507927,25.1541843 44.8857804,26.0864798 46.1445993,36.5723316 C46.1445993,36.5723316 56.9127766,12.3603573 38.0458445,3.75462181 C21.4509271,-3.80405703 3.94129482,3.2976529 0.886356272,16.4982091 C-1.27819818,25.8162488 1.2026386,32.659576 1.2026386,32.659576 C1.2026386,32.659576 3.37642563,29.2019866 6.94475573,30.0655567 C10.5130858,30.9291268 9.31795975,37.8982094 10.7456446,37.5084292 Z" id="Path" fill="#42474F"></path>
                                <path d="M27.5884383,46.184935 C27.5884383,46.184935 30.4743209,50.8427757 36.1066262,49.1893075" id="Path" stroke="#F77B7B" stroke-width="1.5" stroke-linecap="round" transform="translate(31.847532, 47.864659) rotate(-18.000000) translate(-31.847532, -47.864659) "></path>
                                <path d="M30.0328695,51.744492 C31.3548738,52.2985508 32.6088201,52.2984937 33.7061228,51.6616771" id="Path" stroke="#F49494" stroke-linecap="round" transform="translate(31.869496, 51.905940) rotate(2.000000) translate(-31.869496, -51.905940) "></path>
                                <path d="M6.73282405,36.7484099 C7.2592101,34.8516355 7.02524675,33.1947378 5.13897007,32.4371764" id="Path-8" stroke="#F77B7B" stroke-linecap="round" transform="translate(6.058119, 34.592793) rotate(-13.000000) translate(-6.058119, -34.592793) "></path>
                            </g>
                        </g>
                        <g id="Group-19" transform="translate(30.630506, 78.102475)">
                            <path d="M64.6655117,1.66250892 C64.8947077,1.65146739 72.9334232,5.17387317 73.8590586,6.53187829 C79.8891283,15.3786286 90.9609758,46.5161806 91.5309723,53.2709652 C92.1731745,61.0626313 80.9411407,73.4745972 80.8035259,84.7541518 C80.6812017,96.0352428 85.6080049,130.001437 83.6966887,133.17434 C81.800663,136.347243 69.3388814,151.418916 66.7394913,151.480376 C64.1248108,151.541837 62.1731554,143.628786 58.2129082,143.800876 C54.2679515,143.972965 46.0416466,154.464288 42.4942437,154.389801 C38.9621314,154.312173 2.3566034,131.123093 5.15477032,124.51608 C7.96822778,117.909066 21.0263401,101.48987 19.696064,92.4874303 C18.3810785,83.4865271 7.8764846,50.2593964 4.08443325,38.9506481 C0.307672425,27.6418997 -2.73514297,18.633314 4.31379119,13.7671719 C11.3627254,8.90102975 34.2985198,0 34.2985198,0 L54.8337011,11.486984 C54.8337011,11.486984 63.4733014,1.71994373 64.6655117,1.66250892 Z" id="Path" fill="#FF9F43"></path>
                            <path d="M57.3641325,11.1677096 C63.5230776,31.6489503 71.975649,51.8300004 75.3612966,71.0350672 L65.5141835,65.7298246 L56.4317432,72.6117132 C57.0729452,52.6449953 53.7207185,31.6799801 52.1795794,11.1677096 L57.3641325,11.1677096 Z" id="Path" fill="#FFF6E1"></path>
                            <path d="M21.39016,26.8940727 L21.1563081,28.550294 C18.3970183,49.1179849 21.6622207,74.0759661 27.3207957,77.8836274 C33.0972576,81.770615 55.5797955,77.9561846 55.5797955,81.0344315 C55.5797955,84.1126785 24.5103425,112.323067 29.6108318,125.808953 C32.4151598,133.223702 31.4761061,139.818013 26.7936708,145.591886 L25.4339411,144.678026 C14.8219584,137.480347 3.55591852,128.291278 5.15477032,124.51608 C7.96822778,117.909066 21.0263401,101.48987 19.696064,92.4874303 C18.4336779,83.8465632 8.70214873,52.8788049 4.57068188,40.4099528 L3.2545895,36.456665 C1.72501218,31.8213766 0.451930167,27.6225185 0.144218657,23.9996478 L1.09360296,23.3840504 C16.2685876,13.6565877 23.033919,14.8268317 21.39016,26.8940727 L21.39016,26.8940727 Z" id="Path" fill-opacity="0.159855769" fill="#000000"></path>
                            <path d="M30.5082765,1.45042733 L34.2985198,0 L55.2844975,10.8925433 C55.2844975,10.8925433 51.3382771,20.9338472 44.3505035,15.9335706 C38.3609832,11.6577531 40.8878121,7.89509405 36.1929016,5.95414759 C31.5135889,4.01320112 30.5082765,1.45042733 30.5082765,1.45042733 Z" id="Path" fill="#FFF6E1"></path>
                            <path d="M55.2844975,10.8925433 C56.8057718,14.271307 59.8985868,16.2456311 61.4974772,15.6318947 C64.1364223,14.6181049 63.0032282,10.5790122 64.0432831,8.53857946 C64.788397,7.09099689 65.2696164,6.87249386 65.9215911,5.5132765 C66.5269962,4.26652392 66.5520637,2.77011107 66.3968316,2.35720461 L64.3322451,1.4189269 C62.4408366,3.20260495 61.0551477,4.56738815 60.1751786,5.5132765 C59.078526,6.69208018 57.448299,8.4851691 55.2844975,10.8925433 Z" id="Path" fill="#FFF6E1"></path>
                        </g>
                        <g id="RArm" transform="translate(0.000000, 90.084354)">
                            <path d="M62.8107463,53.1589448 C62.8107463,53.1589448 75.1659656,42.238119 78.9481756,40.9707708 C82.7303855,39.7034226 104.881996,38.1809408 104.742575,41.0447226 C104.583154,44.1127961 92.6855357,43.9362363 91.4528155,45.4457765 C90.2200952,46.9543924 89.9399315,57.2706625 85.2798752,58.4289319 C80.6291578,59.5872013 66.6863442,61.5838987 66.6863442,61.5838987 L33.3349464,81.6719074 L31.9100615,63.3175332 L62.8107463,53.1589448 Z" id="Path" fill="#FFE0D1"></path>
                            <path d="M29.9409927,6.91954628 C16.9240118,25.2668571 5.81043361,53.2142855 1.54450594,64.1101852 C-2.72142173,75.0060849 1.58184184,91.4405662 20.3401206,88.2141472 C22.4521284,87.8511779 25.8763178,86.941348 30.6126888,85.4846576 L35.0956807,60.2492634 C31.2408994,61.8656902 29.3135087,62.6739036 29.3135087,62.6739036 C29.3135087,62.6739036 47.957371,29.6703465 52.509942,20.8229534 C60.1144218,6.04726809 41.4067271,-9.24622714 29.9409927,6.91954628 Z" id="Path" fill="#FFB66F"></path>
                            <path d="M29.3135087,62.6739036 C23.0002216,65.7535642 20.2405767,66.6160595 21.034574,65.2613896 C21.8285712,63.9067196 25.7789355,60.9048396 32.8856669,56.2557496 L29.3135087,62.6739036 Z" id="Path" fill-opacity="0.159855769" fill="#000000"></path>
                            <polygon id="Path-64" fill="#FFEDC2" points="30.2166363 61.5078421 27.1200253 88.7953889 39.366049 84.9078271 37.5181226 58.1659509"></polygon>
                        </g>
                        <g id="RLeg" transform="translate(30.115199, 191.912615)">
                            <path d="M161.968087,140.125381 C161.968087,140.125381 161.741296,157.985529 176.477293,164.663173 C191.204018,171.33989 201.696333,170.937934 200.360912,176.100373 C199.025491,181.261886 160.693207,181.053502 157.113537,177.016352 C154.062472,173.582136 147.427762,141.602616 145.600832,144.047689 L161.968087,140.125381 Z" id="Path" fill="url(#linearGradient-3)"></path>
                            <path d="M148.223186,154.204112 C148.223186,154.204112 151.320087,161.788545 151.592665,166.385397 C151.866524,170.983491 158.916453,184.053849 158.916453,184.053849 L164.485757,184.751696 L164.994763,180.012975 C164.994763,180.012975 173.055983,183.444164 178.113402,183.991763 C183.169541,184.540604 200.514748,182.48183 203.96357,179.618421 C207.413671,176.756253 205.670704,172.725626 195.714551,170.269501 C185.759677,167.813377 170.291807,160.63747 167.348471,155.442108 C164.405135,150.245505 164.387219,150.379611 164.387219,150.379611 L164.446085,159.038133 C164.446085,159.038133 161.89818,154.481016 158.890859,153.872573 C155.883537,153.265371 148.223186,154.204112 148.223186,154.204112 Z" id="Path" fill="#323740"></path>
                            <path d="M11.8414559,0.252723738 C-4.66508922,25.0920025 -3.05088414,43.0589336 16.6840711,54.1535172 C41.9649154,68.3658848 119.937299,51.7188049 119.937299,51.7188049 C119.937299,51.7188049 118.554247,62.8394121 119.937299,72.7576536 C123.549491,98.661661 140.728744,141.819061 144.363448,147.241893 C149.389824,154.741044 164.701166,149.085523 164.989577,142.841303 C165.277988,136.597083 153.447107,56.8478802 151.647998,41.6402656 C149.858164,26.4317249 144.207451,24.2226291 127.703161,20.0652728 C123.911531,19.1101783 79.0731776,7.98167873 74.9655995,8.30604127 C51.4364929,10.1640609 30.3951116,7.47962173 11.8414559,0.252723738 Z" id="Path" fill="#42474F"></path>
                            <path d="M29.8274337,50.0126725 C55.4240448,52.8770399 123.190015,46.9727794 125.911648,49.6556824 C128.510135,52.2171912 128.076498,96.7828978 133.905856,122.575391 C128.163888,106.946705 121.948229,87.1785772 119.937299,72.7576536 C118.554247,62.8394121 119.937299,51.7188049 119.937299,51.7188049 L117.289607,52.246459 C103.474223,54.9265284 39.426205,66.4332754 16.6840711,54.1535172 C3.34513193,46.9510731 -1.81577197,35.7994719 1.20135943,20.6987136 C4.83923472,38.5128493 14.3815104,48.2842094 29.8274337,50.0126725 Z" id="Path" fill-opacity="0.192498907" fill="#FFFFFF" opacity="0.439941406"></path>
                            <ellipse id="Oval" fill-opacity="0.192498907" fill="#FFFFFF" transform="translate(162.563756, 43.681603) rotate(13.000000) translate(-162.563756, -43.681603) " cx="162.563756" cy="43.6816026" rx="4.30188685" ry="7.8775317"></ellipse>
                            <ellipse id="Oval" fill-opacity="0.192498907" fill="#FFFFFF" transform="translate(142.486957, 38.668960) rotate(-16.000000) translate(-142.486957, -38.668960) " cx="142.486957" cy="38.6689597" rx="5.735659" ry="8.59395615"></ellipse>
                        </g>
                    </g>
                    <g id="Example-Task1" transform="translate(184.993251, 110.364006) rotate(-28.000000) translate(-184.993251, -110.364006) translate(160.993251, 70.864006)">
                        <g id="Group-3" transform="translate(-0.000000, -0.000000)">
                            <path d="M3.99487709,1.47506068 L43.8522356,17.510501 C44.7632657,17.8770273 45.3696831,18.7495181 45.395693,19.7311702 L46.8559786,74.8444245 C46.8920226,76.2047767 45.8184587,77.3367795 44.4581065,77.3728235 C44.1738826,77.3803543 43.8904995,77.3386357 43.6205043,77.2495146 L2.63573716,63.7211086 C1.63105815,63.3894804 0.950229082,62.4534956 0.944117054,61.3955164 L0.611240161,3.77522786 C0.603378674,2.41442095 1.70015765,1.30489598 3.06096456,1.2970345 C3.38087395,1.29518636 3.69808182,1.3556538 3.99487709,1.47506068 Z" id="Rectangle" fill="#7596FF" fill-rule="nonzero"></path>
                            <path d="M5.55972799,2.21609024 L45.4311743,15.9887274 C46.424346,16.3317948 47.0906876,17.2669419 47.0906876,18.3176965 L47.0906876,73.9505224 C47.0906876,75.311352 45.9875173,76.4145224 44.6266876,76.4145224 C44.3528856,76.4145224 44.0809982,76.3688868 43.822201,76.2794915 L3.95075466,62.5068544 C2.95758294,62.1637869 2.29124132,61.2286399 2.29124132,60.1778852 L2.29124132,4.54505937 C2.29124132,3.18422975 3.3944117,2.08105937 4.75524132,2.08105937 C5.02904336,2.08105937 5.30093071,2.12669492 5.55972799,2.21609024 Z" id="Rectangle" fill="url(#linearGradient-4)"></path>
                            <polygon id="Rectangle" fill="#FFFFFF" fill-rule="nonzero" points="4.52137648 5.01778116 44.9115691 18.4265313 44.9115691 73.4083495 5.0709109 59.3932628"></polygon>
                            <path d="M17.8305416,3.27594885 L34.2162811,9.33157767 C34.8207704,9.55497696 35.2322276,10.119231 35.2601373,10.7630754 L35.5519551,17.4949662 C35.5710897,17.9363794 35.2287652,18.3097273 34.787352,18.3288619 C34.6811498,18.3334656 34.575095,18.3168574 34.4753844,18.2800077 L18.0896449,12.2243788 C17.4851556,12.0009795 17.0736984,11.4367255 17.0457886,10.7928811 L16.7539709,4.06099032 C16.7348363,3.61957705 17.0771607,3.24622922 17.518574,3.22709459 C17.6247762,3.22249088 17.730831,3.2390991 17.8305416,3.27594885 Z" id="Rectangle" fill="#7367F0" fill-rule="nonzero"></path>
                            <path d="M30.1258629,26.6147382 C30.7585717,26.6147382 31.2714835,27.1275757 31.2714835,27.7601928 C31.2714835,28.3476229 30.8292279,28.8317737 30.2594664,28.897941 L30.1258629,28.9056473 L12.1671541,22.9061024 C11.5344453,22.9061024 11.0215335,22.3932649 11.0215335,21.7606478 C11.0215335,21.1732177 11.4637891,20.6890669 12.0335506,20.6228996 L12.1671541,20.6151933 L30.1258629,26.6147382 Z" id="Path" fill="#A7C3FF"></path>
                            <path d="M30.1258629,38.0692837 C30.7585717,38.0692837 31.2714835,38.5821211 31.2714835,39.2147382 C31.2714835,39.8021684 30.8292279,40.2863191 30.2594664,40.3524865 L30.1258629,40.3601928 L12.1671541,34.3606478 C11.5344453,34.3606478 11.0215335,33.8478104 11.0215335,33.2151933 C11.0215335,32.6277631 11.4637891,32.1436123 12.0335506,32.077445 L12.1671541,32.0697387 L30.1258629,38.0692837 Z" id="Path" fill="#A7C3FF"></path>
                            <path d="M30.1258629,49.5238291 C30.7585717,49.5238291 31.2714835,50.0366666 31.2714835,50.6692837 C31.2714835,51.2567138 30.8292279,51.7408646 30.2594664,51.8070319 L30.1258629,51.8147382 L12.1671541,45.8151933 C11.5344453,45.8151933 11.0215335,45.3023558 11.0215335,44.6697387 C11.0215335,44.0823086 11.4637891,43.5981578 12.0335506,43.5319905 L12.1671541,43.5242842 L30.1258629,49.5238291 Z" id="Path" fill="#A7C3FF"></path>
                        </g>
                    </g>
                    <g id="Group-26" transform="translate(0.000000, 186.247573)">
                        <g id="Group-25" transform="translate(16.322727, 0.000000)">
                            <polygon id="Rectangle" fill="#374057" points="131.436168 7.21218084 160.325758 7.21218084 160.325758 190.790803 131.436168 190.790803"></polygon>
                            <polygon id="Rectangle" fill="#454E67" points="131.436168 -3.38912548e-13 148.769922 -3.38912548e-13 148.769922 190.790803 131.436168 190.790803"></polygon>
                            <polygon id="Rectangle" fill="#374057" points="1.98457179e-15 7.21218084 143.003468 7.21218084 143.003468 62.2733245 28.8895895 62.2733245 28.8895895 190.790803 1.98457179e-15 190.790803"></polygon>
                            <polygon id="Rectangle" fill="#454E67" points="1.92443325e-15 7.21218084 17.3337537 7.21218084 17.3337537 190.790803 1.92443325e-15 190.790803"></polygon>
                        </g>
                        <g id="Group-25">
                            <polygon id="Rectangle" fill="#374057" points="373.941854 7.21218084 402.831443 7.21218084 402.831443 190.790803 373.941854 190.790803"></polygon>
                            <polygon id="Rectangle" fill="#374057" points="242.505685 7.21218084 385.509154 7.21218084 385.509154 75.3697291 271.395275 75.3697291 271.395275 190.790803 242.505685 190.790803"></polygon>
                            <polygon id="Rectangle" fill="#454E67" points="39.4229348 -5.34581367e-13 259.671663 -7.68684406e-13 259.671663 75.2356389 39.4229348 75.2356389"></polygon>
                            <polygon id="Rectangle" fill="#374057" points="238.172247 7.21218084 255.506001 7.21218084 255.506001 75.2356389 238.172247 75.2356389"></polygon>
                            <polygon id="Rectangle" fill="#454E67" points="242.505685 7.21218084 259.839439 7.21218084 259.839439 190.790803 242.505685 190.790803"></polygon>
                            <path d="M259.170659,0 L407.91391,0 C413.888677,6.78810087e-16 418.732182,4.84350503 418.732182,10.8182713 C418.732182,16.7930375 413.888677,21.6365425 407.91391,21.6365425 L259.170659,21.6365425 C253.195893,21.6365425 248.352388,16.7930375 248.352388,10.8182713 C248.352388,4.84350503 253.195893,1.09754675e-15 259.170659,0 Z" id="Rectangle" fill="#374057"></path>
                            <polygon id="Rectangle" fill="#374057" points="22.2569576 4.32730851 242.505685 4.32730851 242.505685 25.963851 22.2569576 25.963851"></polygon>
                            <path d="M11.6968234,-3.38204986e-14 L263.465963,-3.38204986e-14 C269.440729,-5.62343274e-14 274.284234,4.84350503 274.284234,10.8182713 C274.284234,16.7930375 269.440729,21.6365425 263.465963,21.6365425 L11.6968234,21.6365425 C5.72205717,21.6365425 0.878552144,16.7930375 0.878552144,10.8182713 C0.878552144,4.84350503 5.72205717,-3.27229518e-14 11.6968234,-3.38204986e-14 Z" id="Rectangle" fill="#454E67"></path>
                        </g>
                    </g>
                    <g id="Cup" transform="translate(286.525000, 175.228155) scale(-1, 1) translate(-286.525000, -175.228155) translate(268.025000, 164.228155)">
                        <path d="M9.78574731,2.62548262 L2.53539663,2.62548262 C1.13513574,2.62548262 0,3.70374829 0,5.03385641 L0,8.33269703 C0,11.4847045 2.68997407,14.0399114 6.00822525,14.0399114 L9.78574731,14.0399114 C10.3858591,14.0399114 10.8723459,13.5777976 10.8723459,13.0077512 C10.8723459,12.4377049 10.3858591,11.9755911 9.78574731,11.9755911 L6.00822525,11.9755911 C3.8901977,11.9755911 2.17319712,10.3446118 2.17319712,8.33269703 L2.17319712,5.03385641 C2.17319712,4.84384096 2.33535936,4.68980301 2.53539663,4.68980301 L9.78574731,4.68980301 C10.3858591,4.68980301 10.8723459,4.22768915 10.8723459,3.65764282 C10.8723459,3.08759648 10.3858591,2.62548262 9.78574731,2.62548262 Z" id="Path" fill="#8C81FF"></path>
                        <path d="M33.8619584,0 C35.4622566,0 36.7595546,1.23230363 36.7595546,2.75242718 L36.7595546,9.63349515 C36.7595546,14.5877689 32.8224774,18.6685585 27.758177,19.2067832 L27.7569577,20.6432039 L15.0732825,20.6432039 L15.0725994,19.1754507 C10.1359227,18.5261438 6.33479497,14.5014806 6.33479497,9.63349515 L6.33479497,2.75242718 C6.33479497,1.23230363 7.63209296,0 9.23239112,0 L33.8619584,0 Z" id="Path" fill="#7367F0"></path>
                        <path d="M6.4832991,19.2669903 L35.5318451,19.2669903 C35.911876,19.2669903 36.2199519,19.5750662 36.2199519,19.9550971 C36.2199519,20.3419475 35.9192943,20.6621882 35.5332128,20.6865664 L24.8535942,21.3609054 L24.8535942,21.3609054 L17.2474043,21.3609054 L6.48195182,20.6862426 C6.09590826,20.6620495 5.79519231,20.341898 5.79519231,19.9550971 C5.79519231,19.5750662 6.10326821,19.2669903 6.4832991,19.2669903 Z" id="Rectangle" fill="#8C81FF"></path>
                    </g>
                    <g id="FacingBack-Laptop3" transform="translate(95.550000, 122.024272)">
                        <path d="M9.47440612,59.6616997 L148.625858,59.6616997 C149.717092,59.6616997 150.601712,60.5463196 150.601712,61.6375535 C150.601712,62.7287875 149.717092,63.6134073 148.625858,63.6134073 L9.47440612,63.6134073 C8.3831722,63.6134073 7.49855232,62.7287875 7.49855232,61.6375535 C7.49855232,60.5463196 8.3831722,59.6616997 9.47440612,59.6616997 Z" id="Rectangle" fill="#8C81FF"></path>
                        <path d="M103.741921,59.6616997 L148.625858,59.6616997 C149.717092,59.6616997 150.601712,60.5463196 150.601712,61.6375535 C150.601712,62.7287875 149.717092,63.6134073 148.625858,63.6134073 L103.741921,63.6134073 C102.650687,63.6134073 101.766067,62.7287875 101.766067,61.6375535 C101.766067,60.5463196 102.650687,59.6616997 103.741921,59.6616997 Z" id="Rectangle" fill="#7367F0"></path>
                        <path d="M4.09385342,0 L94.0155165,0 C95.8258078,-6.31990243e-15 97.3545289,1.34430709 97.5859735,3.13974238 L104.370638,55.7719041 C104.624832,57.743813 103.232348,59.5484254 101.260439,59.8026187 C101.107809,59.8222938 100.954074,59.8321617 100.800181,59.8321617 L10.8785182,59.8321617 C9.06822696,59.8321617 7.5395058,58.4878546 7.30806126,56.6924194 L0.523396457,4.06025762 C0.269203191,2.08834869 1.66168687,0.283736304 3.6335958,0.0295430377 C3.78622585,0.00986792428 3.93996046,1.80462652e-15 4.09385342,0 Z" id="Rectangle" fill="#7367F0"></path>
                        <path d="M4.09385342,0 L90.9303978,0 C92.7406891,-5.87581322e-15 94.2694103,1.34430709 94.5008548,3.13974238 L101.28552,55.7719041 C101.539713,57.743813 100.147229,59.5484254 98.1753203,59.8026187 C98.0226902,59.8222938 97.8689556,59.8321617 97.7150627,59.8321617 L10.8785182,59.8321617 C9.06822696,59.8321617 7.5395058,58.4878546 7.30806126,56.6924194 L0.523396457,4.06025762 C0.269203191,2.08834869 1.66168687,0.283736304 3.6335958,0.0295430377 C3.78622585,0.00986792428 3.93996046,4.02507257e-15 4.09385342,0 Z" id="Rectangle" fill="url(#linearGradient-5)"></path>
                        <ellipse id="Oval" fill="#FFFFFF" transform="translate(49.319823, 30.868131) rotate(-37.000000) translate(-49.319823, -30.868131) " cx="49.3198225" cy="30.8681311" rx="6.12511333" ry="6.67188729"></ellipse>
                    </g>
                    <g id="Group-79" transform="translate(350.962500, 198.174757)">
                        <g id="Group-86">
                            <path d="M44.9800682,110.267133 C56.9219939,83.2973199 67.7710597,55.5988283 77.7029942,27.2888279 C54.8256334,48.814812 37.0355177,75.039778 39.5688138,110.267133 L44.9800682,110.267133 Z" id="Path-113" fill="#57E295"></path>
                            <path d="M38.6151041,113.083462 C35.7886757,67.0966205 36.9863632,24.3877051 60.6759179,0 C57.4083082,50.491179 51.2958348,86.0599666 43.554253,113.083462 L38.6151041,113.083462 Z" id="Rectangle" fill="#28C76F"></path>
                            <path d="M37.5281926,108.294516 C24.2929071,76.1587621 10.9934347,66.9471066 4.60623539e-14,33.9602712 C35.9788441,52.5851167 38.2341933,67.9643959 45.2962878,108.294516 L37.5281926,108.294516 Z" id="Path-112" fill="#57E295"></path>
                            <path d="M30.4049472,108.294516 L6.66176855,76.1587621 C18.1287346,79.4219227 37.2954752,84.7060223 37.2954752,108.294516 L30.4049472,108.294516 Z" id="Path-114" fill="#28C76F"></path>
                            <path d="M52.6117091,108.294516 L60.532417,108.294516 C65.5658592,97.8024187 72.6589858,90.5794847 89.819142,99.3350962 C78.5707942,82.2305588 55.4915061,77.0541032 52.6117091,108.294516 Z" id="Path-116" fill="#57E295"></path>
                            <path d="M45.3258346,108.294516 L51.9125321,108.294516 C64.0011,91.0361797 69.1985856,83.5162073 81.7086224,68.7779806 C65.22866,75.0208717 48.3124219,83.5162073 45.3258346,108.294516 Z" id="Path-117" fill="#28C76F"></path>
                        </g>
                        <g id="Group-85" transform="translate(13.851923, 105.681735)">
                            <mask id="mask-7" fill="white">
                                <use xlink:href="#path-6"></use>
                            </mask>
                            <use id="Rectangle" fill="#7367F0" xlink:href="#path-6"></use>
                            <path d="M-8.03159856,-1.85161384 L21.8000532,-1.85161384 C7.51820109,31.1640839 35.6899931,50.7160795 21.8000532,83.6074866 L-8.03159856,83.6074866 L-8.03159856,-1.85161384 Z" id="Rectangle" fill="#857AF9" mask="url(#mask-7)"></path>
                        </g>
                    </g>
                </g>
            </g>
        </g>
    </g>
</svg>